<?xml version="1.0" encoding="UTF-8" standalone="no"?>
<!-- Created with Inkscape (http://www.inkscape.org/) -->

<svg
   version="1.1"
   id="svg1"
   width="1920"
   height="1920"
   viewBox="0 0 1920 1920"
   sodipodi:docname="icon-machine-learning.svg"
   inkscape:version="1.3 (0e150ed6c4, 2023-07-21)"
   xml:space="preserve"
   xmlns:inkscape="http://www.inkscape.org/namespaces/inkscape"
   xmlns:sodipodi="http://sodipodi.sourceforge.net/DTD/sodipodi-0.dtd"
   xmlns="http://www.w3.org/2000/svg"
   xmlns:svg="http://www.w3.org/2000/svg"><defs
     id="defs1" /><sodipodi:namedview
     id="namedview1"
     pagecolor="#ffffff"
     bordercolor="#000000"
     borderopacity="0.25"
     inkscape:showpageshadow="2"
     inkscape:pageopacity="0.0"
     inkscape:pagecheckerboard="0"
     inkscape:deskcolor="#d1d1d1"
     inkscape:zoom="0.13046875"
     inkscape:cx="961.91617"
     inkscape:cy="1567.4251"
     inkscape:window-width="1366"
     inkscape:window-height="697"
     inkscape:window-x="-8"
     inkscape:window-y="-8"
     inkscape:window-maximized="1"
     inkscape:current-layer="g1" /><g
     inkscape:groupmode="layer"
     inkscape:label="Image"
     id="g1"><path
       style="fill:#ffdb6e;fill-opacity:1"
       d="m 205.06696,1835.1941 c -40.76588,-10.3008 -75.75387,-39.0349 -95.0354,-78.0485 -12.820713,-25.9409 -13.542033,-29.2368 -13.542033,-61.8761 0,-32.6392 0.72132,-35.9351 13.542033,-61.8761 37.91591,-76.7176 128.74238,-103.8446 201.13396,-60.0723 l 22.12602,13.3787 52.11546,-39.8405 c 28.6635,-21.9122 86.84697,-66.3369 129.2966,-98.7214 42.44963,-32.3845 78.42363,-60.0067 79.94224,-61.3826 1.5186,-1.3759 -0.0414,-10.0632 -3.46669,-19.3051 l -6.22779,-16.8034 H 481.62089 c -80.26965,0 -103.3311,1.0014 -103.3333,4.4873 -0.002,2.468 -4.78669,14.5994 -10.63363,26.9587 -13.94827,29.484 -40.48087,55.6826 -71.06515,70.1706 -21.92916,10.3879 -27.39578,11.4627 -58.30138,11.4627 -30.76691,0 -36.38609,-1.0923 -57.43713,-11.1656 -34.18742,-16.3592 -54.82568,-36.3964 -70.81874,-68.7562 -12.805273,-25.9097 -13.542033,-29.266 -13.542033,-61.6899 0,-31.0508 1.07296,-36.5543 11.360063,-58.2681 15.78464,-33.3179 36.17203,-54.1661 68.68016,-70.2325 24.72717,-12.2208 29.54058,-13.3368 57.82682,-13.4069 36.64822,-0.091 54.45043,4.7283 79.34118,21.4786 l 18.4904,12.4431 49.97479,-38.1841 c 27.48614,-21.0012 49.97479,-39.3103 49.97479,-40.6869 0,-1.3767 -22.57325,-19.7504 -50.16278,-40.8307 l -50.16278,-38.3276 -15.13588,10.9643 c -37.63778,27.2647 -93.69385,31.943 -137.06057,11.4387 -32.85186,-15.5327 -53.71731,-35.9349 -69.58416,-68.0393 -12.820713,-25.94099 -13.542033,-29.23689 -13.542033,-61.87609 0,-32.6393 0.72132,-35.9352 13.542033,-61.8761 16.0222,-32.4188 36.72404,-52.4881 70.81874,-68.6549 20.28244,-9.6175 27.32412,-11.0776 53.84731,-11.1656 36.29302,-0.1205 54.14491,4.7275 79.00014,21.4538 l 18.4904,12.4431 49.97479,-38.184 c 27.48614,-21.0012 49.97479,-39.3104 49.97479,-40.687 0,-1.3766 -22.57325,-19.7504 -50.16278,-40.8306 l -50.16278,-38.3277 -15.13588,10.9644 c -37.63778,27.2647 -93.69385,31.9429 -137.06057,11.4387 -32.85186,-15.5328 -53.71731,-35.935 -69.58416,-68.0394 -12.820713,-25.9409 -13.542033,-29.2368 -13.542033,-61.8761 0,-32.6392 0.72132,-35.9351 13.542033,-61.8761 15.99306,-32.3597 36.63132,-52.3969 70.81874,-68.7561 21.05104,-10.0733 26.67022,-11.1657 57.43713,-11.1657 30.84179,0 36.39651,1.0865 58.08189,11.3601 32.46291,15.3796 54.00724,36.1179 69.32038,66.7271 6.9304,13.853 12.60072,27.3934 12.60072,30.0898 0,4.0298 18.39261,4.9024 103.33047,4.9024 h 103.33047 l 6.22779,-16.8034 c 3.42528,-9.2419 4.98529,-17.9418 3.46669,-19.3332 -1.51861,-1.3913 -61.27982,-47.1779 -132.80269,-101.7479 l -130.04159,-99.2182 -15.13057,10.9605 c -37.63249,27.2608 -93.69104,31.9379 -137.05527,11.4348 -32.85186,-15.5327 -53.71731,-35.9349 -69.58416,-68.0393 -12.820713,-25.9409 -13.542033,-29.2368 -13.542033,-61.8761 0,-32.5779 0.738,-35.9689 13.406973,-61.6028 16.14747,-32.6722 36.93477,-53.023702 70.30904,-68.835002 21.7138,-10.2871 27.21727,-11.3601 58.26807,-11.3601 32.42394,0 35.7802,0.7368 61.68991,13.542 69.81266,34.503302 98.47569,111.227202 69.37715,185.705602 -1.41413,3.6195 4.11363,10.1902 16.78236,19.9487 10.39007,8.0033 70.05798,53.6066 132.59535,101.3405 l 113.7043,86.7891 18.4802,-12.4363 c 24.8449,-16.7194 42.70048,-21.5674 78.98994,-21.447 26.58713,0.088 33.59894,1.5501 54.49207,11.3601 32.38877,15.2076 53.97749,35.9571 69.32038,66.6258 6.9304,13.853 12.60073,27.3934 12.60073,30.0898 0,3.9839 13.78788,4.9024 73.59132,4.9024 h 73.59128 v -48.9436 c 0,-27.9343 1.874,-55.2861 4.3657,-63.7193 5.8259,-19.7183 35.5646,-49.4569 55.2829,-55.2829 58.2483,-17.21 112.5295,25.2367 112.6277,88.0723 l 0.035,22.4363 h 22.387 22.3871 l 172.4471,-172.3113 172.4471,-172.3114 h 38.2623 c 35.5151,0 38.4312,-0.5324 40.6158,-7.4155 3.7354,-11.7692 23.135,-31.8633 38.1644,-39.530802 44.0384,-22.4667 95.3283,-4.2688 116.5764,41.361902 10.8506,23.3018 10.8764,45.249 0.08,68.4324 -21.2225,45.5734 -72.6541,63.9839 -116.3998,41.6665 -15.2507,-7.7803 -34.6626,-27.819 -38.4214,-39.6619 -2.0902,-6.5856 -5.2335,-7.4155 -28.0885,-7.4155 h -25.7349 l -172.4471,172.3114 -172.4471,172.3114 h -34.9144 -34.9144 v 43.0778 43.0779 h 65.4417 65.4417 l 115.0746,-114.8743 115.0746,-114.8742 h 52.5801 c 49.9848,0 52.6963,-0.3661 54.9337,-7.4156 3.7354,-11.7692 23.135,-31.8633 38.1644,-39.5307 44.0384,-22.4667 95.3283,-4.2688 116.5764,41.3619 10.8506,23.3018 10.8764,45.249 0.08,68.4323 -21.2225,45.5735 -72.6541,63.984 -116.3998,41.6666 -15.2507,-7.7804 -34.6626,-27.819 -38.4214,-39.6619 -2.1933,-6.9107 -5.0815,-7.4155 -42.4246,-7.4155 h -40.071 l -115.0746,114.8742 -115.0747,114.8743 h -77.9507 -77.9508 v 43.0778 43.0779 h 122.8145 122.8145 l 57.82,-57.4371 57.8199,-57.4372 h 52.462 c 49.8654,0 52.5784,-0.367 54.8155,-7.4155 3.7354,-11.7692 23.135,-31.8633 38.1644,-39.5307 44.0384,-22.4668 95.3283,-4.2689 116.5764,41.3619 10.8506,23.3017 10.8764,45.2489 0.08,68.4323 -21.2225,45.5735 -72.6541,63.9839 -116.3998,41.6665 -15.2507,-7.7803 -34.6626,-27.8189 -38.4214,-39.6618 -2.193,-6.9098 -5.0822,-7.4155 -42.3603,-7.4155 h -40.0067 l -57.82,57.4371 -57.8199,57.4371 h -135.2698 -135.2697 v 43.0778 43.0779 h 233.0964 c 232.4151,0 233.1033,-0.022 235.45,-7.4155 3.7354,-11.7692 23.135,-31.8633 38.1644,-39.5308 44.0384,-22.4667 95.3283,-4.2688 116.5764,41.3619 10.8506,23.3018 10.8764,45.249 0.08,68.4324 -21.2225,45.57349 -72.6541,63.98389 -116.3998,41.66649 -15.2507,-7.7803 -34.6626,-27.81889 -38.4214,-39.66189 -2.3467,-7.3938 -3.0349,-7.4155 -235.45,-7.4155 H 1186 v 43.07789 43.0779 h 135.2697 135.2698 l 57.8199,57.4371 57.82,57.4371 h 40.0067 c 37.2781,0 40.1673,-0.5058 42.3603,-7.4155 3.7354,-11.7692 23.135,-31.8633 38.1644,-39.5308 44.0384,-22.4667 95.3283,-4.2688 116.5764,41.362 10.8506,23.3017 10.8764,45.2489 0.08,68.4323 -21.2225,45.5734 -72.6541,63.9839 -116.3998,41.6665 -15.2507,-7.7803 -34.6626,-27.8189 -38.4214,-39.6619 -2.2371,-7.0484 -4.9501,-7.4155 -54.8155,-7.4155 h -52.462 l -57.8199,-57.4371 -57.82,-57.4371 H 1308.8145 1186 v 43.0778 43.0779 h 77.9508 77.9507 l 115.0747,114.8742 115.0746,114.8743 h 40.071 c 37.3431,0 40.2313,-0.5049 42.4246,-7.4155 3.7354,-11.7692 23.135,-31.8634 38.1644,-39.5308 44.0384,-22.4667 95.3283,-4.2688 116.5764,41.3619 10.8506,23.3018 10.8764,45.249 0.08,68.4324 -21.2225,45.5734 -72.6541,63.9839 -116.3998,41.6665 -15.2507,-7.7803 -34.6626,-27.819 -38.4214,-39.6619 -2.2374,-7.0495 -4.9489,-7.4155 -54.9337,-7.4155 h -52.5801 L 1431.958,1379.3653 1316.8834,1264.4911 H 1251.4417 1186 v 43.0778 43.0779 h 34.9144 34.9144 l 172.4471,172.3114 172.4471,172.3113 h 25.7349 c 22.855,0 25.9983,-0.8298 28.0885,-7.4155 3.7354,-11.7692 23.135,-31.8633 38.1644,-39.5307 44.0384,-22.4668 95.3283,-4.2689 116.5764,41.3619 10.8506,23.3018 10.8764,45.2489 0.08,68.4323 -21.2225,45.5735 -72.6541,63.9839 -116.3998,41.6665 -15.2507,-7.7803 -34.6626,-27.8189 -38.4214,-39.6618 -2.1846,-6.8831 -5.1007,-7.4155 -40.6158,-7.4155 h -38.2623 l -172.4471,-172.3114 -172.4471,-172.3114 h -22.3871 c -20.7996,0 -22.3926,0.5727 -22.4658,8.0771 -0.1136,11.6316 -13.1095,38.6815 -24.3641,50.7115 -13.6518,14.5925 -42.374,27.297 -61.7128,27.297 -33.5346,0 -72.4817,-28.7147 -81.9895,-60.4487 -2.2914,-7.648 -4.1662,-29.4684 -4.1662,-48.4898 v -34.5842 h -73.59128 c -56.47834,0 -73.59198,1.0435 -73.59415,4.4873 -0.007,11.686 -23.06032,51.2261 -39.38257,67.5484 -48.11619,48.1161 -123.09908,55.6441 -179.32731,18.0036 l -15.88786,-10.6357 -36.16454,27.8755 c -19.89049,15.3315 -78.16543,59.8375 -129.49987,98.9021 -51.33443,39.0647 -94.49439,72.0884 -95.91103,73.386 -1.41663,1.2976 0.74704,12.8313 4.80817,25.6303 27.1302,85.5037 -37.88754,177.1063 -128.77637,181.4313 -15.3001,0.7281 -33.88278,-0.2086 -41.29483,-2.0815 z m 63.05226,-59.4767 c 30.32756,-10.3336 56.3239,-47.4644 56.3239,-80.4479 0,-44.7422 -41.08928,-86.1556 -85.48123,-86.1556 -45.42407,0 -86.83015,40.7628 -86.83015,85.4812 0,23.2392 8.04538,41.27 26.80202,60.067 26.08008,26.1363 54.54862,32.8573 89.18546,21.0553 z m 1483.44068,-31.8221 c 5.5543,-5.5543 8.8114,-12.9129 8.8114,-19.9072 0,-6.9943 -3.2571,-14.3529 -8.8114,-19.9072 -5.5543,-5.5543 -12.9129,-8.8114 -19.9072,-8.8114 -6.9943,0 -14.3529,3.2571 -19.9072,8.8114 -5.5543,5.5543 -8.8114,12.9129 -8.8114,19.9072 0,6.9943 3.2571,14.3529 8.8114,19.9072 5.5543,5.5543 12.9129,8.8114 19.9072,8.8114 6.9943,0 14.3529,-3.2571 19.9072,-8.8114 z m 0,-258.4671 c 5.5543,-5.5543 8.8114,-12.9129 8.8114,-19.9072 0,-6.9943 -3.2571,-14.3528 -8.8114,-19.9071 -5.5543,-5.5544 -12.9129,-8.8114 -19.9072,-8.8114 -6.9943,0 -14.3529,3.257 -19.9072,8.8114 -5.5543,5.5543 -8.8114,12.9128 -8.8114,19.9071 0,6.9943 3.2571,14.3529 8.8114,19.9072 5.5543,5.5543 12.9129,8.8114 19.9072,8.8114 6.9943,0 14.3529,-3.2571 19.9072,-8.8114 z m -631.8084,-57.4371 8.8114,-8.8114 V 934.22761 449.27551 l -8.8114,-8.8114 c -11.6574,-11.6574 -28.157,-11.6574 -39.8144,0 l -8.8113,8.8114 v 484.9521 484.95209 l 8.8113,8.8114 c 5.5543,5.5543 12.9129,8.8114 19.9072,8.8114 6.9943,0 14.3529,-3.2571 19.9072,-8.8114 z m -854.95691,-24.2728 c 19.7183,-5.826 49.45694,-35.5646 55.28289,-55.2829 9.94499,-33.6594 2.93365,-60.4908 -22.43638,-85.8609 -35.53019,-35.5301 -83.66618,-35.8928 -119.3588,-0.8992 -35.22498,34.5351 -34.95586,83.9615 0.65146,119.6455 25.18149,25.2358 52.3063,32.3115 85.86083,22.3975 z m 488.21558,0 c 19.71829,-5.826 49.45693,-35.5646 55.28288,-55.2829 9.94499,-33.6594 2.93365,-60.4908 -22.43638,-85.8609 -35.53019,-35.5301 -83.66617,-35.8928 -119.3588,-0.8992 -35.22498,34.5351 -34.95586,83.9615 0.65146,119.6455 25.18149,25.2358 52.3063,32.3115 85.86084,22.3975 z M 591.17915,1276.4062 c 3.42528,-9.2418 4.98529,-17.9374 3.46669,-19.3235 -1.51861,-1.386 -27.39624,-21.3053 -57.50586,-44.2652 l -54.74476,-41.7451 -54.74476,41.7451 c -30.10962,22.9599 -55.98726,42.8792 -57.50586,44.2652 -1.51861,1.3861 0.0414,10.0817 3.46668,19.3235 l 6.22779,16.8035 H 482.39522 584.95136 Z M 1013.6886,1135.2576 V 977.30541 h -73.59128 c -56.47834,0 -73.59198,1.0435 -73.59415,4.4873 -0.006,9.7668 -21.39924,48.49689 -35.64758,64.53659 -21.06841,23.7172 -58.52834,41.8462 -92.3206,44.6792 -30.9275,2.5928 -66.95832,-6.9487 -90.42085,-23.9449 l -15.13587,-10.9643 -50.16279,38.3276 c -27.58953,21.0803 -50.16278,39.454 -50.16278,40.8307 0,1.3766 22.48866,19.6857 49.97479,40.6869 l 49.97479,38.1841 18.4904,-12.4431 c 24.85523,-16.7264 42.70713,-21.5744 79.00014,-21.4539 26.58713,0.088 33.59894,1.55 54.49207,11.3601 32.38877,15.2076 53.97749,35.9571 69.32038,66.6258 6.9304,13.853 12.60073,27.3934 12.60073,30.0897 0,3.984 13.78788,4.9025 73.59132,4.9025 h 73.59128 z m -114.87422,43.0778 v -28.7186 h 28.71856 28.71857 v 28.7186 28.7186 h -28.71857 -28.71856 z m 0,-114.8742 v -28.7186 h 28.71856 28.71857 v 28.7186 28.7185 h -28.71857 -28.71856 z m 852.74552,163.5 c 5.5543,-5.5543 8.8114,-12.9129 8.8114,-19.9072 0,-6.9943 -3.2571,-14.3529 -8.8114,-19.9072 -5.5543,-5.5543 -12.9129,-8.8114 -19.9072,-8.8114 -6.9943,0 -14.3529,3.2571 -19.9072,8.8114 -5.5543,5.5543 -8.8114,12.9129 -8.8114,19.9072 0,6.9943 3.2571,14.3529 8.8114,19.9072 5.5543,5.5543 12.9129,8.8113 19.9072,8.8113 6.9943,0 14.3529,-3.257 19.9072,-8.8113 z M 537.19437,1057.6559 c 30.0797,-22.9369 55.93286,-42.8375 57.45147,-44.2235 1.5186,-1.3861 -0.0414,-10.0816 -3.46669,-19.32349 l -6.22779,-16.8035 H 482.39522 379.83907 l -6.19543,16.7162 c -3.40749,9.19379 -5.46671,17.44479 -4.57605,18.33549 2.41546,2.4154 111.37789,86.443 112.48457,86.7436 0.52352,0.1423 25.56251,-18.5079 55.64221,-41.4448 z M 264.79459,1030.377 c 19.7183,-5.826 49.45694,-35.56459 55.28289,-55.28299 9.94499,-33.6594 2.93365,-60.4908 -22.43638,-85.8608 -35.53019,-35.5302 -83.66618,-35.8929 -119.3588,-0.8993 -35.22498,34.5352 -34.95586,83.9615 0.65146,119.64559 25.18149,25.2357 52.3063,32.3115 85.86083,22.3975 z m 488.21558,0 c 19.71829,-5.826 49.45693,-35.56459 55.28288,-55.28299 9.94499,-33.6594 2.93365,-60.4908 -22.43638,-85.8608 -35.53019,-35.5302 -83.66617,-35.8929 -119.3588,-0.8993 -35.22498,34.5352 -34.95586,83.9615 0.65146,119.64559 25.18149,25.2357 52.3063,32.3115 85.86084,22.3975 z m 998.54973,-61.88299 c 17.8062,-17.8062 5.1888,-48.6257 -19.9072,-48.6257 -14.7581,0 -28.7186,13.9605 -28.7186,28.7186 0,6.9943 3.2571,14.3528 8.8114,19.9071 5.5543,5.5543 12.9129,8.8114 19.9072,8.8114 6.9943,0 14.3529,-3.2571 19.9072,-8.8114 z M 591.17915,903.06491 c 3.42528,-9.2419 4.98529,-17.9375 3.46669,-19.3235 -1.51861,-1.3861 -27.39624,-21.3054 -57.50586,-44.2652 l -54.74476,-41.7451 -54.74476,41.7451 c -30.10962,22.9598 -55.98726,42.8791 -57.50586,44.2652 -1.51861,1.386 0.0414,10.0816 3.46668,19.3235 l 6.22779,16.8034 h 102.55615 102.55614 z m 422.50945,-141.1487 v -157.9521 h -73.59128 c -56.47834,0 -73.59198,1.0435 -73.59415,4.4873 -0.007,11.6861 -23.06032,51.2261 -39.38257,67.5484 -48.12675,48.1267 -126.34444,55.8707 -179.00646,17.7225 l -15.13587,-10.9644 -50.16279,38.3277 c -27.58953,21.0802 -50.16278,39.454 -50.16278,40.8306 0,1.3766 22.48866,19.6858 49.97479,40.687 l 49.97479,38.184 18.4904,-12.4431 c 24.85523,-16.7263 42.70713,-21.5743 79.00014,-21.4538 26.58713,0.088 33.59894,1.55 54.49207,11.36 32.38877,15.2076 53.97749,35.9572 69.32038,66.6258 6.9304,13.853 12.60073,27.3935 12.60073,30.0898 0,3.9839 13.78788,4.9024 73.59132,4.9024 h 73.59128 z m -114.87422,71.7964 v -28.7186 h 28.71856 28.71857 v 28.7186 28.7186 h -28.71857 -28.71856 z m 0,-114.8742 v -28.7186 h 28.71856 28.71857 v 28.7186 28.7185 h -28.71857 -28.71856 z m -361.62001,-34.5239 c 30.0797,-22.9369 55.93286,-42.8374 57.45147,-44.2235 1.5186,-1.386 -0.0414,-10.0816 -3.46669,-19.3235 l -6.22779,-16.8034 H 482.39522 379.83907 l -6.19543,16.7161 c -3.40749,9.1939 -5.46671,17.4449 -4.57605,18.3355 2.41546,2.4155 111.37789,86.443 112.48457,86.7437 0.52352,0.1422 25.56251,-18.508 55.64221,-41.4449 z m 1214.36553,25.7125 c 17.8062,-17.8062 5.1888,-48.6258 -19.9072,-48.6258 -14.7581,0 -28.7186,13.9605 -28.7186,28.7186 0,14.7581 13.9605,28.7186 28.7186,28.7186 6.9943,0 14.3529,-3.2571 19.9072,-8.8114 z M 264.79459,657.03561 c 19.7183,-5.826 49.45694,-35.5646 55.28289,-55.2829 9.94499,-33.6594 2.93365,-60.4908 -22.43638,-85.8608 -35.53019,-35.5302 -83.66618,-35.8929 -119.3588,-0.8993 -35.22498,34.5351 -34.95586,83.9615 0.65146,119.6455 25.18149,25.2358 52.3063,32.3115 85.86083,22.3975 z m 488.21558,0 c 19.71829,-5.826 49.45693,-35.5646 55.28288,-55.2829 9.94499,-33.6594 2.93365,-60.4908 -22.43638,-85.8608 -35.53019,-35.5302 -83.66617,-35.8929 -119.3588,-0.8993 -35.22498,34.5351 -34.95586,83.9615 0.65146,119.6455 25.18149,25.2358 52.3063,32.3115 85.86084,22.3975 z m 998.54973,-205.4757 c 17.8062,-17.8062 5.1888,-48.6257 -19.9072,-48.6257 -14.7581,0 -28.7186,13.9604 -28.7186,28.7185 0,14.7581 13.9605,28.7186 28.7186,28.7186 6.9943,0 14.3529,-3.2571 19.9072,-8.8114 z M 268.11922,282.35211 c 11.29378,-3.8482 21.80752,-11.3313 32.27012,-22.9683 32.18858,-35.8014 32.18858,-79.1578 0,-114.9592 -32.82686,-36.5114 -81.99916,-38.4121 -119.58153,-4.6223 -38.35491,34.4844 -38.31598,89.7545 0.0875,124.2825 26.39821,23.7343 54.13248,29.5427 87.22387,18.2673 z m 1483.44068,-89.2593 c 17.8062,-17.8062 5.1888,-48.6257 -19.9072,-48.6257 -14.7581,0 -28.7186,13.9605 -28.7186,28.7186 0,14.7581 13.9605,28.7185 28.7186,28.7185 6.9943,0 14.3529,-3.2571 19.9072,-8.8114 z"
       id="path2" /></g></svg>
