<?xml version="1.0" encoding="UTF-8" standalone="no"?>
<!-- Created with Inkscape (http://www.inkscape.org/) -->

<svg
   version="1.1"
   id="svg1"
   width="943"
   height="944"
   viewBox="0 0 943 944"
   sodipodi:docname="icon-metodologia.svg"
   inkscape:version="1.3 (0e150ed6c4, 2023-07-21)"
   xmlns:inkscape="http://www.inkscape.org/namespaces/inkscape"
   xmlns:sodipodi="http://sodipodi.sourceforge.net/DTD/sodipodi-0.dtd"
   xmlns="http://www.w3.org/2000/svg"
   xmlns:svg="http://www.w3.org/2000/svg">
  <defs
     id="defs1" />
  <sodipodi:namedview
     id="namedview1"
     pagecolor="#ffffff"
     bordercolor="#000000"
     borderopacity="0.25"
     inkscape:showpageshadow="2"
     inkscape:pageopacity="0.0"
     inkscape:pagecheckerboard="0"
     inkscape:deskcolor="#d1d1d1"
     inkscape:zoom="0.26536017"
     inkscape:cx="1241.7086"
     inkscape:cy="518.16367"
     inkscape:window-width="1366"
     inkscape:window-height="697"
     inkscape:window-x="-8"
     inkscape:window-y="-8"
     inkscape:window-maximized="1"
     inkscape:current-layer="g1" />
  <g
     inkscape:groupmode="layer"
     inkscape:label="Image"
     id="g1">
    <path
       id="path1"
       style="fill:#ffbc5e;fill-opacity:1"
       d="M 457.28125 6.0800781 C 453.08905 6.235648 449.54255 9.3961906 447.93555 13.123047 C 446.43115 16.205574 447.00647 20.008918 448.94727 22.765625 C 431.83928 24.017304 414.77033 25.904752 397.84375 28.699219 C 368.93748 33.599684 340.54997 41.502908 313.1875 52.023438 C 254.71576 74.570995 201.07493 109.50483 156.76367 153.81836 C 118.45991 192.05646 87.049165 237.21984 64.804688 286.57422 C 51.159501 316.78839 40.973259 348.55384 34.447266 381.05664 C 31.697668 394.61427 29.622617 408.29967 27.949219 422.0293 C 27.672519 424.15157 27.39574 426.27421 27.119141 428.39648 C 19.710048 437.74184 11.996765 446.86236 5.1386719 456.62891 C 3.6035732 458.89888 2.8065354 461.86129 3.8027344 464.50977 C 4.9822334 468.12188 8.4237816 470.42786 11.892578 471.55078 C 15.355075 472.69255 19.634684 471.97463 21.988281 469.02148 C 23.18778 467.60989 24.343907 466.16257 25.503906 464.71875 C 25.339506 478.68294 25.708314 492.65757 26.820312 506.58008 C 29.949309 546.40079 38.548088 585.76816 52.046875 623.35352 C 67.608659 666.57744 89.909717 707.3564 117.83398 743.83203 C 148.90895 784.47548 186.92631 819.80559 229.79297 847.74023 C 257.85094 866.03852 287.99176 881.14495 319.45312 892.64844 C 350.04139 903.87603 381.83869 911.90249 414.16406 916.08789 C 426.27835 917.59709 438.4432 918.68938 450.61719 919.58008 C 454.77528 919.88668 458.94378 920.03187 463.10938 920.13477 C 464.99987 920.40077 466.48055 921.71605 468.09375 922.62695 C 474.87434 926.96855 481.37187 931.77219 488.44336 935.64648 C 491.42456 937.57998 495.49673 937.36585 498.39453 935.37695 C 501.76183 933.07116 504.12398 929.0006 503.61328 924.8457 C 503.36118 922.74481 502.32029 920.7998 500.90039 919.25391 C 516.18148 918.11081 531.45379 916.65079 546.58008 914.1543 C 595.62663 906.2172 643.31562 890.00889 687.05078 866.4375 C 747.40372 833.96287 800.16915 787.5105 840.07031 731.79102 C 871.96788 687.27719 895.4269 636.77886 909.11719 583.76562 C 913.71108 566.11252 917.15333 548.16247 919.45703 530.06836 C 921.42693 514.92419 922.90357 499.69983 923.32227 484.42773 C 923.40127 480.40115 923.38095 476.37282 923.37695 472.3457 C 928.75105 464.41052 934.37503 456.63656 939.41992 448.48438 C 941.10832 445.60441 942.17329 442.03589 940.99609 438.76953 C 939.97679 435.79159 937.3628 433.68923 934.6875 432.30469 C 932.2707 430.99843 929.11807 430.42428 926.66797 431.95898 C 924.70467 433.05062 923.27415 434.84368 921.96875 436.62695 C 920.59615 419.93452 918.54068 403.28661 915.36328 386.83594 C 910.44379 361.25974 903.32665 336.10398 894.10156 311.74805 C 878.95508 271.81755 858.03096 234.09387 832.24219 200.05664 C 801.46512 159.40683 763.77631 123.99162 721.21875 95.902344 C 693.29138 77.440572 663.26485 62.154025 631.89258 50.466797 C 600.71281 38.805819 568.24954 30.48621 535.23438 26.146484 C 522.70539 24.575736 510.12474 23.433642 497.53125 22.533203 C 493.52065 22.251483 489.50107 22.116319 485.48438 22.011719 C 483.52908 21.673599 482.00288 20.269657 480.33398 19.298828 C 473.97039 15.109682 467.86519 10.48846 461.125 6.9023438 C 459.9281 6.3436343 458.60675 6.0230182 457.28125 6.0800781 z M 486.16406 43.400391 C 488.33656 43.525391 490.50904 43.650391 492.68164 43.775391 C 498.64673 44.10117 504.63912 44.479203 510.53711 44.976562 C 522.7463 45.957942 534.84475 47.531455 546.93164 49.595703 C 560.05893 51.842431 573.16547 54.729625 586.03516 58.207031 C 590.31345 59.36449 594.71111 60.628028 599.00391 61.935547 C 604.8405 63.716615 610.82352 65.676003 616.57422 67.712891 C 628.11551 71.783047 639.41508 76.330367 650.57227 81.388672 C 671.12955 90.696023 691.05093 101.71895 709.91211 114.20117 C 716.798 118.75312 723.67114 123.59403 730.27344 128.5332 C 738.79903 134.91267 747.1343 141.64629 755.12109 148.60938 C 758.18069 151.27149 761.27599 154.04799 764.21289 156.75 C 783.68877 174.7217 801.52525 194.4688 817.42773 215.66797 C 824.78263 225.47663 831.80085 235.70713 838.30664 246.16016 C 844.76263 256.50147 850.82199 267.29208 856.33398 278.17383 C 865.66618 296.57512 873.68292 315.80302 880.22852 335.42773 C 881.54081 339.36619 882.79095 343.32265 884.00195 347.33984 C 886.98025 357.25032 889.63563 367.38997 891.89062 377.55273 C 895.00512 391.5869 897.45614 405.80323 899.11914 420.14844 C 899.80804 426.23195 900.29101 432.20796 900.75781 438.30469 C 898.99191 436.35685 897.2482 434.35913 895.25 432.64844 C 892.4488 430.57814 888.3831 430.57796 885.5332 432.55859 C 882.35581 434.51646 879.80716 437.81888 879.38086 441.59375 C 879.16366 444.09066 880.27334 446.51223 881.89844 448.35352 C 885.97223 453.7833 890.46691 458.87716 894.81641 464.08398 C 897.3744 467.10083 899.9363 470.11041 902.5 473.12305 C 901.906 483.72758 901.41984 494.40773 900.61914 504.9375 C 899.97054 513.09031 899.15409 521.22814 898.08789 529.38086 C 896.99899 537.5163 895.65333 545.77351 894.05273 553.84961 C 888.30524 582.803 879.5476 611.15754 867.97461 638.3125 C 866.38491 642.03983 864.67726 645.89414 862.97656 649.58008 C 858.68857 658.89575 854.0667 668.05416 849.09961 677.06641 C 835.09432 702.50191 818.40033 726.60308 799.50195 748.71875 C 780.95367 770.44656 760.12959 790.39804 737.63281 808.0918 C 716.58333 824.66521 693.9517 839.29434 670.07812 851.61328 C 664.61503 854.4339 659.09621 857.13272 653.47852 859.72461 C 647.85632 862.3266 642.20259 864.78028 636.4375 867.13672 C 625.06061 871.79725 613.34472 875.98483 601.54883 879.64453 C 579.94985 886.34087 557.67491 891.32049 535.23633 894.55469 C 527.20184 895.73629 519.07361 896.52658 511.04492 897.14258 C 507.79293 897.40168 504.59755 897.61719 501.34766 897.83789 C 503.39085 895.29819 504.13389 891.7189 502.99219 888.62891 C 501.72309 884.85591 498.34433 881.6425 494.27344 881.3125 C 490.89744 881.0097 487.72619 882.58943 485.02539 884.45703 C 478.4706 888.82843 472.16657 893.57694 465.45508 897.71094 C 464.44618 898.22584 463.42911 899.11028 462.22461 898.83398 C 441.38153 897.62429 420.632 896.02104 400.04492 892.36914 C 389.80663 890.55674 379.71351 888.35045 369.60352 885.78516 C 355.72443 882.24886 341.84387 877.97767 328.39648 873.07031 C 319.14769 869.70137 310.00888 866.01267 301.05469 862.01562 C 268.38052 847.50807 237.55173 828.8655 209.50586 806.69727 C 177.54969 781.46375 149.14639 751.59857 125.44531 718.44727 C 118.06992 708.14356 111.16092 697.50577 104.73633 686.58398 C 102.69613 683.09947 100.63391 679.46243 98.666016 675.87305 C 94.67592 668.60851 90.837634 661.0762 87.273438 653.52344 C 83.728341 646.01621 80.388547 638.36128 77.28125 630.60742 C 74.988052 624.89144 72.869057 619.25057 70.818359 613.4082 C 67.532763 604.05493 64.591335 594.58129 61.960938 585.02344 C 59.81584 577.17069 57.815745 569.03186 56.123047 561.08008 C 54.296449 552.58166 52.715052 543.91473 51.376953 535.27539 C 50.607954 530.24314 49.891531 525.07834 49.332031 519.9707 C 48.050733 507.5835 47.3759 494.88125 46.9375 482.28906 C 46.8085 477.98858 46.697881 473.55201 46.675781 469.19727 C 49.717278 472.20404 54.683629 472.4719 58.390625 470.60156 C 62.105921 468.92636 64.890112 464.87523 64.320312 460.71875 C 63.502013 457.04122 61.280023 453.92385 59.578125 450.625 C 55.940029 444.10732 52.104246 437.70301 48.34375 431.25586 C 49.198449 423.74251 50.076723 416.30208 51.169922 408.82617 C 52.056821 402.869 53.104607 396.77969 54.253906 390.80664 C 56.151604 380.93101 58.434246 370.97018 61.027344 361.26367 C 66.840138 339.43803 74.351472 318.17193 83.539062 297.51758 C 91.117155 280.49452 99.894513 263.78384 109.6582 247.87695 C 133.67218 208.68254 164.06493 173.42771 199.18359 143.7793 C 203.89999 139.81533 208.81039 135.82359 213.73828 132.01953 C 223.57047 124.40237 233.8555 117.12386 244.36719 110.36328 C 272.37976 92.352219 302.69597 77.635128 334.24023 66.755859 C 340.75193 64.498562 347.44233 62.388361 353.98242 60.470703 C 356.94692 59.614654 359.91799 58.782562 362.89648 57.976562 C 366.85138 56.922784 370.99924 55.866542 375.05273 54.908203 C 389.04492 51.579746 403.31597 48.949725 417.63086 47.029297 C 420.63506 46.628387 423.63685 46.269149 426.59375 45.974609 C 433.73114 45.29782 440.92778 44.744398 448.04297 44.261719 C 446.88247 46.810706 446.9543 49.865483 448.2832 52.337891 C 449.8268 55.655487 453.05465 58.43712 456.84375 58.5 C 460.58535 58.69238 463.88943 56.6285 467.01953 54.857422 C 473.45852 51.134676 479.77897 47.213687 486.16406 43.400391 z M 290.5 159 C 205.07294 159 210.61484 158.53097 205.42578 166.18359 L 202.5 170.5 L 202.21094 202.84375 L 201.91992 235.18945 L 204.42578 239.46484 C 206.75968 243.44734 210.42991 246.0419 215.5 247.29688 C 216.6 247.56913 251.02504 247.72698 292 247.64648 C 376.42373 247.48059 371.60307 247.94745 376.57422 239.46484 L 379.08008 235.18945 L 378.78906 202.84375 L 378.5 170.5 L 375.57422 166.18359 C 370.38516 158.53097 375.92706 159 290.5 159 z M 607.5 161 C 522.07294 161 527.61484 160.53097 522.42578 168.18359 L 519.5 172.5 L 519.21094 204.84375 L 518.91992 237.18945 L 521.42578 241.46484 C 523.75968 245.44734 527.42991 248.0419 532.5 249.29688 C 533.6 249.56913 568.02504 249.72698 609 249.64648 C 693.42373 249.48059 688.60307 249.94745 693.57422 241.46484 L 696.08008 237.18945 L 695.78906 204.84375 L 695.5 172.5 L 692.57422 168.18359 C 687.38516 160.53097 692.92706 161 607.5 161 z M 482.76953 164 C 482.34671 164 482 166.25 482 169 L 482 174 L 445 174 L 408 174 L 408 184 L 408 194 L 445 194 L 482 194 L 482 199 C 482 201.75 482.34671 204 482.76953 204 C 483.19235 204 488.02065 199.49999 493.5 194 L 503.46289 184 L 493.5 174 C 488.02065 168.50001 483.19235 164 482.76953 164 z M 287.5 179 C 288.69702 179 289 180.48166 289 186.33594 L 289 193.67188 L 284.97266 193.83008 C 281.50141 193.9661 280.81074 193.63329 279.9707 191.42383 C 278.15702 186.65348 281.51605 181.34697 284.99023 183.49414 C 285.56843 183.85149 286 183.02509 286 181.55859 C 286 179.95058 286.55744 179 287.5 179 z M 291.91406 179.55273 C 292.43503 179.23075 293.1253 179.39309 293.44727 179.91406 C 293.76925 180.43503 293.60691 181.1253 293.08594 181.44727 C 292.56497 181.76925 291.8747 181.60691 291.55273 181.08594 C 291.23075 180.56497 291.39309 179.8747 291.91406 179.55273 z M 227 180 L 231.05859 180 C 233.50995 180 234.87325 180.39607 234.5 181 C 234.16008 181.55 232.78394 182 231.44141 182 C 227.81425 182 228.08276 185.72765 231.75 186.2832 L 234.5 186.70117 L 231.75 186.84961 C 229.52329 186.97093 229 187.47572 229 189.5 C 229 191.61111 229.46667 192 232 192 C 233.65 192 235 192.45 235 193 C 235 193.55 233.2 194 231 194 L 227 194 L 227 187 L 227 180 z M 250.98438 181.26367 C 251.3615 181.15503 251.60869 181.32413 251.75391 181.75977 C 251.98144 182.44235 252.80483 183 253.58398 183 C 254.36315 183 255 183.45 255 184 C 255 184.55 254.325 185 253.5 185 C 252.45238 185 252 186.05556 252 188.5 C 252 190.94444 252.45238 192 253.5 192 C 254.325 192 255 192.45 255 193 C 255 194.11717 251.70338 194.37135 250.66602 193.33398 C 250.29935 192.96732 250 190.97851 250 188.91602 C 250 186.81929 249.45367 184.98521 248.75977 184.75391 C 247.8885 184.46348 248.08636 183.76912 249.42773 182.42773 C 250.09843 181.75705 250.60725 181.37232 250.98438 181.26367 z M 338.98438 181.26367 C 339.3615 181.15503 339.60869 181.32413 339.75391 181.75977 C 339.98144 182.44235 340.80483 183 341.58398 183 C 342.36315 183 343 183.45 343 184 C 343 184.55 342.325 185 341.5 185 C 340.45238 185 340 186.05556 340 188.5 C 340 190.94444 340.45238 192 341.5 192 C 342.325 192 343 192.45 343 193 C 343 194.11717 339.70338 194.37135 338.66602 193.33398 C 338.29935 192.96732 338 190.97851 338 188.91602 C 338 186.81929 337.45367 184.98521 336.75977 184.75391 C 335.8885 184.46348 336.08636 183.76912 337.42773 182.42773 C 338.09843 181.75705 338.60725 181.37232 338.98438 181.26367 z M 604.5 182 C 605.69702 182 606 183.48166 606 189.33594 L 606 196.67188 L 601.97266 196.83008 C 598.50141 196.9661 597.81074 196.63329 596.9707 194.42383 C 595.15702 189.65348 598.51605 184.34697 601.99023 186.49414 C 602.56843 186.85149 603 186.02509 603 184.55859 C 603 182.95058 603.55744 182 604.5 182 z M 610 182 C 610.55 182 611 182.675 611 183.5 C 611 184.325 610.55 185 610 185 C 609.45 185 609 184.325 609 183.5 C 609 182.675 609.45 182 610 182 z M 318.5 183 C 321.07574 183 323 184.7952 323 187.19922 C 323 188.59767 322.19996 189 319.41602 189 C 314.88701 189 315.24754 191.36101 319.8457 191.81445 C 321.60128 191.98758 322.77884 192.55008 322.46094 193.06445 C 321.63376 194.40285 316.61958 194.22114 315.19922 192.80078 C 314.53922 192.14078 314 190.205 314 188.5 C 314 184.8881 315.54481 183 318.5 183 z M 544 183 L 548 183 C 550.2 183 552 183.45 552 184 C 552 184.55 550.6161 185 548.92578 185 C 546.5384 185 545.92841 185.39059 546.1875 186.75 C 546.37095 187.7125 547.64038 188.68088 549.00977 188.90234 L 551.5 189.30469 L 549 189.94336 C 547.4425 190.34105 546.37877 191.41481 546.17969 192.79102 C 545.90942 194.65932 546.33356 195 548.92969 195 C 550.61794 195 552 195.45 552 196 C 552 196.55 550.2 197 548 197 L 544 197 L 544 190 L 544 183 z M 261.84766 183.04102 C 263.36579 183.28775 264.74626 184.5538 265.43164 186.75 C 266.0716 188.80068 265.81169 189 262.48438 189 C 258.19786 189 258.06775 191.31231 262.32617 191.81641 C 263.79625 191.99044 265 192.55294 265 193.06641 C 265 194.16814 259.99497 194.29514 258.38477 193.23438 C 256.23948 191.8211 255.77414 187.99275 257.43945 185.45117 C 258.67401 183.567 260.32952 182.79428 261.84766 183.04102 z M 349.31055 183.07227 C 350.4085 182.9322 351.54255 183.20493 352.55469 184.04492 C 354.30494 185.4975 354.46385 191.13771 352.80078 192.80078 C 350.57334 195.02822 346.06878 194.24493 344.77539 191.40625 C 343.05836 187.6378 346.01669 183.49247 349.31055 183.07227 z M 271.48242 183.19336 C 275.54566 183.0406 277 184.94929 277 190.43359 C 277 195.30762 275.38904 194.94455 274.71484 189.91797 C 274.41366 187.67255 273.91537 185.58334 273.60742 185.27539 C 272.34051 184.00849 270 187.47856 270 190.62305 C 270 192.48071 269.55 194 269 194 C 268.45 194 268 191.59799 268 188.66211 L 268 183.32422 L 271.48242 183.19336 z M 243.08398 183.33984 C 245.48693 183.61938 246 185.09759 246 189.06836 C 246 195.10043 244.23346 195.64919 243.80664 189.75 C 243.59143 186.77555 243.0498 185.5 242 185.5 C 240.9502 185.5 240.40857 186.77555 240.19336 189.75 C 239.97867 192.71735 239.43426 194 238.39062 194 C 237.21803 194 236.96015 192.88501 237.19727 188.82812 C 237.47144 184.13726 237.7323 183.63451 240 183.41211 C 241.27191 183.28737 242.283 183.24666 243.08398 183.33984 z M 331.08398 183.33984 C 333.48693 183.61938 334 185.09759 334 189.06836 C 334 195.10043 332.23346 195.64919 331.80664 189.75 C 331.59143 186.77555 331.0498 185.5 330 185.5 C 328.9502 185.5 328.40857 186.77555 328.19336 189.75 C 327.97867 192.71735 327.43426 194 326.39062 194 C 325.21803 194 324.96015 192.88501 325.19727 188.82812 C 325.47144 184.13726 325.7323 183.63451 328 183.41211 C 329.27191 183.28737 330.283 183.24666 331.08398 183.33984 z M 310.5 183.5 L 310.80273 188.75 C 310.97646 191.76747 310.68111 194 310.10938 194 C 309.56226 194 308.97576 192.0875 308.80664 189.75 C 308.59143 186.77555 308.0498 185.5 307 185.5 C 305.9502 185.5 305.40857 186.77555 305.19336 189.75 C 305.02424 192.0875 304.48675 194 304 194 C 303.51325 194 302.97576 192.0875 302.80664 189.75 C 302.59143 186.77555 302.0498 185.5 301 185.5 C 299.9502 185.5 299.40857 186.77555 299.19336 189.75 C 298.97867 192.71735 298.43426 194 297.39062 194 C 296.21663 194 295.95987 192.88083 296.19727 188.78125 L 296.5 183.56055 L 303.5 183.53125 L 310.5 183.5 z M 292.49219 183.88281 C 293.04538 183.93312 293.60129 185.64534 293.80273 188.98633 C 294.04753 193.04648 293.79951 194 292.5 194 C 291.19274 194 290.951 193.02758 291.19727 188.75 C 291.38757 185.44464 291.93899 183.8325 292.49219 183.88281 z M 656.26367 183.91602 C 656.92213 184.04705 657.77253 184.62995 658.8125 185.66992 C 660.0267 186.88412 660.14277 187.45306 659.24023 187.75391 C 657.77011 188.24395 657.54617 195 659 195 C 659.55 195 660 195.45 660 196 C 660 198.10338 656.03478 196.98196 655.58008 194.75 C 654.04028 187.19173 654.28829 183.52292 656.26367 183.91602 z M 567.98438 184.26367 C 568.3615 184.15503 568.60869 184.32413 568.75391 184.75977 C 568.98144 185.44235 569.80483 186 570.58398 186 C 571.36315 186 572 186.45 572 187 C 572 187.55 571.325 188 570.5 188 C 569.45238 188 569 189.05556 569 191.5 C 569 193.94444 569.45238 195 570.5 195 C 571.325 195 572 195.45 572 196 C 572 197.11717 568.70338 197.37135 567.66602 196.33398 C 567.29935 195.96732 567 193.97851 567 191.91602 C 567 189.81929 566.45367 187.98521 565.75977 187.75391 C 564.8885 187.46348 565.08636 186.76912 566.42773 185.42773 C 567.09843 184.75705 567.60725 184.37232 567.98438 184.26367 z M 318.5 185 C 317.73992 185 316.83992 185.45 316.5 186 C 316.14809 186.5694 317.00929 187 318.5 187 C 319.99071 187 320.85191 186.5694 320.5 186 C 320.16008 185.45 319.26008 185 318.5 185 z M 261 185.09961 C 260.63333 185.09961 260.26745 185.33412 259.80078 185.80078 C 258.86745 186.73411 259.13333 187 261 187 C 262.86667 187 263.13255 186.73411 262.19922 185.80078 C 261.73255 185.33412 261.36667 185.09961 261 185.09961 z M 284.01367 185.5 C 282.36922 185.5 281.50739 188.27278 282.41602 190.64062 C 283.366 193.11624 285.5 191.57696 285.5 188.41602 C 285.5 186.50204 284.98901 185.5 284.01367 185.5 z M 349.51367 185.5 C 347.43437 185.5 346.40615 188.01132 347.41211 190.63281 C 348.45707 193.35594 351.5 191.75806 351.5 188.48633 C 351.5 186.17356 351.05198 185.5 349.51367 185.5 z M 578.5 186 C 581.07574 186 583 187.7952 583 190.19922 C 583 191.59767 582.19996 192 579.41602 192 C 574.88701 192 575.24754 194.36098 579.8457 194.81445 C 581.60128 194.98758 582.77884 195.55008 582.46094 196.06445 C 581.63376 197.40285 576.61958 197.22114 575.19922 195.80078 C 574.53922 195.14078 574 193.205 574 191.5 C 574 187.8881 575.54481 186 578.5 186 z M 610 186 C 610.55 186 611 188.475 611 191.5 C 611 194.525 610.55 197 610 197 C 609.45 197 609 194.525 609 191.5 C 609 188.475 609.45 186 610 186 z M 667.36328 186 C 671.40054 186 673.47437 192.38111 670.42773 195.42773 C 668.56269 197.29278 664.88197 197.48353 663.19922 195.80078 C 662.53922 195.14078 662 193.13159 662 191.33594 C 662 188.05366 664.06399 186 667.36328 186 z M 636.84766 186.04102 C 638.36579 186.28775 639.74626 187.5538 640.43164 189.75 C 641.0716 191.80068 640.81169 192 637.48438 192 C 633.19786 192 633.06775 194.31229 637.32617 194.81641 C 638.79625 194.99044 640 195.55294 640 196.06641 C 640 197.16814 634.99497 197.29514 633.38477 196.23438 C 631.23948 194.8211 630.77414 190.99275 632.43945 188.45117 C 633.67401 186.567 635.32952 185.79428 636.84766 186.04102 z M 558.48242 186.19336 C 562.54566 186.0406 564 187.94929 564 193.43359 C 564 198.30762 562.38904 197.94455 561.71484 192.91797 C 561.41366 190.67255 560.91537 188.58334 560.60742 188.27539 C 559.34051 187.00849 557 190.47856 557 193.62305 C 557 195.48071 556.55 197 556 197 C 555.45 197 555 194.59799 555 191.66211 L 555 186.32422 L 558.48242 186.19336 z M 646.48242 186.19336 C 650.54566 186.0406 652 187.94929 652 193.43359 C 652 198.30762 650.38904 197.94455 649.71484 192.91797 C 649.41366 190.67255 648.91537 188.58334 648.60742 188.27539 C 647.34051 187.00849 645 190.47856 645 193.62305 C 645 195.48071 644.55 197 644 197 C 643.45 197 643 194.59799 643 191.66211 L 643 186.32422 L 646.48242 186.19336 z M 620.52344 186.27539 C 627.88418 186.21597 629 187.15691 629 193.43359 C 629 198.30762 627.38904 197.94455 626.71484 192.91797 C 626.41366 190.67255 625.91537 188.58334 625.60742 188.27539 C 624.34051 187.00849 622 190.47856 622 193.62305 C 622 195.48071 621.55 197 621 197 C 620.45 197 620 195.27434 620 193.16602 C 620 191.05768 619.70369 189.03768 619.3418 188.67578 C 618.01709 187.35107 616 190.3374 616 193.62305 C 616 195.48071 615.55 197 615 197 C 614.45 197 614 194.59886 614 191.66406 L 614 186.32812 L 620.52344 186.27539 z M 591.08398 186.33984 C 593.48693 186.61938 594 188.09759 594 192.06836 C 594 198.10043 592.23346 198.64919 591.80664 192.75 C 591.59143 189.77555 591.0498 188.5 590 188.5 C 588.9502 188.5 588.40857 189.77555 588.19336 192.75 C 587.97867 195.71735 587.43426 197 586.39062 197 C 585.21803 197 584.96015 195.88501 585.19727 191.82812 C 585.47144 187.13726 585.7323 186.63451 588 186.41211 C 589.27191 186.28737 590.283 186.24666 591.08398 186.33984 z M 578.5 188 C 577.73992 188 576.83992 188.45 576.5 189 C 576.14809 189.5694 577.00929 190 578.5 190 C 579.99071 190 580.85191 189.5694 580.5 189 C 580.16008 188.45 579.26008 188 578.5 188 z M 636 188.09961 C 635.63333 188.09961 635.26745 188.33412 634.80078 188.80078 C 633.86745 189.73411 634.13333 190 636 190 C 637.86667 190 638.13255 189.73411 637.19922 188.80078 C 636.73255 188.33412 636.36667 188.09961 636 188.09961 z M 666.78516 188.19727 C 664.91954 187.83799 663.27441 192.015 664.5 193.99805 C 664.87806 194.60977 665.93253 194.96651 666.84375 194.79102 C 669.17172 194.3427 669.12095 188.64711 666.78516 188.19727 z M 601.01367 188.5 C 599.36922 188.5 598.50739 191.27278 599.41602 193.64062 C 600.366 196.11624 602.5 194.57696 602.5 191.41602 C 602.5 189.50204 601.98901 188.5 601.01367 188.5 z M 727.90234 193.17969 C 721.28386 192.84852 714.66518 193.77558 708.26758 196.11133 L 702.03516 198.38672 L 706.10742 205.94336 C 708.3471 210.09962 710.2874 213.61216 710.41992 213.74805 C 710.55244 213.88395 712.80462 213.26355 715.42383 212.37109 C 718.79496 211.2227 722.32191 210.88657 727.49805 211.21875 C 749.45099 212.62761 772.10652 234.85471 779.12305 261.86523 C 781.46521 270.88158 781.89698 284.31063 780.08203 291.75 C 778.67753 297.50694 777.84447 298.15957 776.25781 294.75 C 774.96227 291.96603 775.15929 291.48329 770.16797 309.75 L 766.27344 324 L 778.63672 324 C 785.43637 324 791 323.75348 791 323.45117 C 791 323.14886 790.31275 321.57181 789.47266 319.94727 C 788.05739 317.21045 788.09191 316.791 789.95508 314.24609 C 792.84349 310.30081 796.60799 300.51136 798.03906 293.2207 C 799.79334 284.28342 798.74592 265.51595 795.96484 256.06055 C 785.26178 219.67116 756.58244 194.61473 727.90234 193.17969 z M 422.23047 203 C 421.80765 203 416.9804 207.49897 411.50195 212.99805 L 401.54102 222.99609 L 409.85156 231.35156 L 418.16211 239.70508 L 411.61914 252.76172 C 406.73595 262.50665 405.3847 266.05705 406.28906 266.75586 C 408.2664 268.28377 439.75273 287 440.3457 287 C 440.64528 287 439.79005 284.51138 438.44531 281.4707 C 437.10058 278.43002 436 275.69047 436 275.38281 C 436 274.51316 443.78486 276.03914 450.46094 278.2168 C 494.12291 292.45887 544.1622 347.76891 580.92383 422.42188 C 597.71996 456.5303 610.57163 501.20499 616.61914 546.5 C 619.21449 565.93873 619.00714 600.66103 616.20312 616 C 610.90485 644.98349 600.05546 664.67077 583.88086 674.6543 C 580.64629 676.65078 578 678.34588 578 678.42188 C 578 678.4979 579.61218 682.37295 581.58203 687.03125 C 583.55189 691.68955 585.77917 696.9625 586.53125 698.75 C 587.28333 700.5375 588.30017 702 588.79297 702 C 590.82542 702 601.81522 693.97634 606.03906 689.4082 C 640.49946 652.13896 637.14443 556.37829 597.92773 457.86328 C 577.07671 405.48407 560.47392 372.55757 539.25195 341.5 C 503.53151 289.22445 463.29991 255.91178 429.38086 250.52344 C 424.31239 249.71827 423 247.33861 423 238.95312 L 423 233 L 460 233 L 497 233 L 497 223 L 497 213 L 460 213 L 423 213 L 423 208 C 423 205.25 422.65329 203 422.23047 203 z M 309.49609 205.55078 C 309.84377 205.45756 310.14636 205.47839 310.33398 205.66602 C 310.69111 206.02314 310.48171 206.9201 309.86914 207.6582 C 308.60688 209.17913 307 209.43963 307 208.12305 C 307 207.14549 308.45306 205.83044 309.49609 205.55078 z M 249 206 C 249.57582 206 250 209.11258 250 213.33789 L 250 220.67578 L 246.66406 220.80078 C 242.51923 220.9566 241 219.51433 241 215.42188 C 241 211.72951 243.13054 209.54021 245.99414 210.28906 C 247.59097 210.70664 248 210.32243 248 208.40625 C 248 207.08274 248.45 206 249 206 z M 326 206 C 326.55 206 327 206.675 327 207.5 C 327 208.325 326.55 209 326 209 C 325.45 209 325 208.325 325 207.5 C 325 206.675 325.45 206 326 206 z M 570.5 209 C 571.69702 209 572 210.48166 572 216.33594 L 572 223.67188 L 567.97266 223.83008 C 564.50141 223.9661 563.81074 223.63329 562.9707 221.42383 C 561.15702 216.65348 564.51605 211.34697 567.99023 213.49414 C 568.56843 213.85149 569 213.02509 569 211.55859 C 569 209.95058 569.55744 209 570.5 209 z M 608 209 C 608.57582 209 609 212.11258 609 216.33789 L 609 223.67578 L 605.66406 223.80078 C 601.51923 223.9566 600 222.51433 600 218.42188 C 600 214.72951 602.13054 212.54021 604.99414 213.28906 C 606.59097 213.70664 607 213.32243 607 211.40625 C 607 210.08274 607.45 209 608 209 z M 630.5 209 C 631.69702 209 632 210.48166 632 216.33594 L 632 223.67188 L 627.97266 223.83008 C 624.50141 223.9661 623.81074 223.63329 622.9707 221.42383 C 621.15702 216.65348 624.51605 211.34697 627.99023 213.49414 C 628.56843 213.85149 629 213.02509 629 211.55859 C 629 209.95058 629.55744 209 630.5 209 z M 258 210 C 262.36169 210 264.62631 216.22917 261.42773 219.42773 C 259.56269 221.29278 255.88197 221.48353 254.19922 219.80078 C 251.21983 216.82139 253.86534 210 258 210 z M 297.57812 210 C 300.84317 210 301.00226 210.15497 300.39062 212.75 C 299.60838 216.06893 299.09262 216.66706 296.5 217.27148 C 294.92224 217.63931 295.18615 217.8979 297.75 218.49414 C 301.15238 219.28538 302.03444 221.56712 299.80078 223.80078 C 298.42744 225.17412 295.10537 225.35338 293.21875 224.15625 C 292.28834 223.56587 292.1076 221.71845 292.56445 217.42188 C 292.91073 214.16528 293.40236 211.1625 293.65625 210.75 C 293.91014 210.3375 295.67511 210 297.57812 210 z M 308 210 C 312.36169 210 314.62631 216.22917 311.42773 219.42773 C 309.56269 221.29278 305.88197 221.48353 304.19922 219.80078 C 301.21983 216.82139 303.86534 210 308 210 z M 326 210 C 326.55 210 327 212.475 327 215.5 C 327 218.525 326.55 221 326 221 C 325.45 221 325 218.525 325 215.5 C 325 212.475 325.45 210 326 210 z M 334.32227 210 C 337.4482 210 339 211.82396 339 215.5 C 339 217.205 338.46078 219.14078 337.80078 219.80078 C 336.46525 221.13631 333.09841 221.36329 331.38477 220.23438 C 327.59766 217.73949 329.8189 210 334.32227 210 z M 286.84766 210.04102 C 288.36579 210.28775 289.74626 211.5538 290.43164 213.75 C 291.0716 215.80068 290.81169 216 287.48438 216 C 283.19786 216 283.06775 218.31229 287.32617 218.81641 C 288.79625 218.99044 290 219.55294 290 220.06641 C 290 221.16814 284.99497 221.29514 283.38477 220.23438 C 281.23948 218.8211 280.77414 214.99275 282.43945 212.45117 C 283.67401 210.567 285.32952 209.79428 286.84766 210.04102 z M 273.48242 210.19336 C 277.54566 210.0406 279 211.94929 279 217.43359 C 279 222.30762 277.38904 221.94455 276.71484 216.91797 C 276.41366 214.67255 275.91537 212.58334 275.60742 212.27539 C 274.34051 211.00849 272 214.47856 272 217.62305 C 272 219.48071 271.55 221 271 221 C 270.45 221 270 218.59799 270 215.66211 L 270 210.32422 L 273.48242 210.19336 z M 320.03516 210.20312 C 321.32249 210.33643 322.46241 210.85914 322.73828 211.69727 C 322.99077 212.46437 322.1205 212.82366 320.31641 212.69727 C 317.81062 212.52172 317.5 212.83025 317.5 215.5 C 317.5 218.16975 317.81062 218.47828 320.31641 218.30273 C 322.11995 218.17638 322.98992 218.53587 322.73828 219.30273 C 322.18986 220.97401 317.74303 221.34459 316.24219 219.84375 C 314.54381 218.14537 314.67418 212.51482 316.44531 211.04492 C 317.31256 210.32517 318.74782 210.06982 320.03516 210.20312 z M 296.5 212 C 294.99377 212 294.44351 214.11148 295.63867 215.30664 C 296.57191 216.23988 298 215.11205 298 213.44141 C 298 212.64887 297.325 212 296.5 212 z M 257.78516 212.19727 C 255.91954 211.83799 254.27441 216.015 255.5 217.99805 C 255.87806 218.60977 256.93253 218.96651 257.84375 218.79102 C 260.17172 218.3427 260.12095 212.64711 257.78516 212.19727 z M 307.78516 212.19727 C 305.91954 211.83799 304.27441 216.015 305.5 217.99805 C 305.87806 218.60977 306.93253 218.96651 307.84375 218.79102 C 310.17172 218.3427 310.12095 212.64711 307.78516 212.19727 z M 245.10352 212.28906 C 244.64013 212.37204 244.1961 212.66457 243.8457 213.2168 C 242.83834 214.8044 242.76438 217.43041 243.70117 218.36719 C 245.15405 219.82008 247.51196 218.38513 247.80469 215.86914 C 248.05952 213.67878 246.49367 212.04012 245.10352 212.28906 z M 286 212.5 C 285.26667 212.5 284.47917 213.0625 284.25 213.75 C 284.00214 214.49359 284.71111 215 286 215 C 287.28889 215 287.99786 214.49359 287.75 213.75 C 287.52083 213.0625 286.73333 212.5 286 212.5 z M 334.51367 212.5 C 332.43437 212.5 331.40615 215.01132 332.41211 217.63281 C 333.45707 220.35594 336.5 218.75806 336.5 215.48633 C 336.5 213.17356 336.05198 212.5 334.51367 212.5 z M 579.32227 213 C 582.4482 213 584 214.82396 584 218.5 C 584 220.205 583.46078 222.14078 582.80078 222.80078 C 581.46525 224.13631 578.09841 224.36329 576.38477 223.23438 C 572.59766 220.73949 574.8189 213 579.32227 213 z M 639 213 C 643.36169 213 645.62631 219.22917 642.42773 222.42773 C 640.56269 224.29278 636.88197 224.48353 635.19922 222.80078 C 632.21983 219.82139 634.86534 213 639 213 z M 590.68359 213.03906 C 591.49086 213.11087 592 213.43791 592 214 C 592 214.55 591.1 215 590 215 C 587.23776 215 587.49482 216.4491 590.5 217.81836 C 593.21149 219.05379 593.69549 220.90607 591.80078 222.80078 C 590.13421 224.46735 586 224.31962 586 222.59375 C 586 221.67968 586.70014 221.37102 588 221.71094 C 589.1 221.9986 590 221.74713 590 221.15234 C 590 220.55754 589.1 219.5887 588 219 C 585.61203 217.722 585.35931 214.46036 587.58203 213.60742 C 588.77117 213.15111 589.87633 212.96726 590.68359 213.03906 z M 650.68359 213.03906 C 651.49086 213.11087 652 213.43791 652 214 C 652 214.55 651.1 215 650 215 C 647.23776 215 647.49482 216.4491 650.5 217.81836 C 653.21149 219.05379 653.69549 220.90607 651.80078 222.80078 C 650.13421 224.46735 646 224.31962 646 222.59375 C 646 221.67968 646.70014 221.37102 648 221.71094 C 649.1 221.9986 650 221.74713 650 221.15234 C 650 220.55754 649.1 219.5887 648 219 C 645.61203 217.722 645.35931 214.46036 647.58203 213.60742 C 648.77117 213.15111 649.87633 212.96726 650.68359 213.03906 z M 615.02148 213.1543 C 618.12027 212.70242 620 215.35931 620 220.19141 C 620 223.85143 619.86861 224 616.62305 224 C 614.7654 224 612.73231 223.38224 612.10547 222.62695 C 610.43525 220.61447 611.849 218 614.60742 218 C 616.14457 218 617 217.42122 617 216.38281 C 617 215.19092 616.33333 214.89402 614.46094 215.25195 C 612.85821 215.55833 612.05685 215.32527 612.28906 214.61914 C 612.49144 214.00375 613.72039 213.34403 615.02148 213.1543 z M 638.78516 215.19727 C 636.91954 214.83799 635.27441 219.015 636.5 220.99805 C 636.87806 221.60977 637.93253 221.96651 638.84375 221.79102 C 641.17172 221.3427 641.12095 215.64711 638.78516 215.19727 z M 604.10352 215.28906 C 603.64013 215.37204 603.1961 215.66457 602.8457 216.2168 C 601.83834 217.8044 601.76438 220.43041 602.70117 221.36719 C 604.15405 222.82008 606.51196 221.38513 606.80469 218.86914 C 607.05952 216.67878 605.49367 215.04012 604.10352 215.28906 z M 567.01367 215.5 C 565.36922 215.5 564.50739 218.27278 565.41602 220.64062 C 566.366 223.11624 568.5 221.57696 568.5 218.41602 C 568.5 216.50204 567.98901 215.5 567.01367 215.5 z M 579.51367 215.5 C 577.43437 215.5 576.40615 218.01132 577.41211 220.63281 C 578.45707 223.35594 581.5 221.75806 581.5 218.48633 C 581.5 216.17356 581.05198 215.5 579.51367 215.5 z M 627.01367 215.5 C 625.36922 215.5 624.50739 218.27278 625.41602 220.64062 C 626.366 223.11624 628.5 221.57696 628.5 218.41602 C 628.5 216.50204 627.98901 215.5 627.01367 215.5 z M 615.8457 219.25781 C 615.23025 219.34573 614.53755 219.88539 614.22852 220.8125 C 614.01081 221.46562 614.54518 222 615.41602 222 C 616.28684 222 617 221.28684 617 220.41602 C 617 219.53305 616.46115 219.16989 615.8457 219.25781 z M 296.69531 220.1582 C 295.33252 220.16702 293.92664 221.07078 294.49609 221.99219 C 295.27769 223.25687 297.69379 223.30331 298.45703 222.06836 C 298.77347 221.55636 298.55406 220.84221 297.96875 220.48047 C 297.59876 220.2518 297.14958 220.15527 296.69531 220.1582 z M 770.5 337 C 685.07294 337 690.61484 336.53097 685.42578 344.18359 L 682.5 348.5 L 682.21094 380.84375 L 681.91992 413.18945 L 684.42578 417.46484 C 686.75968 421.44734 690.42991 424.0419 695.5 425.29688 C 696.6 425.56913 731.02504 425.72698 772 425.64648 C 856.42373 425.48059 851.60307 425.94745 856.57422 417.46484 L 859.08008 413.18945 L 858.78906 380.84375 L 858.5 348.5 L 855.57422 344.18359 C 850.38516 336.53097 855.92706 337 770.5 337 z M 806.78906 357.5 C 809.14988 357.5 809.97082 357.91423 809.76172 359 C 809.57537 359.96768 808.31498 360.5 806.21094 360.5 C 803.85012 360.5 803.02918 360.08577 803.23828 359 C 803.42463 358.03232 804.68502 357.5 806.78906 357.5 z M 718 358 L 721.25 358.01562 C 725.94008 358.03772 727.19839 359.18689 726.82422 363.10547 C 726.5508 365.96902 726.06942 366.54953 723.75 366.81641 C 721.44686 367.08142 721 367.60952 721 370.06641 C 721 372.00736 720.49245 373 719.5 373 C 718.3 373 718 371.49999 718 365.5 L 718 358 z M 722.75 360.18945 C 721.43925 359.93702 721 360.51766 721 362.5 C 721 364.48234 721.43925 365.06298 722.75 364.81055 C 723.7125 364.62519 724.5 363.58494 724.5 362.5 C 724.5 361.41506 723.7125 360.37481 722.75 360.18945 z M 733 362 C 734.65 362 736 362.45 736 363 C 736 363.55 735.37357 364 734.60742 364 C 732.924 364 732 366.15482 732 370.08203 C 732 371.68704 731.55 373 731 373 C 730.45 373 730 370.525 730 367.5 C 730 362.05561 730.0303 362 733 362 z M 741.77539 362 C 745.01407 362 747 363.59575 747 366.19922 C 747 367.59767 746.19996 368 743.41602 368 C 738.88701 368 739.24754 370.36101 743.8457 370.81445 C 745.60128 370.98758 746.77884 371.55008 746.46094 372.06445 C 745.77733 373.17056 740.98067 373.28572 739.38477 372.23438 C 737.55765 371.0307 736.88008 367.44487 737.94922 364.63281 C 738.70407 362.64741 739.64465 362 741.77539 362 z M 750 362 L 754.02148 362 C 757.29692 362 758.24525 362.44579 759.13672 364.40234 C 760.93902 368.35797 759.01951 372.43271 755.17383 372.8125 C 752.80998 373.04595 752 373.61972 752 375.0625 C 752 376.12765 751.55 377 751 377 C 750.42222 377 750 373.83333 750 369.5 L 750 362 z M 777 362 C 780.38764 362 781.0404 363.49398 778 364.28906 C 776.41089 364.70462 776 365.65363 776 368.90625 C 776 371.15774 775.55 373 775 373 C 774.45 373 774 370.525 774 367.5 C 774 362.05561 774.0303 362 777 362 z M 785.51367 362 C 788.58371 362 788.97018 362.32631 789.54688 365.40039 C 789.89767 367.27046 790.02696 369.63296 789.83398 370.65039 C 789.58567 371.95951 788.4514 372.58628 785.95508 372.79688 C 781.98696 373.13164 781 372.52383 781 369.74609 C 781 368.53084 782.10137 367.41001 784 366.69336 C 787.86311 365.2352 787.83644 364 783.94141 364 C 782.15671 364 781.13942 363.58342 781.5 363 C 781.83992 362.45 783.64606 362 785.51367 362 z M 806.51367 362 C 809.58371 362 809.97018 362.32631 810.54688 365.40039 C 810.89767 367.27046 811.02696 369.63296 810.83398 370.65039 C 810.58567 371.95951 809.4514 372.58628 806.95508 372.79688 C 802.98696 373.13164 802 372.52383 802 369.74609 C 802 368.53084 803.10137 367.41001 805 366.69336 C 808.86311 365.2352 808.83644 364 804.94141 364 C 803.15671 364 802.13942 363.58342 802.5 363 C 802.83992 362.45 804.64606 362 806.51367 362 z M 818.43945 362 C 820.86602 362 822.24499 362.58855 822.96484 363.93359 C 824.44994 366.70852 824.24114 369.61433 822.42773 371.42773 C 820.77721 373.07826 817.27507 373.47967 815.38477 372.23438 C 813.55765 371.0307 812.88008 367.44487 813.94922 364.63281 C 814.76617 362.48407 815.59069 362 818.43945 362 z M 797.22461 362.01562 C 798.71629 362.05101 800 362.5083 800 363.36133 C 800 364.25956 799.18182 364.56651 797.59766 364.26367 C 795.84747 363.92911 795.0288 364.33562 794.57617 365.76172 C 793.54031 369.02544 794.94645 371.22941 797.63477 370.55469 C 800.43812 369.85109 800.43357 369.8249 798.42773 373.8457 C 796.95729 376.79328 794 378.2322 794 376 C 794 375.45 794.52796 375 795.17383 375 C 795.81971 375 795.36971 373.9585 794.17383 372.68555 C 791.7953 370.15372 791.27808 365.12036 793.19922 363.19922 C 794.03247 362.36596 795.73292 361.98024 797.22461 362.01562 z M 765.75 362.18945 L 769.5 362.5 L 769.79688 367.58594 L 770.09375 372.67188 L 766.64062 372.80273 C 760.53703 373.03218 759.22957 367.50408 765.10938 366.32812 C 766.68099 366.01381 767.69773 365.31803 767.36719 364.7832 C 767.03665 364.24838 765.69334 364.01705 764.38281 364.26758 C 762.77619 364.5747 762 364.25938 762 363.30078 C 762 362.26945 763.0296 361.9643 765.75 362.18945 z M 742.55859 364 C 741.76605 364 740.83992 364.45 740.5 365 C 740.16008 365.55 740.80895 366 741.94141 366 C 743.07387 366 744 365.55 744 365 C 744 364.45 743.35113 364 742.55859 364 z M 754.51367 364.5 C 752.15643 364.5 751.31307 367.46704 753.06836 369.58203 C 754.88224 371.76762 756.5 370.74551 756.5 367.41602 C 756.5 365.17272 756.04139 364.5 754.51367 364.5 z M 818.51367 364.5 C 816.43437 364.5 815.40615 367.01132 816.41211 369.63281 C 817.45707 372.35594 820.5 370.75806 820.5 367.48633 C 820.5 365.17356 820.05198 364.5 818.51367 364.5 z M 766.44727 368.1543 C 765.46701 368.34432 764.46322 369.10568 764.2168 369.8457 C 763.93022 370.70633 764.41272 371.0667 765.55273 370.8457 C 766.53299 370.65568 767.53678 369.89432 767.7832 369.1543 C 768.06978 368.29367 767.58728 367.9333 766.44727 368.1543 z M 786.57422 368.31836 C 786.18316 368.02165 785.43779 368.00178 784.48047 368.36914 C 783.59689 368.7082 783.15378 369.4383 783.49609 369.99219 C 784.30667 371.3037 785.71064 371.27717 786.54102 369.93359 C 787.00119 369.18901 786.96527 368.61507 786.57422 368.31836 z M 807.57422 368.31836 C 807.18316 368.02165 806.43779 368.00178 805.48047 368.36914 C 804.59689 368.7082 804.15378 369.4383 804.49609 369.99219 C 805.30667 371.3037 806.71064 371.27717 807.54102 369.93359 C 808.00119 369.18901 807.96527 368.61507 807.57422 368.31836 z M 462.52148 371 C 444.06698 371 429.76153 376.11015 423.5 384.9375 L 420.5 389.16602 L 420.17969 410.58398 L 419.85742 432 L 423.17969 432.08398 C 428.36648 432.21413 430.06826 432.63318 436.62891 435.39844 C 439.99971 436.81921 445.17472 438.41578 448.12891 438.94531 C 451.08308 439.4748 459.12501 439.73043 466 439.51367 C 478.63735 439.11525 484.91012 437.70766 493.08789 433.4375 C 495.17093 432.3498 498.17726 431.753 500.80469 431.90625 L 505.10938 432.1582 L 504.80469 410.16992 L 504.5 388.17969 L 501.40234 384.33984 C 494.2671 375.49338 481.16941 371 462.52148 371 z M 463 379.05273 C 479.12828 379.08644 491.80047 383.46144 495.49219 390.26953 C 497.4824 393.93876 497.48235 393.94875 495.49414 397.64062 C 493.04614 402.18629 484.64896 406.4105 475 407.94922 C 457.23056 410.78291 436.90177 406.77526 431.00391 399.27734 C 422.94711 389.03478 438.81961 379.00223 463 379.05273 z M 732 385 C 732.58159 385 733 388.27856 733 392.83594 L 733 400.67188 L 729.05273 400.82617 C 724.56085 401.00218 723.80078 400.23074 723.80078 395.5 C 723.80078 390.99584 724.57072 390 728.05859 390 C 730.52897 390 731 389.59996 731 387.5 C 731 386.125 731.45 385 732 385 z M 771 385 C 771.58159 385 772 388.27856 772 392.83594 L 772 400.67188 L 768.05273 400.82617 C 763.56085 401.00218 762.80078 400.23074 762.80078 395.5 C 762.80078 390.99584 763.57072 390 767.05859 390 C 769.52897 390 770 389.59996 770 387.5 C 770 386.125 770.45 385 771 385 z M 794.5 385 C 795.70492 385 796 386.53156 796 392.78711 L 796 400.57422 L 792.14062 400.72852 C 787.50559 400.91335 786 399.63119 786 395.5 C 786 391.81592 787.551 390 790.69922 390 C 792.48589 390 793 389.44203 793 387.5 C 793 385.94444 793.56667 385 794.5 385 z M 814 390 C 815.65 390 817 390.46886 817 391.04297 C 817 391.61708 816.25895 391.95458 815.35352 391.79297 C 812.65632 391.31155 812.74699 393.56385 815.47461 394.80664 C 818.20977 396.05286 818.70062 397.90094 816.80078 399.80078 C 815.50727 401.09429 811.75255 401.42053 810.66602 400.33398 C 809.29695 398.96492 810.07825 398.29291 812.5 398.75586 C 815.50411 399.33013 815.83316 397.51626 813 396 C 811.83045 395.37408 811 393.9062 811 392.46484 C 811 390.39283 811.47809 390 814 390 z M 741.27148 390.01562 C 745.1427 389.99424 747.03749 394.05725 744.92188 397.84375 C 743.35445 400.64911 739.58052 401.71905 737.05078 400.07617 C 736.22278 399.53844 735.59961 397.57557 735.59961 395.5 C 735.59961 391.45872 737.06859 390.03882 741.27148 390.01562 z M 804.27148 390.01562 C 808.1427 389.99424 810.03749 394.05725 807.92188 397.84375 C 806.35445 400.64911 802.58052 401.71905 800.05078 400.07617 C 799.22278 399.53844 798.59961 397.57557 798.59961 395.5 C 798.59961 391.45872 800.06859 390.03882 804.27148 390.01562 z M 779.62891 390.17188 C 782.33924 390.4816 782.51747 390.79521 782.80273 395.75 L 783.10547 401 L 779.71875 401 C 775.83128 401 775 400.42636 775 397.74609 C 775 396.53084 776.10137 395.41001 778 394.69336 C 781.91233 393.21662 781.82275 392 777.80078 392 C 775.51276 392 774.90683 391.69278 775.67773 390.92188 C 776.27073 390.32888 778.04941 389.99138 779.62891 390.17188 z M 751.75 390.1875 C 753.57556 390.01149 755 390.3402 755 390.9375 C 755 391.52235 753.7625 392.00286 752.25 392.00586 L 749.5 392.00977 L 752.36328 394.30078 C 754.18501 395.75855 755.08952 397.30126 754.85352 398.54492 C 754.39518 400.96021 748 402.03914 748 399.70117 C 748 398.72069 748.77955 398.42697 750.5 398.75586 C 753.82024 399.39056 753.76568 397.24099 750.42969 395.97266 C 746.53014 394.49005 747.41719 390.60526 751.75 390.1875 z M 790.875 392.21484 C 788.94508 391.84318 787.70872 394.50724 788.5625 397.19727 C 788.90995 398.29196 789.88489 398.97612 790.83594 398.79297 C 793.10339 398.3563 793.13709 392.65048 790.875 392.21484 z M 728.5 392.5 C 726.45804 392.5 725.40779 395.01262 726.38477 397.55859 C 727.09081 399.3985 728.42854 399.39526 729.96094 397.54883 C 731.6871 395.46894 730.82776 392.5 728.5 392.5 z M 740.51367 392.5 C 738.43437 392.5 737.40615 395.01132 738.41211 397.63281 C 739.45707 400.35594 742.5 398.75806 742.5 395.48633 C 742.5 393.17356 742.05198 392.5 740.51367 392.5 z M 767.5 392.5 C 765.45804 392.5 764.40779 395.01262 765.38477 397.55859 C 766.09081 399.3985 767.42854 399.39526 768.96094 397.54883 C 770.6871 395.46894 769.82776 392.5 767.5 392.5 z M 803.51367 392.5 C 801.43437 392.5 800.40615 395.01132 801.41211 397.63281 C 802.45707 400.35594 805.5 398.75806 805.5 395.48633 C 805.5 393.17356 805.05198 392.5 803.51367 392.5 z M 780.57422 396.31836 C 780.18316 396.02165 779.43779 396.00178 778.48047 396.36914 C 777.59689 396.7082 777.15378 397.4383 777.49609 397.99219 C 778.30667 399.3037 779.71064 399.27717 780.54102 397.93359 C 781.00119 397.18901 780.96527 396.61507 780.57422 396.31836 z M 496.58203 409 C 496.81184 409 497 411.21603 497 413.92383 C 497 422.56968 490.41525 427.8684 476.32422 430.56445 C 462.72953 433.16554 447.27765 431.7338 437.41016 426.95703 C 431.00183 423.85481 429 420.83722 429 414.28125 C 429 411.28459 429.3375 409.00539 429.75 409.2168 C 440.19581 414.57027 450.57295 417 463 417 C 473.13218 417 484.71204 414.75125 491.0957 411.54492 C 493.88303 410.14492 496.35222 409 496.58203 409 z M 738 434.53711 L 728 444.5 C 722.50001 449.97935 718 454.80765 718 455.23047 C 718 455.65329 720.25 456 723 456 L 728 456 L 728 493 L 728 530 L 738 530 L 748 530 L 748 493 L 748 456 L 753 456 C 755.75 456 758 455.65329 758 455.23047 C 758 454.80765 753.49999 449.97935 748 444.5 L 738 434.53711 z M 509.58789 439.75195 C 493.95799 439.73925 478.11345 443.86687 471.29688 451.16797 C 466.18379 456.64448 465.99788 458.27164 466.02148 497.21875 C 466.04157 530.39956 466.20285 533.84191 467.89648 537.5 C 471.53619 545.36139 480.80615 551.00301 494.32617 553.58594 C 507.61444 556.12458 526.97708 554.05462 537.55469 548.96289 C 542.66935 546.50084 547.89569 541.45226 549.64844 537.28125 C 551.32376 533.29452 551.60931 463.733 549.97461 457.84766 C 548.70746 453.28557 542.51871 447.56081 535.49609 444.45508 C 528.26698 441.25802 518.96583 439.75958 509.58789 439.75195 z M 417.48633 439.83398 C 397.93394 439.75329 382.73812 445.21441 377.08984 454.35352 C 375.06195 457.63466 374.99991 458.9105 375.00391 497.11719 C 375.00742 534.12494 375.12206 536.68955 376.91797 539.63477 C 380.86638 546.11003 390.52771 551.37391 402.42773 553.53516 C 424.4497 557.53472 448.19346 551.76759 455.75 540.58398 L 459 535.77344 L 459 497.95117 C 459 473.71441 458.61956 459.1184 457.93945 457.31445 C 453.95837 446.75497 438.13731 439.91918 417.48633 439.83398 z M 783 441 L 783 478 L 783 515 L 778 515 C 775.25 515 773 515.32976 773 515.73242 C 773 516.13508 777.37829 520.86009 782.73047 526.23242 C 788.08264 531.60476 792.68741 536 792.96289 536 C 793.78767 536 813 516.60232 813 515.76953 C 813 515.34671 810.75 515 808 515 L 803 515 L 803 478 L 803 441 L 793 441 L 783 441 z M 507.67188 448.0625 C 513.45567 447.99558 519.34008 448.30338 523.11328 449.01367 C 534.18826 451.09849 542.98429 457.44825 542.99609 463.36719 C 543.00331 466.97475 535.93054 472.6287 528.47852 474.97266 C 514.97335 479.22057 495.12735 478.36018 483.79883 473.03516 C 468.5759 465.87953 473.10866 454.00834 492.83594 449.36523 C 496.20487 448.57231 501.88808 448.12942 507.67188 448.0625 z M 418 448.55859 C 430.7719 448.60973 433.21508 448.89728 438.5 450.96875 C 450.40497 455.63501 454.08311 462.68135 447.75 468.69141 C 443.2718 472.94116 439.68855 474.57092 430.75586 476.41602 C 417.10342 479.236 401.28631 477.71202 391.21289 472.60742 C 381.78487 467.82989 380.21167 461.54215 386.99219 455.73828 C 393.43168 450.22631 400.93222 448.49029 418 448.55859 z M 170.5 452 C 85.072933 452 90.614836 451.53097 85.425781 459.18359 L 82.5 463.5 L 82.210938 495.84375 L 81.919922 528.18945 L 84.425781 532.46484 C 86.759678 536.44734 90.429903 539.0419 95.5 540.29688 C 96.599999 540.56913 131.02504 540.72698 172 540.64648 C 256.42373 540.48059 251.60307 540.94745 256.57422 532.46484 L 259.08008 528.18945 L 258.78906 495.84375 L 258.5 463.5 L 255.57422 459.18359 C 250.38516 451.53097 255.92706 452 170.5 452 z M 474 476.91602 L 478.25 479.38281 C 485.77955 483.75527 494.15359 485.40354 509 485.43164 C 523.53446 485.45916 530.45668 484.07591 538.75 479.49023 L 543 477.14062 L 543 482.72461 C 543 487.93889 542.73469 488.56252 539 492.11523 C 536.31413 494.67024 532.94702 496.55114 528.75 497.8418 C 516.89704 501.48679 496.82932 501.29015 487 497.43359 C 477.50124 493.70675 474 489.27877 474 480.99023 L 474 476.91602 z M 451 477.0293 L 451 482.63281 C 451 487.77971 450.69316 488.54317 447.22852 492.00781 C 444.57962 494.65671 441.52839 496.37211 436.97852 497.77148 C 429.13061 500.18523 414.93106 501.16181 405.73438 499.91992 C 397.75893 498.84294 386.97735 494.23403 384.64648 490.90625 C 382.61372 488.00407 382.28158 477.4691 384.25 478.33594 C 398.94363 484.80666 407.82686 486.53525 422 485.67773 C 431.9551 485.07542 442.25411 482.41664 447.75 479.03125 L 451 477.0293 z M 179 485 C 179.58333 485 180 488.33333 180 493 C 180 497.66667 179.58333 501 179 501 C 178.41667 501 178 497.66667 178 493 C 178 488.33333 178.41667 485 179 485 z M 139 486 L 142.27734 486 C 147.38077 486 150 488.39322 150 493.05664 C 150 495.66661 149.32375 497.67625 148 499 C 146.7619 500.2381 144.66667 501 142.5 501 L 139 501 L 139 493.5 L 139 486 z M 142.8457 488 C 141.27599 488 141 488.82067 141 493.5 C 141 497.97271 141.31278 499 142.67188 499 C 145.04846 499 148 496.04931 148 493.67383 C 148 491.07169 145.20993 488 142.8457 488 z M 156.77539 490 C 160.01407 490 162 491.59575 162 494.19922 C 162 495.59767 161.19996 496 158.41602 496 C 153.88701 496 154.24754 498.36101 158.8457 498.81445 C 160.60128 498.98758 161.77884 499.55008 161.46094 500.06445 C 160.77733 501.17056 155.98067 501.28572 154.38477 500.23438 C 152.55765 499.0307 151.88008 495.44487 152.94922 492.63281 C 153.70407 490.64741 154.64465 490 156.77539 490 z M 187 490 C 190.43879 490 192 491.71733 192 495.5 C 192 497.205 191.46078 499.14078 190.80078 499.80078 C 190.14078 500.46078 188.43 501 187 501 C 183.56121 501 182 499.28267 182 495.5 C 182 491.71733 183.56121 490 187 490 z M 202.53906 490 C 203.59976 490 203.30787 491.73451 201.27539 497.5 C 199.82123 501.625 198.10028 505 197.45312 505 C 196.74508 505 196.46327 504.02786 196.74414 502.55859 C 197.00077 501.21611 196.42325 498.05688 195.46094 495.53711 C 194.49863 493.01734 193.97124 490.69476 194.28906 490.37695 C 195.3542 489.31181 196.83964 490.99517 197.50391 494.01953 C 198.2866 497.58311 199.59127 497.13456 200.50195 492.98828 C 200.86296 491.34459 201.78017 490 202.53906 490 z M 168.96875 490.17188 C 173.57868 489.99125 175.60983 492.43541 174.50586 496.83398 C 173.73541 499.9037 172.39279 500.96298 169.25 500.98438 C 167.67177 500.99511 167 501.59713 167 503 C 167 504.1 166.55 505 166 505 C 165.42421 505 165 501.88811 165 497.66406 L 165 490.32812 L 168.96875 490.17188 z M 157 492 C 155.9 492 155 492.45 155 493 C 155 493.55 155.9 494 157 494 C 158.1 494 159 493.55 159 493 C 159 492.45 158.1 492 157 492 z M 187.04883 492 C 184.90997 492 183.70092 494.48141 184.54492 497.14062 C 185.41543 499.88333 188.83905 499.48577 189.57422 496.55664 C 190.32747 493.55544 189.46648 492 187.04883 492 z M 169.51367 492.5 C 167.15643 492.5 166.31307 495.46704 168.06836 497.58203 C 169.88224 499.76762 171.5 498.74551 171.5 495.41602 C 171.5 493.17272 171.04139 492.5 169.51367 492.5 z M 474 500.16016 L 479.90234 503.10938 C 495.04697 510.67728 521.89958 510.70397 536.98438 503.16602 L 543 500.16016 L 543 505.73438 C 543 510.90099 542.71838 511.57842 539.15234 514.9707 C 534.94148 518.97641 528.13563 521.55388 517.84961 523.04102 C 510.61749 524.08662 505.66686 524.07596 498.5 522.99805 C 481.56585 520.45112 474.00595 514.69051 474.00195 504.33008 L 474 500.16016 z M 451 500.3418 L 451 505.63477 C 451 510.115 450.52902 511.46666 447.93945 514.41602 C 444.3493 518.50497 437.52079 521.30972 427.30859 522.88867 C 418.28702 524.28353 413.52884 524.18774 403.7168 522.41406 C 395.3131 520.89496 389.11653 518.20833 385.36523 514.45703 C 383.44643 512.53822 383 511.0428 383 506.54492 C 383 503.49492 383.17037 501 383.37891 501 C 383.58744 501 386.24556 502.13772 389.28516 503.5293 C 405.03231 510.73858 430.259 510.5813 445.25 503.17969 L 451 500.3418 z M 474 522.9668 L 478.79297 525.39453 C 488.1971 530.15997 494.48862 531.39411 509 531.32031 C 523.31665 531.24753 532.21019 529.43337 539.5918 525.07812 L 543 523.06836 L 543 528.45703 C 543 532.72249 542.48651 534.45549 540.54102 536.76758 C 537.1261 540.82598 527.5563 544.89225 519.86914 545.55078 C 516.36655 545.85084 512.375 546.21778 511 546.36523 C 501.90414 547.34066 486.08263 543.90511 479.34766 539.49219 C 476.20099 537.43041 474 532.29547 474 527.01562 L 474 522.9668 z M 383 523.14062 L 387.25 525.49023 C 395.26209 529.92041 402.48454 531.37385 416.5 531.37305 C 430.66681 531.37224 439.10022 529.73398 446.75 525.49609 L 451 523.14062 L 451 528.72461 C 451 533.91791 450.72556 534.57082 447.08789 538.03125 C 442.56934 542.32965 436.03201 544.84952 427.5 545.58203 C 424.2 545.86535 420.375 546.21778 419 546.36523 C 413.55754 546.94887 400.19284 545.1218 394.75781 543.05078 C 391.59978 541.84741 387.66227 539.50797 386.00781 537.85352 C 383.34897 535.19467 383 534.16729 383 528.99414 L 383 523.14062 z M 770.5 550 C 685.07294 550 690.61484 549.53097 685.42578 557.18359 L 682.5 561.5 L 682.21094 593.84375 L 681.91992 626.18945 L 684.42578 630.46484 C 686.75968 634.44734 690.42991 637.0419 695.5 638.29688 C 696.6 638.56913 731.02504 638.72698 772 638.64648 C 856.42373 638.48059 851.60307 638.94745 856.57422 630.46484 L 859.08008 626.18945 L 858.78906 593.84375 L 858.5 561.5 L 855.57422 557.18359 C 850.38516 549.53097 855.92706 550 770.5 550 z M 208.62305 554.28906 C 208.43014 554.09614 203.48646 560.33069 197.63672 568.14453 L 187 582.35156 L 187.00586 589.42578 C 187.02708 614.90028 199.21065 652.76422 217.69727 684.80469 C 243.11798 728.86311 277.6116 762.58421 307 772.10938 C 314.19559 774.44156 326.53907 774.55384 332.23047 772.33789 C 334.5791 771.42345 336.66554 770.54476 336.86719 770.38672 C 337.06884 770.22868 335.26884 766.70439 332.86719 762.55469 C 329.57657 756.86895 328.13037 755.19317 327 755.75391 C 326.175 756.16316 322.31375 756.49956 318.41992 756.5 C 312.10999 756.50072 310.42468 756.04462 302.91992 752.30664 C 272.79368 737.30133 235.82679 689.9125 215.65625 640.44141 C 206.51415 618.01911 206.60971 618.69697 207.86914 584.57031 C 208.47664 568.10882 208.81596 554.48197 208.62305 554.28906 z M 830.93945 568.99609 C 831.17233 568.90706 831.38201 569.04803 831.63086 569.29688 C 831.97762 569.64362 830.75189 574.21798 828.9082 579.46289 C 827.06451 584.7078 824.99006 589 824.29688 589 C 823.43774 589 824.15297 585.91449 826.54492 579.30664 C 829.3343 571.60088 830.24083 569.26319 830.93945 568.99609 z M 751 570 C 751.58159 570 752 573.27856 752 577.83594 L 752 585.67188 L 747.97266 585.83008 C 744.47064 585.9673 743.81407 585.64221 742.93945 583.3418 C 741.33476 579.12115 743.03137 575.56227 746.82617 575.1875 C 749.43629 574.92973 750 574.4419 750 572.4375 C 750 571.09735 750.45 570 751 570 z M 768 570 C 768.58333 570 769 573.33333 769 578 C 769 582.66667 768.58333 586 768 586 C 767.41667 586 767 582.66667 767 578 C 767 573.33333 767.41667 570 768 570 z M 712.58594 571 C 713.54085 571 715.01331 572.98962 716.28516 576 C 717.447 578.75 718.66781 581 719 581 C 719.3322 581 720.41345 578.75 721.40234 576 C 722.70199 572.38579 723.72652 571 725.09961 571 C 726.79685 571 727 571.79885 727 578.5 C 727 582.83333 726.57778 586 726 586 C 725.45 586 724.9587 583.4125 724.9082 580.25 L 724.81641 574.5 L 722.25391 580.25 C 720.84454 583.4125 719.30198 586 718.82617 586 C 718.35036 586 716.88171 583.6375 715.5625 580.75 L 713.16406 575.5 L 713.08203 580.75 C 713.03697 583.6375 712.55 586 712 586 C 711.42222 586 711 582.83333 711 578.5 C 711 572.3192 711.27888 571 712.58594 571 z M 806 574.97266 L 813.25 575.23633 L 820.5 575.5 L 820.80273 580.75 C 820.98689 583.94866 820.69384 586 820.05273 586 C 819.46977 586 819 583.95941 819 581.42578 C 819 577.61045 818.70995 576.90862 817.25 577.18555 C 815.97344 577.4277 815.41767 578.6639 815.19336 581.75781 C 814.83435 586.70979 813.00687 587.53066 812.98438 582.75 C 812.96498 578.63398 811.65676 576.53362 809.60156 577.32227 C 808.5 577.74498 808 579.19483 808 581.96875 C 808 584.18601 807.55 586 807 586 C 806.45 586 806 583.51858 806 580.48633 L 806 574.97266 z M 735 575 C 738.43879 575 740 576.71733 740 580.5 C 740 582.205 739.46078 584.14078 738.80078 584.80078 C 738.14078 585.46078 736.43 586 735 586 C 731.56121 586 730 584.28267 730 580.5 C 730 576.71733 731.56121 575 735 575 z M 758.77539 575 C 762.01407 575 764 576.59575 764 579.19922 C 764 580.59767 763.19996 581 760.41602 581 C 755.88701 581 756.24754 583.36101 760.8457 583.81445 C 762.60128 583.98758 763.77884 584.55008 763.46094 585.06445 C 762.77733 586.17056 757.98067 586.28572 756.38477 585.23438 C 754.55765 584.0307 753.88008 580.44487 754.94922 577.63281 C 755.70407 575.64741 756.64465 575 758.77539 575 z M 799.23242 575 C 801.25092 575 802.30802 575.64645 802.91406 577.25 C 804.07494 580.3216 803.45321 581 799.47266 581 C 796.76469 581 796.18845 581.32693 796.67383 582.5918 C 797.09526 583.69 798.17209 584.05482 800.14258 583.76562 C 802.06084 583.48408 803 583.78313 803 584.67383 C 803 586.36314 796.86151 586.46307 795.19922 584.80078 C 794.53922 584.14078 794 582.205 794 580.5 C 794 576.64798 795.56796 575 799.23242 575 z M 775.75 575.18945 L 779.5 575.5 L 779.79688 580.58594 L 780.09375 585.67188 L 776.64062 585.80273 C 770.53703 586.03218 769.22957 580.50408 775.10938 579.32812 C 776.68099 579.01381 777.69773 578.31803 777.36719 577.7832 C 777.03665 577.24838 775.69334 577.01705 774.38281 577.26758 C 772.77619 577.5747 772 577.25938 772 576.30078 C 772 575.26945 773.0296 574.9643 775.75 575.18945 z M 787.7832 575.19141 C 792.01914 574.88571 792.06111 574.9137 791.39648 577.69141 C 790.43216 581.72165 790.17674 581.98886 787.19141 582.10352 C 784.86562 582.19285 785.00891 582.34231 788.25 583.20312 C 791.20389 583.98766 792 584.68546 792 586.49219 C 792 587.75371 791.28796 589.05874 790.41797 589.39258 C 787.80427 590.39555 784.30662 590.08039 783.29102 588.75 C 782.76619 588.0625 782.59798 584.8 782.91797 581.5 L 783.5 575.5 L 787.7832 575.19141 z M 735.04883 577 C 732.90997 577 731.70092 579.48141 732.54492 582.14062 C 733.41543 584.88333 736.83905 584.48577 737.57422 581.55664 C 738.32747 578.55544 737.46648 577 735.04883 577 z M 759.55859 577 C 758.76605 577 757.83992 577.45 757.5 578 C 757.16008 578.55 757.80895 579 758.94141 579 C 760.07387 579 761 578.55 761 578 C 761 577.45 760.35113 577 759.55859 577 z M 787.55859 577 C 785.88795 577 784.76012 578.42809 785.69336 579.36133 C 786.88852 580.55649 789 580.00623 789 578.5 C 789 577.675 788.35113 577 787.55859 577 z M 799.05859 577 C 797.99105 577 796.83992 577.45 796.5 578 C 796.14948 578.56716 796.99005 579 798.44141 579 C 799.84886 579 801 578.55 801 578 C 801 577.45 800.12613 577 799.05859 577 z M 747.5 577.5 C 745.45804 577.5 744.40779 580.01262 745.38477 582.55859 C 746.09081 584.3985 747.42854 584.39526 748.96094 582.54883 C 750.6871 580.46894 749.82776 577.5 747.5 577.5 z M 776.44727 581.1543 C 775.46701 581.34432 774.46322 582.10568 774.2168 582.8457 C 773.93022 583.70633 774.41272 584.0667 775.55273 583.8457 C 776.53299 583.65568 777.53678 582.89432 777.7832 582.1543 C 778.06978 581.29367 777.58728 580.9333 776.44727 581.1543 z M 470.75 583.18359 C 468.1697 582.88669 468 583.10534 468 586.73242 C 468 590.52954 467.93979 590.59173 464.64453 590.20703 C 461.92585 589.88964 460.88309 590.33274 459.14453 592.54297 C 455.36997 597.34154 456.60147 606.10558 461.31445 607.98438 C 462.516 608.46336 464.4 608.58722 465.5 608.25977 C 466.6 607.93229 468.97667 607.75441 470.78125 607.86523 L 474.0625 608.06641 L 473.78125 595.7832 L 473.5 583.5 L 470.75 583.18359 z M 421.90039 584.24219 C 420.69682 584.21088 419.66682 584.28792 418.98633 584.50391 C 417.15641 585.08471 417 586.03911 417 596.56836 L 417 608 L 422.95312 608 C 430.38044 608 433.47301 606.62958 435.45117 602.46094 C 438.11779 596.84145 436.8087 589.4095 432.67578 586.71289 C 430.68577 585.41447 425.51111 584.3361 421.90039 584.24219 z M 787.29102 585.5332 C 786.3947 585.60756 785.48093 586.05916 785.22266 586.83398 C 784.91777 587.74868 785.51975 588.06306 787.13867 587.83398 C 788.43743 587.6502 789.3875 587.05 789.25 586.5 C 789.06548 585.76191 788.18733 585.45885 787.29102 585.5332 z M 425 589 C 428.12829 589 431 592.55462 431 596.42773 C 431 599.62524 428.95103 603 427.00977 603 C 426.54404 603 425.45201 603.27357 424.58203 603.60742 C 423.22507 604.12813 423 603.13316 423 596.60742 C 423 589.66711 423.17528 589 425 589 z M 486.4375 590.01758 C 481.60676 589.40746 476 592.76239 476 598.87109 C 476 604.38561 476.82526 606.01592 480.40039 607.57227 C 484.32594 609.28133 484.39151 609.28121 488.46289 607.58008 C 492.55429 605.87058 494.38343 600.97274 492.91602 595.6582 C 491.9544 592.17553 489.33594 590.38365 486.4375 590.01758 z M 502.28711 590.13867 C 499.77508 590.12781 496.95258 591.11045 495.70703 593.0957 C 494.06047 595.72014 495.68112 599.62508 498.98633 600.99414 C 503.13889 602.71419 502.83608 604.39701 498.5 603.69336 C 495.32692 603.17844 495 603.34723 495 605.49023 C 495 606.90058 495.70587 608.03769 496.75 608.31055 C 506.45802 610.84752 512.33764 601.12863 503.36328 597.37891 C 499.30733 595.68422 499.77415 593.80522 504.03906 594.6582 C 506.57077 595.16455 507 594.94501 507 593.14453 C 507 591.15391 504.79914 590.14953 502.28711 590.13867 z M 448.15234 590.15234 C 444.24491 589.52934 440 591.14457 440 594.03516 C 440 595.11581 440.11473 596 440.25586 596 C 440.39699 596 441.94987 595.58737 443.70508 595.08398 C 446.01902 594.42036 447.18923 594.52131 447.96094 595.45117 C 448.78376 596.4426 448.20809 596.86653 445.42383 597.31836 C 443.44304 597.63979 441.18608 598.43026 440.41016 599.07422 C 438.1979 600.91024 438.67208 605.65347 441.25 607.48047 C 442.4875 608.3575 444.4 608.83911 445.5 608.55078 C 446.6 608.26245 448.9625 608.02167 450.75 608.01367 L 454 608 L 454 600.55664 C 454 593.99858 453.73553 592.92821 451.77734 591.55664 C 450.71953 590.81572 449.45482 590.36001 448.15234 590.15234 z M 485.01562 595 C 487.33156 595 488.81163 599.48929 487.29102 601.9043 C 485.60781 604.57752 483.09774 604.38996 482.00195 601.50781 C 480.75602 598.23078 482.25219 595 485.01562 595 z M 465.76172 595.1875 C 467.87219 595.58769 468.66235 600.49637 466.94922 602.56055 C 465.30345 604.54358 464.26561 604.36559 462.93164 601.87305 C 461.42884 599.06503 463.27077 594.71515 465.76172 595.1875 z M 776 598 C 776.58333 598 777 601.33333 777 606 C 777 610.66667 776.58333 614 776 614 C 775.41667 614 775 610.66667 775 606 C 775 601.33333 775.41667 598 776 598 z M 768.91016 598.11914 C 769.21476 598.08741 769.51177 598.17778 769.75781 598.42383 C 770.10098 598.767 769.62117 599.80851 768.69141 600.73828 C 767.13246 602.29722 767 602.29992 767 600.77344 C 767 599.40623 767.99635 598.21432 768.91016 598.11914 z M 781 599 C 781.55 599 782 599.45 782 600 C 782 600.55 781.55 601 781 601 C 780.45 601 780 600.55 780 600 C 780 599.45 780.45 599 781 599 z M 742.72266 599.19727 C 743.95625 599.44514 748.92568 610.59709 748.98438 613.25 C 749.02104 614.90685 746.77711 613.86632 746.28906 612 C 745.9138 610.565 744.92504 610 742.78906 610 C 740.65307 610 739.66432 610.565 739.28906 612 C 739.0014 613.1 738.09704 614 737.27734 614 C 736.25228 614 736.0083 613.45364 736.5 612.25 C 736.89319 611.2875 738.11595 607.8885 739.2168 604.69727 C 740.59793 600.69354 741.68469 598.98871 742.72266 599.19727 z M 446.93945 601.16602 C 448.49071 600.93898 449.08197 601.25952 448.7832 602.16602 C 448.54136 602.89979 447.31623 603.6502 446.06055 603.83398 C 444.50929 604.06102 443.91803 603.74048 444.2168 602.83398 C 444.45864 602.10021 445.68377 601.3498 446.93945 601.16602 z M 752 603 L 755.46484 603 C 759.50364 603 761 605.00911 761 610.43359 C 761 612.93647 760.55289 614 759.5 614 C 758.38533 614 758 612.82429 758 609.42578 C 758 605.61045 757.70995 604.90862 756.25 605.18555 C 754.97344 605.4277 754.41767 606.6639 754.19336 609.75781 C 753.74449 615.94914 752 614.949 752 608.5 L 752 603 z M 781 603 C 781.55 603 782 605.475 782 608.5 C 782 611.525 781.55 614 781 614 C 780.45 614 780 611.525 780 608.5 C 780 605.475 780.45 603 781 603 z M 767.62891 603.17188 C 770.33924 603.4816 770.51747 603.79521 770.80273 608.75 L 771.10547 614 L 767.71875 614 C 763.83128 614 763 613.42636 763 610.74609 C 763 609.53084 764.10137 608.41001 766 607.69336 C 769.91233 606.21662 769.82275 605 765.80078 605 C 763.51276 605 762.90683 604.69278 763.67773 603.92188 C 764.27073 603.32888 766.04941 602.99138 767.62891 603.17188 z M 799.68945 603.17773 C 801.91383 603.43279 802.56598 604.07348 802.81641 606.25 C 803.10879 608.79106 802.86409 609 799.59766 609 C 796.86624 609 796.19392 609.341 796.63867 610.5 C 796.97045 611.36459 798.46448 612 800.16602 612 C 801.87938 612 802.85871 612.41959 802.5 613 C 801.64073 614.39033 796.65292 614.25448 795.19922 612.80078 C 793.53851 611.14007 793.69361 605.49969 795.43945 604.05078 C 796.23119 603.39369 798.14369 603.00049 799.68945 603.17773 z M 788.75 603.1875 C 790.57556 603.01149 792 603.3402 792 603.9375 C 792 604.52235 790.7625 605.00286 789.25 605.00586 L 786.5 605.00977 L 789.36328 607.30078 C 791.18501 608.75855 792.08952 610.30126 791.85352 611.54492 C 791.39518 613.96021 785 615.03914 785 612.70117 C 785 611.72069 785.77955 611.42697 787.5 611.75586 C 790.82024 612.39056 790.76568 610.24099 787.42969 608.97266 C 783.53014 607.49005 784.41719 603.60526 788.75 603.1875 z M 742.73047 603.81055 C 742.41768 603.61139 742.13604 603.75702 741.8418 604.2207 C 741.39561 604.92381 741.02362 606.0625 741.01562 606.75 C 741.00721 607.4375 741.89031 608 742.97852 608 C 744.73199 608 744.82564 607.71144 743.80469 605.4707 C 743.38684 604.55363 743.04326 604.0097 742.73047 603.81055 z M 799.05859 605 C 797.99105 605 796.83992 605.45 796.5 606 C 796.14948 606.56716 796.99005 607 798.44141 607 C 799.84886 607 801 606.55 801 606 C 801 605.45 800.12613 605 799.05859 605 z M 768.57422 609.31836 C 768.18316 609.02165 767.43779 609.00178 766.48047 609.36914 C 765.59689 609.7082 765.15378 610.4383 765.49609 610.99219 C 766.30667 612.3037 767.71064 612.27717 768.54102 610.93359 C 769.00119 610.18901 768.96527 609.61507 768.57422 609.31836 z M 766.5 657.58789 C 765.38593 657.8989 763.58015 658.94283 760.16016 660.97461 C 756.22167 663.31442 753 665.4293 753 665.67578 C 753 665.92225 753.72402 668.33814 754.60938 671.04492 C 760.69277 689.64382 737.00198 722.90702 702.75391 743.84961 C 686.85639 753.57088 667.59983 761.60605 653.24414 764.51172 C 645.56671 766.06571 644.37747 766.06859 636.24414 764.54297 C 616.80535 760.89672 599 758.39816 599 759.31641 C 599 759.84512 601.95526 765.60638 605.56641 772.11914 C 611.94224 783.61806 612.19532 783.91902 614.31641 782.5293 C 615.9902 781.43265 617.43481 781.32217 620.5 782.05859 C 626.73008 783.55541 646.62351 783.28441 655.35938 781.58398 C 715.69724 769.83925 772.88138 718.71832 772.98438 676.43164 C 772.99991 670.05219 771.0037 661.75405 768.69141 658.5918 C 768.03736 657.69733 767.61407 657.27688 766.5 657.58789 z M 488.5 726 C 403.07294 726 408.61484 725.53097 403.42578 733.18359 L 400.5 737.5 L 400.21094 769.84375 L 399.91992 802.18945 L 402.42578 806.46484 C 404.75968 810.44734 408.42991 813.0419 413.5 814.29688 C 414.6 814.56913 449.02504 814.72698 490 814.64648 C 574.42373 814.48059 569.60307 814.94745 574.57422 806.46484 L 577.08008 802.18945 L 576.78906 769.84375 L 576.5 737.5 L 573.57422 733.18359 C 568.38516 725.53097 573.92706 726 488.5 726 z M 470 760 C 470.58333 760 471 763.33333 471 768 C 471 772.66667 470.58333 776 470 776 C 469.41667 776 469 772.66667 469 768 C 469 763.33333 469.41667 760 470 760 z M 487 760 C 487.58159 760 488 763.27856 488 767.83594 L 488 775.67188 L 483.97266 775.83008 C 480.47064 775.9673 479.81407 775.64221 478.93945 773.3418 C 477.33476 769.12115 479.03137 765.56227 482.82617 765.1875 C 485.43629 764.92973 486 764.4419 486 762.4375 C 486 761.09735 486.45 760 487 760 z M 516.76367 760.5 C 518.54363 760.5 520 761.01393 520 761.64258 C 520 763.18099 517.22285 764.16945 516.44336 762.9082 C 516.04516 762.26389 515.27355 762.35773 514.29492 763.16992 C 513.00517 764.24032 512.82815 764.13187 513.14844 762.46875 C 513.43231 760.99471 514.33986 760.5 516.76367 760.5 z M 443.21094 761 C 444.06063 761 445.3349 763.21904 446.36914 766.5 C 447.32269 769.525 448.28121 772 448.5 772 C 448.71879 772 449.67731 769.525 450.63086 766.5 C 451.6651 763.21904 452.93937 761 453.78906 761 C 454.57246 761 455.00115 761.5625 454.74219 762.25 C 454.48323 762.9375 453.25053 766.3125 452.00195 769.75 C 450.75337 773.1875 449.17761 776 448.5 776 C 447.82239 776 446.24663 773.1875 444.99805 769.75 C 443.74947 766.3125 442.51677 762.9375 442.25781 762.25 C 441.99885 761.5625 442.42754 761 443.21094 761 z M 474.5 761 C 475.325 761 476 761.45 476 762 C 476 762.55 475.325 763 474.5 763 C 473.675 763 473 762.55 473 762 C 473 761.45 473.675 761 474.5 761 z M 475 765 C 475.55 765 476 767.475 476 770.5 C 476 773.525 475.55 776 475 776 C 474.45 776 474 773.525 474 770.5 C 474 767.475 474.45 765 475 765 z M 528 765 C 531.43879 765 533 766.71733 533 770.5 C 533 772.205 532.46078 774.14078 531.80078 774.80078 C 531.14078 775.46078 529.43 776 528 776 C 524.56121 776 523 774.28267 523 770.5 C 523 766.71733 524.56121 765 528 765 z M 507.22461 765.01562 C 508.71629 765.05101 510 765.5083 510 766.36133 C 510 767.25636 509.18374 767.56704 507.61719 767.26758 C 504.71767 766.7133 503.5981 768.26319 504.44922 771.6543 C 504.97787 773.76062 505.50642 774.08926 507.54297 773.57812 C 510.44684 772.84931 510.43895 772.81413 508.42773 776.8457 C 506.95729 779.79328 504 781.2322 504 779 C 504 778.45 504.52796 778 505.17383 778 C 505.81971 778 505.36971 776.9585 504.17383 775.68555 C 501.7953 773.15372 501.27808 768.12036 503.19922 766.19922 C 504.03247 765.36596 505.73292 764.98024 507.22461 765.01562 z M 516.58789 765.17188 C 519.69651 765.53207 520.90882 768.25507 520.17773 773.23633 C 519.83117 775.5976 519.30443 776 516.55273 776 C 512.83152 776 512 775.40514 512 772.74609 C 512 771.53084 513.10137 770.41001 515 769.69336 C 518.91233 768.21662 518.82275 767 514.80078 767 C 512.51276 767 511.90683 766.69278 512.67773 765.92188 C 513.27073 765.32888 515.03014 764.99138 516.58789 765.17188 z M 460.75 765.18945 L 464.5 765.5 L 464.79688 770.58594 L 465.09375 775.67188 L 461.64062 775.80273 C 455.53703 776.03218 454.22957 770.50408 460.10938 769.32812 C 461.68099 769.01381 462.69773 768.31803 462.36719 767.7832 C 462.03665 767.24838 460.69334 767.01705 459.38281 767.26758 C 457.77619 767.5747 457 767.25938 457 766.30078 C 457 765.26945 458.0296 764.9643 460.75 765.18945 z M 494.75 765.18945 L 498.5 765.5 L 498.79688 770.58594 L 499.09375 775.67188 L 495.64062 775.80273 C 489.53703 776.03218 488.22957 770.50408 494.10938 769.32812 C 495.68099 769.01381 496.69773 768.31803 496.36719 767.7832 C 496.03665 767.24838 494.69334 767.01705 493.38281 767.26758 C 491.77619 767.5747 491 767.25938 491 766.30078 C 491 765.26945 492.0296 764.9643 494.75 765.18945 z M 528.04883 767 C 525.90997 767 524.70092 769.48141 525.54492 772.14062 C 526.41543 774.88333 529.83905 774.48577 530.57422 771.55664 C 531.32747 768.55544 530.46648 767 528.04883 767 z M 483.5 767.5 C 481.45804 767.5 480.40779 770.01262 481.38477 772.55859 C 482.09081 774.3985 483.42854 774.39526 484.96094 772.54883 C 486.6871 770.46894 485.82776 767.5 483.5 767.5 z M 461.44727 771.1543 C 460.46701 771.34432 459.46322 772.10568 459.2168 772.8457 C 458.93022 773.70633 459.41272 774.0667 460.55273 773.8457 C 461.53299 773.65568 462.53678 772.89432 462.7832 772.1543 C 463.06978 771.29367 462.58728 770.9333 461.44727 771.1543 z M 495.44727 771.1543 C 494.46701 771.34432 493.46322 772.10568 493.2168 772.8457 C 492.93022 773.70633 493.41272 774.0667 494.55273 773.8457 C 495.53299 773.65568 496.53678 772.89432 496.7832 772.1543 C 497.06978 771.29367 496.58728 770.9333 495.44727 771.1543 z M 517.57422 771.31836 C 517.18316 771.02165 516.43779 771.00178 515.48047 771.36914 C 514.59689 771.7082 514.15378 772.4383 514.49609 772.99219 C 515.30667 774.3037 516.71064 774.27717 517.54102 772.93359 C 518.00119 772.18901 517.96527 771.61507 517.57422 771.31836 z " />
  </g>
</svg>
