<?xml version="1.0" encoding="UTF-8" standalone="no"?>
<!-- Created with Inkscape (http://www.inkscape.org/) -->

<svg
   version="1.1"
   id="svg1"
   width="341.33334"
   height="341.33334"
   viewBox="0 0 341.33334 341.33334"
   sodipodi:docname="icon-scatter-chart.svg"
   inkscape:version="1.3 (0e150ed6c4, 2023-07-21)"
   xmlns:inkscape="http://www.inkscape.org/namespaces/inkscape"
   xmlns:sodipodi="http://sodipodi.sourceforge.net/DTD/sodipodi-0.dtd"
   xmlns="http://www.w3.org/2000/svg"
   xmlns:svg="http://www.w3.org/2000/svg">
  <defs
     id="defs1" />
  <sodipodi:namedview
     id="namedview1"
     pagecolor="#ffffff"
     bordercolor="#000000"
     borderopacity="0.25"
     inkscape:showpageshadow="2"
     inkscape:pageopacity="0.0"
     inkscape:pagecheckerboard="0"
     inkscape:deskcolor="#d1d1d1"
     inkscape:zoom="0.51893626"
     inkscape:cx="-290.97986"
     inkscape:cy="347.82692"
     inkscape:window-width="1366"
     inkscape:window-height="697"
     inkscape:window-x="-8"
     inkscape:window-y="-8"
     inkscape:window-maximized="1"
     inkscape:current-layer="g1" />
  <g
     inkscape:groupmode="layer"
     inkscape:label="Image"
     id="g1">
    <path
       id="path2"
       style="fill:#ffbc5e;stroke:none;fill-opacity:1"
       d="M 31.851562 20.3125 A 10.900866 10.900866 0 0 0 20.96875 30.953125 L 20.957031 30.953125 L 20.957031 31.103516 A 10.900866 10.900866 0 0 0 20.949219 31.212891 A 10.900866 10.900866 0 0 0 20.957031 31.322266 L 20.957031 308.5293 L 21.029297 308.5293 A 10.900866 10.900866 0 0 0 20.988281 309.0957 A 10.900866 10.900866 0 0 0 31.888672 319.99609 A 10.900866 10.900866 0 0 0 32.511719 319.87305 A 10.900866 10.900866 0 0 0 33.978516 320.16406 A 10.900866 10.900866 0 0 0 34.994141 320.11523 L 311.69727 320.11523 A 10.900866 10.900866 0 0 0 311.86133 320.12695 A 10.900866 10.900866 0 0 0 322.76172 309.22656 A 10.900866 10.900866 0 0 0 312.12109 298.34375 L 312.12109 298.33203 L 311.9707 298.33203 A 10.900866 10.900866 0 0 0 311.86133 298.32422 A 10.900866 10.900866 0 0 0 311.75195 298.33203 L 42.740234 298.33203 L 42.740234 31.376953 A 10.900866 10.900866 0 0 0 42.751953 31.212891 A 10.900866 10.900866 0 0 0 31.851562 20.3125 z M 260.57422 21.146484 A 16.740976 16.740976 0 0 0 243.83203 37.886719 A 16.740976 16.740976 0 0 0 260.57422 54.626953 A 16.740976 16.740976 0 0 0 277.31445 37.886719 A 16.740976 16.740976 0 0 0 260.57422 21.146484 z M 309.08398 21.925781 A 10.900866 10.900866 0 0 0 299.91406 26.933594 A 10.900866 10.900866 0 0 0 299.91406 26.935547 L 244.34766 82.275391 A 16.740976 16.740976 0 0 0 230.23633 74.533203 A 16.740976 16.740976 0 0 0 213.49609 91.273438 A 16.740976 16.740976 0 0 0 221.17773 105.35156 L 68.089844 257.82031 A 10.900866 10.900866 0 0 0 67.083984 258.82227 A 10.900866 10.900866 0 0 0 64.3125 266.07031 A 10.900866 10.900866 0 0 0 75.212891 276.9707 A 10.900866 10.900866 0 0 0 81.867188 274.67188 L 81.927734 274.73633 L 94.757812 261.93555 A 16.740976 16.740976 0 0 0 111.37695 276.98633 A 16.740976 16.740976 0 0 0 128.11914 260.24609 A 16.740976 16.740976 0 0 0 113.13281 243.59766 L 315.75586 41.414062 A 10.900866 10.900866 0 0 0 319.98438 32.826172 A 10.900866 10.900866 0 0 0 309.08398 21.925781 z M 218.20117 31.626953 A 16.740976 16.740976 0 0 0 201.46094 48.369141 A 16.740976 16.740976 0 0 0 218.20117 65.109375 A 16.740976 16.740976 0 0 0 234.94141 48.369141 A 16.740976 16.740976 0 0 0 218.20117 31.626953 z M 293.79297 73.992188 A 16.740976 16.740976 0 0 0 277.05078 90.734375 A 16.740976 16.740976 0 0 0 293.79297 107.47461 A 16.740976 16.740976 0 0 0 310.5332 90.734375 A 16.740976 16.740976 0 0 0 293.79297 73.992188 z M 123.04102 105.43164 A 16.740976 16.740976 0 0 0 106.30078 122.17188 A 16.740976 16.740976 0 0 0 123.04102 138.91406 A 16.740976 16.740976 0 0 0 139.78125 122.17188 A 16.740976 16.740976 0 0 0 123.04102 105.43164 z M 272.01758 105.5625 A 16.740976 16.740976 0 0 0 255.27734 122.30273 A 16.740976 16.740976 0 0 0 272.01758 139.04492 A 16.740976 16.740976 0 0 0 288.75977 122.30273 A 16.740976 16.740976 0 0 0 272.01758 105.5625 z M 240.12109 147.86133 A 16.740976 16.740976 0 0 0 223.37891 164.60352 A 16.740976 16.740976 0 0 0 240.12109 181.34375 A 16.740976 16.740976 0 0 0 256.86133 164.60352 A 16.740976 16.740976 0 0 0 240.12109 147.86133 z M 112.55859 169.70898 A 16.740976 16.740976 0 0 0 95.816406 186.44922 A 16.740976 16.740976 0 0 0 112.55859 203.18945 A 16.740976 16.740976 0 0 0 129.29883 186.44922 A 16.740976 16.740976 0 0 0 112.55859 169.70898 z M 80.476562 201.93555 A 16.740976 16.740976 0 0 0 63.736328 218.67578 A 16.740976 16.740976 0 0 0 80.476562 235.41602 A 16.740976 16.740976 0 0 0 97.21875 218.67578 A 16.740976 16.740976 0 0 0 80.476562 201.93555 z M 165.61914 202.09961 A 16.740976 16.740976 0 0 0 148.87891 218.83984 A 16.740976 16.740976 0 0 0 165.61914 235.58203 A 16.740976 16.740976 0 0 0 182.36133 218.83984 A 16.740976 16.740976 0 0 0 165.61914 202.09961 z M 154.2793 243.97852 A 16.740976 16.740976 0 0 0 137.53711 260.71875 A 16.740976 16.740976 0 0 0 154.2793 277.46094 A 16.740976 16.740976 0 0 0 171.01953 260.71875 A 16.740976 16.740976 0 0 0 154.2793 243.97852 z " />
  </g>
</svg>
