<?xml version="1.0" encoding="UTF-8" standalone="no"?>
<!-- Created with Inkscape (http://www.inkscape.org/) -->

<svg
   version="1.1"
   id="svg1"
   width="512"
   height="512"
   viewBox="0 0 512 512"
   sodipodi:docname="icon-amostra.svg"
   inkscape:version="1.3 (0e150ed6c4, 2023-07-21)"
   xmlns:inkscape="http://www.inkscape.org/namespaces/inkscape"
   xmlns:sodipodi="http://sodipodi.sourceforge.net/DTD/sodipodi-0.dtd"
   xmlns="http://www.w3.org/2000/svg"
   xmlns:svg="http://www.w3.org/2000/svg">
  <defs
     id="defs1" />
  <sodipodi:namedview
     id="namedview1"
     pagecolor="#ffffff"
     bordercolor="#000000"
     borderopacity="0.25"
     inkscape:showpageshadow="2"
     inkscape:pageopacity="0.0"
     inkscape:pagecheckerboard="0"
     inkscape:deskcolor="#d1d1d1"
     inkscape:zoom="0.48925781"
     inkscape:cx="5.1097804"
     inkscape:cy="189.06188"
     inkscape:window-width="1366"
     inkscape:window-height="697"
     inkscape:window-x="-8"
     inkscape:window-y="-8"
     inkscape:window-maximized="1"
     inkscape:current-layer="g1" />
  <g
     inkscape:groupmode="layer"
     inkscape:label="Image"
     id="g1">
    <path
       style="fill:#ffbc5e;fill-opacity:1"
       d="M 24,473.70295 V 451.4059 L 19.930257,447.45295 15.860514,443.5 16.189282,427 c 0.292236,-14.66657 0.571232,-16.95499 2.510828,-20.59468 2.117141,-3.97286 6.241837,-8.17875 11.323528,-11.54643 L 32.5,393.21778 30.366973,390.85889 c -5.92632,-6.55385 -8.08755,-19.16264 -4.919499,-28.70075 C 28.432142,353.17215 38.549236,346 48.240293,346 c 9.33405,0 19.380272,7.33083 22.3663,16.32092 3.112114,9.3697 0.90436,22.03763 -4.973566,28.53797 L 63.5,393.21778 l 2.476362,1.64111 c 5.081691,3.36768 9.206387,7.57357 11.323528,11.54643 1.939596,3.63969 2.218592,5.92811 2.510828,20.59468 l 0.328768,16.5 -4.069743,3.95295 L 72,451.4059 V 473.70295 496 H 48 24 Z m 32,-11.5 V 444.4059 l 4,-3.9059 4,-3.9059 v -10.86279 c 0,-5.97454 -0.432972,-11.67181 -0.96216,-12.66061 -0.529188,-0.98879 -4.129188,-3.6793 -8,-5.97891 L 48,402.91068 l -7.03784,4.18111 c -3.870812,2.29961 -7.470812,4.99012 -8,5.97891 C 32.432972,414.0595 32,419.75677 32,425.73131 v 10.86279 l 4,3.9059 4,3.9059 V 462.20295 480 h 8 8 z m -4.979984,-79.7133 C 54.894549,380.48605 56,378.16207 56,372.02029 56,365.80596 52.961396,362 48,362 c -4.961396,0 -8,3.80596 -8,10.02029 0,6.04743 1.086883,8.41936 4.775141,10.42091 3.382712,1.83573 2.79744,1.83119 6.244875,0.0485 z M 128,473.70295 V 451.4059 l -4,-3.9059 -4,-3.9059 V 425.79705 408 h 8 8 v 14.29705 14.29705 l 4,3.9059 4,3.9059 V 462.20295 480 h 8 8 V 462.20295 444.4059 l 4,-3.9059 4,-3.9059 V 422.29705 408 h 8 8 v 17.79705 17.79705 l -4,3.9059 -4,3.9059 V 473.70295 496 h -24 -24 z m 104,0 V 451.4059 l -4,-3.9059 -4,-3.9059 V 425.79705 408 h 8 8 v 14.29705 14.29705 l 4,3.9059 4,3.9059 V 462.20295 480 h 8 8 V 462.20295 444.4059 l 4,-3.9059 4,-3.9059 V 422.29705 408 h 8 8 v 17.79705 17.79705 l -4,3.9059 -4,3.9059 V 473.70295 496 h -24 -24 z m 104,0 V 451.4059 l -4,-3.9059 -4,-3.9059 V 425.79705 408 h 8 8 v 14.29705 14.29705 l 4,3.9059 4,3.9059 V 462.20295 480 h 8 8 V 462.20295 444.4059 l 4,-3.9059 4,-3.9059 V 422.29705 408 h 8 8 v 17.79705 17.79705 l -4,3.9059 -4,3.9059 V 473.70295 496 h -24 -24 z m 104,0 V 451.4059 l -4.06974,-3.95295 -4.06975,-3.95295 0.32877,-16.5 c 0.29224,-14.66657 0.57123,-16.95499 2.51083,-20.59468 2.11714,-3.97286 6.24184,-8.17875 11.32353,-11.54643 l 2.47636,-1.64111 -2.13303,-2.35889 c -5.92632,-6.55385 -8.08755,-19.16264 -4.9195,-28.70075 C 444.43214,353.17215 454.54924,346 464.24029,346 c 9.33405,0 19.38027,7.33083 22.3663,16.32092 3.11212,9.3697 0.90436,22.03763 -4.97356,28.53797 l -2.13303,2.35889 2.47636,1.64111 c 5.08169,3.36768 9.20639,7.57357 11.32353,11.54643 1.9396,3.63969 2.21859,5.92811 2.51083,20.59468 l 0.32877,16.5 -4.06975,3.95295 L 488,451.4059 V 473.70295 496 h -24 -24 z m 32,-11.5 V 444.4059 l 4,-3.9059 4,-3.9059 v -10.86279 c 0,-5.97454 -0.43297,-11.67181 -0.96216,-12.66061 -0.52919,-0.98879 -4.12919,-3.6793 -8,-5.97891 L 464,402.91068 l -7.03784,4.18111 c -3.87081,2.29961 -7.47081,4.99012 -8,5.97891 C 448.43297,414.0595 448,419.75677 448,425.73131 v 10.86279 l 4,3.9059 4,3.9059 V 462.20295 480 h 8 8 z m -4.97998,-79.7133 C 470.89455,380.48605 472,378.16207 472,372.02029 472,365.80596 468.9614,362 464,362 c -4.9614,0 -8,3.80596 -8,10.02029 0,6.04743 1.08688,8.41936 4.77514,10.42091 3.38271,1.83573 2.79744,1.83119 6.24488,0.0485 z m -357.97285,8.20543 c -4.70343,-1.49943 -10.335491,-7.37634 -11.821172,-12.3351 -1.776414,-5.92914 -1.776414,-238.79082 0,-244.71996 1.56921,-5.23755 7.176472,-10.84481 12.414022,-12.41402 5.94162,-1.78015 286.77834,-1.78015 292.71996,0 5.23755,1.56921 10.84481,7.17647 12.41402,12.41402 1.77642,5.92914 1.77642,238.79082 0,244.71996 -1.56921,5.23755 -7.17647,10.84481 -12.41402,12.41402 -5.56486,1.66727 -288.07377,1.59126 -293.31281,-0.0789 z M 398.8,374.8 c 1.74238,-1.74238 1.74238,-235.85762 0,-237.6 -1.74398,-1.74398 -283.85602,-1.74398 -285.6,0 -1.74238,1.74238 -1.74238,235.85762 0,237.6 1.74398,1.74398 283.85602,1.74398 285.6,0 z M 232,321.72654 V 291.45308 L 224,283.5 216,275.54692 V 252.9516 c 0,-26.43133 0.64673,-29.52771 7.48357,-35.82969 2.3848,-2.19823 6.7391,-5.20408 9.67622,-6.67965 6.79078,-3.41161 6.54476,-3.0634 4.04462,-5.72468 C 233.58878,200.86892 232,194.56035 232,184.05241 c 0,-12.73849 1.69513,-17.69388 7.98816,-23.35186 10.10652,-9.08663 23.14297,-8.88146 32.7272,0.51506 5.60714,5.49734 7.28464,10.75075 7.28464,22.81331 0,10.58476 -0.99752,14.74964 -4.73909,19.78676 -1.35459,1.82362 -2.30494,3.45779 -2.1119,3.63148 0.19305,0.17369 3.05099,1.6797 6.35099,3.34668 3.3,1.66698 7.66821,4.75782 9.70713,6.86852 6.18065,6.39823 6.79287,9.57403 6.79287,35.23683 v 22.64773 l -8,7.95308 -8,7.95308 V 321.72654 352 h -24 -24 z m 32,-11.5 v -25.77346 l 8,-7.95308 8,-7.95308 v -18.3392 c 0,-10.80638 -0.42799,-19.13892 -1.04198,-20.28616 -0.57309,-1.07083 -5.97309,-4.42001 -12,-7.44261 L 256,216.98329 l -10.95802,5.49566 c -6.02691,3.0226 -11.42691,6.37178 -12,7.44261 C 232.42799,231.0688 232,239.40134 232,250.20772 v 18.3392 l 8,7.95308 8,7.95308 V 310.22654 336 h 8 8 z M 259.02002,197.48965 C 263.23566,195.30966 264,193.1656 264,183.52029 c 0,-7.80942 -0.22854,-8.83974 -2.45455,-11.06574 C 259.99822,170.90731 257.94837,170 256,170 c -1.94837,0 -3.99822,0.90731 -5.54545,2.45455 -2.22601,2.226 -2.45455,3.25632 -2.45455,11.06574 0,9.53123 0.75794,11.74085 4.77514,13.92091 3.38271,1.83573 2.79744,1.83119 6.24488,0.0485 z M 144,309.70295 V 283.4059 L 139.94295,279.45295 135.8859,275.5 136.19295,251 c 0.28799,-22.97938 0.44304,-24.75414 2.49814,-28.59468 2.12676,-3.97448 6.25742,-8.18309 11.33255,-11.54643 l 2.47636,-1.64111 -2.13303,-2.35889 c -5.56457,-6.15381 -7.92419,-18.2254 -5.35568,-27.39921 C 147.69444,169.8764 158.0651,162 168,162 c 9.9349,0 20.30556,7.8764 22.98871,17.45968 2.56851,9.17381 0.20889,21.2454 -5.35568,27.39921 l -2.13303,2.35889 2.47636,1.64111 c 5.07513,3.36334 9.20579,7.57195 11.33255,11.54643 2.0551,3.84054 2.21015,5.6153 2.49814,28.59468 l 0.30705,24.5 -4.05705,3.95295 L 192,283.4059 V 309.70295 336 h -24 -24 z m 32,-11.5 V 276.4059 l 4,-3.9059 4,-3.9059 v -18.86279 c 0,-10.37454 -0.43297,-19.67181 -0.96216,-20.66061 -0.52919,-0.98879 -4.12919,-3.6793 -8,-5.97891 L 168,218.91068 l -7.03784,4.18111 c -3.87081,2.29961 -7.47081,4.99012 -8,5.97891 C 152.43297,230.0595 152,239.35677 152,249.73131 v 18.86279 l 4,3.9059 4,3.9059 V 298.20295 320 h 8 8 z m -4.97998,-99.7133 C 174.89455,196.48605 176,194.16207 176,188.02029 176,181.80596 172.9614,178 168,178 c -4.9614,0 -8,3.80596 -8,10.02029 0,6.04743 1.08688,8.41936 4.77514,10.42091 3.38271,1.83573 2.79744,1.83119 6.24488,0.0485 z M 320,309.70295 V 283.4059 L 315.94295,279.45295 311.8859,275.5 312.19295,251 c 0.28799,-22.97938 0.44304,-24.75414 2.49814,-28.59468 2.12676,-3.97448 6.25742,-8.18309 11.33255,-11.54643 l 2.47636,-1.64111 -2.13303,-2.35889 c -5.56457,-6.15381 -7.92419,-18.2254 -5.35568,-27.39921 C 323.69444,169.8764 334.0651,162 344,162 c 9.9349,0 20.30556,7.8764 22.98871,17.45968 2.56851,9.17381 0.20889,21.2454 -5.35568,27.39921 l -2.13303,2.35889 2.47636,1.64111 c 5.07513,3.36334 9.20579,7.57195 11.33255,11.54643 2.0551,3.84054 2.21015,5.6153 2.49814,28.59468 l 0.30705,24.5 -4.05705,3.95295 L 368,283.4059 V 309.70295 336 h -24 -24 z m 32,-11.5 V 276.4059 l 4,-3.9059 4,-3.9059 v -18.86279 c 0,-10.37454 -0.43297,-19.67181 -0.96216,-20.66061 -0.52919,-0.98879 -4.12919,-3.6793 -8,-5.97891 L 344,218.91068 l -7.03784,4.18111 c -3.87081,2.29961 -7.47081,4.99012 -8,5.97891 C 328.43297,230.0595 328,239.35677 328,249.73131 v 18.86279 l 4,3.9059 4,3.9059 V 298.20295 320 h 8 8 z m -4.97998,-99.7133 C 350.89455,196.48605 352,194.16207 352,188.02029 352,181.80596 348.9614,178 344,178 c -4.9614,0 -8,3.80596 -8,10.02029 0,6.04743 1.08688,8.41936 4.77514,10.42091 3.38271,1.83573 2.79744,1.83119 6.24488,0.0485 z M 24,301.70295 V 283.4059 L 19.930257,279.45295 15.860514,275.5 16.189282,259 c 0.292236,-14.66657 0.571232,-16.95499 2.510828,-20.59468 2.117141,-3.97286 6.241837,-8.17875 11.323528,-11.54643 L 32.5,225.21778 30.366973,222.85889 c -5.92632,-6.55385 -8.08755,-19.16264 -4.919499,-28.70075 C 28.432142,185.17215 38.549236,178 48.240293,178 c 9.33405,0 19.380272,7.33083 22.3663,16.32092 3.112114,9.3697 0.90436,22.03763 -4.973566,28.53797 L 63.5,225.21778 l 2.476362,1.64111 c 5.081691,3.36768 9.206387,7.57357 11.323528,11.54643 1.939596,3.63969 2.218592,5.92811 2.510828,20.59468 l 0.328768,16.5 -4.069743,3.95295 L 72,283.4059 V 301.70295 320 H 48 24 Z m 32,-11.5 V 276.4059 l 4,-3.9059 4,-3.9059 v -10.86279 c 0,-5.97454 -0.432972,-11.67181 -0.96216,-12.66061 -0.529188,-0.98879 -4.129188,-3.6793 -8,-5.97891 L 48,234.91068 l -7.03784,4.18111 c -3.870812,2.29961 -7.470812,4.99012 -8,5.97891 C 32.432972,246.0595 32,251.75677 32,257.73131 l 0,10.86279 4,3.9059 4,3.9059 V 290.20295 304 h 8 8 z m -4.979984,-75.7133 C 54.894549,212.48605 56,210.16207 56,204.02029 56,197.80596 52.961396,194 48,194 c -4.961396,0 -8,3.80596 -8,10.02029 0,6.04743 1.086883,8.41936 4.775141,10.42091 3.382712,1.83573 2.79744,1.83119 6.244875,0.0485 z M 440,301.70295 V 283.4059 l -4.06974,-3.95295 -4.06975,-3.95295 0.32877,-16.5 c 0.29224,-14.66657 0.57123,-16.95499 2.51083,-20.59468 2.11714,-3.97286 6.24184,-8.17875 11.32353,-11.54643 l 2.47636,-1.64111 -2.13303,-2.35889 c -5.92632,-6.55385 -8.08755,-19.16264 -4.9195,-28.70075 C 444.43214,185.17215 454.54924,178 464.24029,178 c 9.33405,0 19.38027,7.33083 22.3663,16.32092 3.11212,9.3697 0.90436,22.03763 -4.97356,28.53797 l -2.13303,2.35889 2.47636,1.64111 c 5.08169,3.36768 9.20639,7.57357 11.32353,11.54643 1.9396,3.63969 2.21859,5.92811 2.51083,20.59468 l 0.32877,16.5 -4.06975,3.95295 L 488,283.4059 V 301.70295 320 h -24 -24 z m 32,-11.5 V 276.4059 l 4,-3.9059 4,-3.9059 v -10.86279 c 0,-5.97454 -0.43297,-11.67181 -0.96216,-12.66061 -0.52919,-0.98879 -4.12919,-3.6793 -8,-5.97891 L 464,234.91068 l -7.03784,4.18111 c -3.87081,2.29961 -7.47081,4.99012 -8,5.97891 C 448.43297,246.0595 448,251.75677 448,257.73131 v 10.86279 l 4,3.9059 4,3.9059 V 290.20295 304 h 8 8 z m -4.97998,-75.7133 C 470.89455,212.48605 472,210.16207 472,204.02029 472,197.80596 468.9614,194 464,194 c -4.9614,0 -8,3.80596 -8,10.02029 0,6.04743 1.08688,8.41936 4.77514,10.42091 3.38271,1.83573 2.79744,1.83119 6.24488,0.0485 z M 24,141.70295 V 123.4059 L 19.930257,119.45295 15.860514,115.5 16.189282,99 C 16.481518,84.33343 16.760514,82.045012 18.70011,78.40532 20.817251,74.432464 24.941947,70.226575 30.023638,66.858892 L 32.5,65.217785 30.366973,62.858892 C 24.440653,56.305036 22.279423,43.696249 25.447474,34.158142 28.432142,25.172146 38.549236,18 48.240293,18 c 9.33405,0 19.380272,7.330832 22.3663,16.320921 3.112114,9.369698 0.90436,22.037633 -4.973566,28.537971 L 63.5,65.217785 l 2.476362,1.641107 c 5.081691,3.367683 9.206387,7.573572 11.323528,11.546428 1.939596,3.639692 2.218592,5.92811 2.510828,20.59468 l 0.328768,16.5 -4.069743,3.95295 L 72,123.4059 V 141.70295 160 H 48 24 Z m 32,-11.5 V 116.4059 l 4,-3.9059 4,-3.9059 V 97.731311 c 0,-5.974537 -0.432972,-11.671809 -0.96216,-12.660606 -0.529188,-0.988797 -4.129188,-3.679309 -8,-5.978916 L 48,74.910685 40.96216,79.091789 c -3.870812,2.299607 -7.470812,4.990119 -8,5.978916 C 32.432972,86.059502 32,91.756774 32,97.731311 l 0,10.862789 4,3.9059 4,3.9059 V 130.20295 144 h 8 8 z M 51.020016,54.48965 C 54.894549,52.48605 56,50.162074 56,44.020287 56,37.805961 52.961396,34 48,34 c -4.961396,0 -8,3.805961 -8,10.020287 0,6.047434 1.086883,8.419366 4.775141,10.420911 3.382712,1.83573 2.79744,1.831189 6.244875,0.04845 z M 440,141.70295 V 123.4059 L 435.93026,119.45295 431.86051,115.5 432.18928,99 c 0.29224,-14.66657 0.57123,-16.954988 2.51083,-20.59468 2.11714,-3.972856 6.24184,-8.178745 11.32353,-11.546428 L 448.5,65.217785 446.36697,62.858892 c -5.92632,-6.553856 -8.08755,-19.162643 -4.9195,-28.70075 C 444.43214,25.172146 454.54924,18 464.24029,18 c 9.33405,0 19.38027,7.330832 22.3663,16.320921 3.11212,9.369698 0.90436,22.037633 -4.97356,28.537971 l -2.13303,2.358893 2.47636,1.641107 c 5.08169,3.367683 9.20639,7.573572 11.32353,11.546428 1.9396,3.639692 2.21859,5.92811 2.51083,20.59468 l 0.32877,16.5 -4.06975,3.95295 L 488,123.4059 V 141.70295 160 h -24 -24 z m 32,-11.5 V 116.4059 l 4,-3.9059 4,-3.9059 V 97.731311 c 0,-5.974537 -0.43297,-11.671809 -0.96216,-12.660606 -0.52919,-0.988797 -4.12919,-3.679309 -8,-5.978916 L 464,74.910685 l -7.03784,4.181104 c -3.87081,2.299607 -7.47081,4.990119 -8,5.978916 C 448.43297,86.059502 448,91.756774 448,97.731311 V 108.5941 l 4,3.9059 4,3.9059 V 130.20295 144 h 8 8 z m -4.97998,-75.7133 C 470.89455,52.48605 472,50.162074 472,44.020287 472,37.805961 468.9614,34 464,34 c -4.9614,0 -8,3.805961 -8,10.020287 0,6.047434 1.08688,8.419366 4.77514,10.420911 3.38271,1.83573 2.79744,1.831189 6.24488,0.04845 z M 120.18867,93.25 c 0.54387,-14.262515 3.21121,-19.350649 13.83497,-26.391108 L 136.5,65.217785 134.36697,62.858892 c -5.92632,-6.553856 -8.08755,-19.162643 -4.9195,-28.70075 C 132.43214,25.172146 142.54924,18 152.24029,18 c 9.33405,0 19.38027,7.330832 22.3663,16.320921 3.11212,9.369698 0.90436,22.037633 -4.97356,28.537971 l -2.13303,2.358893 2.47636,1.641107 c 10.62376,7.040459 13.2911,12.128593 13.83497,26.391108 L 184.22125,104 H 176.11062 168 v -8.565741 c 0,-4.711158 -0.43297,-9.374757 -0.96216,-10.363554 -0.52919,-0.988797 -4.12919,-3.679309 -8,-5.978916 L 152,74.910685 l -7.03784,4.181104 c -3.87081,2.299607 -7.47081,4.990119 -8,5.978916 C 136.43297,86.059502 136,90.723101 136,95.434259 V 104 h -8.11062 -8.11063 z M 155.02002,54.48965 C 158.89455,52.48605 160,50.162074 160,44.020287 160,37.805961 156.9614,34 152,34 c -4.9614,0 -8,3.805961 -8,10.020287 0,6.047434 1.08688,8.419366 4.77514,10.420911 3.38271,1.83573 2.79744,1.831189 6.24488,0.04845 z M 224.18867,93.25 c 0.54387,-14.262515 3.21121,-19.350649 13.83497,-26.391108 L 240.5,65.217785 238.36697,62.858892 c -5.92632,-6.553856 -8.08755,-19.162643 -4.9195,-28.70075 C 236.43214,25.172146 246.54924,18 256.24029,18 c 9.33405,0 19.38027,7.330832 22.3663,16.320921 3.11212,9.369698 0.90436,22.037633 -4.97356,28.537971 l -2.13303,2.358893 2.47636,1.641107 c 10.62376,7.040459 13.2911,12.128593 13.83497,26.391108 L 288.22125,104 H 280.11062 272 v -8.565741 c 0,-4.711158 -0.43297,-9.374757 -0.96216,-10.363554 -0.52919,-0.988797 -4.12919,-3.679309 -8,-5.978916 L 256,74.910685 l -7.03784,4.181104 c -3.87081,2.299607 -7.47081,4.990119 -8,5.978916 C 240.43297,86.059502 240,90.723101 240,95.434259 V 104 h -8.11062 -8.11063 z M 259.02002,54.48965 C 262.89455,52.48605 264,50.162074 264,44.020287 264,37.805961 260.9614,34 256,34 c -4.9614,0 -8,3.805961 -8,10.020287 0,6.047434 1.08688,8.419366 4.77514,10.420911 3.38271,1.83573 2.79744,1.831189 6.24488,0.04845 z M 328.18867,93.25 c 0.54387,-14.262515 3.21121,-19.350649 13.83497,-26.391108 L 344.5,65.217785 342.36697,62.858892 c -5.92632,-6.553856 -8.08755,-19.162643 -4.9195,-28.70075 C 340.43214,25.172146 350.54924,18 360.24029,18 c 9.33405,0 19.38027,7.330832 22.3663,16.320921 3.11212,9.369698 0.90436,22.037633 -4.97356,28.537971 l -2.13303,2.358893 2.47636,1.641107 c 10.62376,7.040459 13.2911,12.128593 13.83497,26.391108 L 392.22125,104 H 384.11062 376 v -8.565741 c 0,-4.711158 -0.43297,-9.374757 -0.96216,-10.363554 -0.52919,-0.988797 -4.12919,-3.679309 -8,-5.978916 L 360,74.910685 l -7.03784,4.181104 c -3.87081,2.299607 -7.47081,4.990119 -8,5.978916 C 344.43297,86.059502 344,90.723101 344,95.434259 V 104 h -8.11062 -8.11063 z M 363.02002,54.48965 C 366.89455,52.48605 368,50.162074 368,44.020287 368,37.805961 364.9614,34 360,34 c -4.9614,0 -8,3.805961 -8,10.020287 0,6.047434 1.08688,8.419366 4.77514,10.420911 3.38271,1.83573 2.79744,1.831189 6.24488,0.04845 z"
       id="path1" />
  </g>
</svg>
