<?xml version="1.0" encoding="UTF-8" standalone="no"?>
<!-- Created with Inkscape (http://www.inkscape.org/) -->

<svg
   version="1.1"
   id="svg1"
   width="512"
   height="512"
   viewBox="0 0 512 512"
   sodipodi:docname="icon-python.svg"
   inkscape:version="1.3 (0e150ed6c4, 2023-07-21)"
   xml:space="preserve"
   xmlns:inkscape="http://www.inkscape.org/namespaces/inkscape"
   xmlns:sodipodi="http://sodipodi.sourceforge.net/DTD/sodipodi-0.dtd"
   xmlns="http://www.w3.org/2000/svg"
   xmlns:svg="http://www.w3.org/2000/svg"><defs
     id="defs1" /><sodipodi:namedview
     id="namedview1"
     pagecolor="#ffffff"
     bordercolor="#000000"
     borderopacity="0.25"
     inkscape:showpageshadow="2"
     inkscape:pageopacity="0.0"
     inkscape:pagecheckerboard="0"
     inkscape:deskcolor="#d1d1d1"
     inkscape:zoom="0.48925781"
     inkscape:cx="5.1097804"
     inkscape:cy="189.06188"
     inkscape:window-width="1366"
     inkscape:window-height="697"
     inkscape:window-x="-8"
     inkscape:window-y="-8"
     inkscape:window-maximized="1"
     inkscape:current-layer="g1" /><g
     inkscape:groupmode="layer"
     inkscape:label="Image"
     id="g1"><path
       style="fill:#ffdb6e;fill-opacity:1;stroke-width:0.900191"
       d="m 160.54706,493.23427 c -18.51298,-3.71758 -33.68506,-19.27304 -37.24545,-38.18661 -0.68332,-3.62988 -1.21705,-25.82601 -1.21705,-50.6131 V 360.2866 l -33.907154,-0.44667 c -31.689462,-0.41748 -34.338933,-0.62124 -40.508562,-3.11548 -13.943791,-5.63717 -24.988258,-17.49117 -28.922869,-31.04287 -2.478591,-8.53682 -2.478591,-153.09226 0,-161.62908 3.928481,-13.53058 14.919165,-25.34067 28.922869,-31.07923 6.451284,-2.64367 7.807102,-2.71384 59.624846,-3.08594 l 53.02345,-0.38076 0.42486,-38.64012 c 0.40339,-36.687757 0.5603,-38.973665 3.10564,-45.241512 5.67046,-13.963442 17.51012,-24.99028 31.05485,-28.922869 8.53682,-2.478591 153.09226,-2.478591 161.62908,0 13.52672,3.927361 25.32868,14.908107 31.0859,28.922869 2.63671,6.418531 2.72204,7.936933 3.08027,54.814572 l 0.36845,48.21317 33.84476,0.44611 c 31.62551,0.41687 34.27762,0.62111 40.44615,3.11491 13.9438,5.63716 24.98825,17.49116 28.92287,31.04285 2.4786,8.53683 2.4786,153.09227 0,161.62909 -3.92849,13.53057 -14.91917,25.34068 -28.92287,31.07923 -6.45129,2.64368 -7.8071,2.71385 -59.62485,3.08594 l -53.02346,0.38076 -0.41816,38.64011 c -0.38686,35.74735 -0.60411,39.09786 -2.90197,44.75431 -5.54023,13.63786 -14.65766,22.85728 -28.062,28.37587 -6.59585,2.71553 -6.66387,2.71797 -81.01711,2.91194 -40.92865,0.10673 -76.82178,-0.28901 -79.76249,-0.87953 z m 159.04257,-22.15115 c 3.63766,-2.24936 7.25761,-5.86859 9.50695,-9.50511 l 3.6325,-5.87262 0.34788,-38.20497 0.3479,-38.20497 h -48.60163 c -33.56517,0 -49.52233,-0.41952 -51.5776,-1.35596 -4.25391,-1.9382 -6.23572,-7.26652 -4.37422,-11.76059 0.80067,-1.93298 2.35151,-3.95841 3.44631,-4.50095 1.09482,-0.54254 52.26386,-1.25648 113.70901,-1.58656 l 111.71844,-0.60013 5.87468,-3.63249 c 3.64061,-2.25109 7.25608,-5.86684 9.50717,-9.5079 l 3.63249,-5.87541 V 264.0711 187.66675 l -3.63249,-5.87542 c -2.24958,-3.63859 -5.86803,-7.25833 -9.50453,-9.50791 l -5.87205,-3.63248 -33.29486,-0.353 -33.29484,-0.353 -0.47398,29.15909 c -0.43332,26.65814 -0.70157,29.72528 -3.12755,35.76047 -5.33878,13.28148 -14.571,22.44218 -28.31164,28.09233 -5.98658,2.46167 -8.1201,2.52667 -102.23012,3.11427 l -96.11594,0.60013 -5.87388,3.63249 c -3.63865,2.25018 -7.25621,5.86802 -9.5064,9.50711 l -3.63248,5.87461 -0.36061,83.51256 c -0.23937,55.43764 0.0599,84.96054 0.89035,87.81981 2.06367,7.10567 7.68457,13.68946 14.65126,17.16111 l 6.39892,3.18872 75.12325,-0.32601 75.12323,-0.32602 z m -42.71809,-27.27404 c -5.76487,-2.90704 -10.75654,-10.56565 -10.75654,-16.50349 0,-1.70067 1.21525,-5.50205 2.70057,-8.44751 2.90706,-5.76486 10.56565,-10.75655 16.50349,-10.75655 1.70066,0 5.50205,1.21526 8.44751,2.70057 5.76487,2.90706 10.75655,10.56567 10.75655,16.50349 0,5.93784 -4.99168,13.59645 -10.75655,16.50349 -2.94546,1.48531 -6.74685,2.70057 -8.44751,2.70057 -1.70066,0 -5.50205,-1.21526 -8.44752,-2.70057 z M 122.33318,311.78119 c 0.41477,-25.86731 0.74006,-29.78653 2.92325,-35.22034 5.45697,-13.58199 14.61413,-22.85058 28.03473,-28.37587 l 6.60139,-2.71781 96.11594,-0.60012 96.11593,-0.60014 5.8739,-3.63249 c 3.63938,-2.25064 7.25574,-5.86758 9.50638,-9.5079 l 3.6325,-5.87542 V 139.24472 53.238339 l -3.6325,-5.875416 c -2.25152,-3.641748 -5.86615,-7.256384 -9.5079,-9.507905 l -5.87541,-3.632489 h -76.40436 -76.40435 l -5.87542,3.632489 c -3.63913,2.249904 -7.25799,5.867708 -9.5079,9.505108 l -3.6325,5.872619 -0.34789,38.204973 -0.34788,38.204972 h 48.60162 c 33.56518,0 49.52234,0.41951 51.57761,1.35596 4.25391,1.93821 6.23571,7.26652 4.3742,11.76059 -0.80066,1.93298 -2.3515,3.95842 -3.44631,4.50095 -1.0948,0.54254 -52.26384,1.25649 -113.70899,1.58657 l -111.718453,0.60012 -5.874675,3.63249 c -3.639681,2.25051 -7.256643,5.8674 -9.507167,9.50692 l -3.63249,5.87443 -0.362127,73.91071 c -0.239317,48.8449 0.06263,75.37146 0.890342,78.21797 2.060314,7.08548 7.688564,13.69071 14.600695,17.13516 l 6.346854,3.16277 H 89.804346 121.86648 Z M 219.25937,98.136036 C 213.4945,95.228979 208.50283,87.57038 208.50283,81.632547 c 0,-1.700666 1.21526,-5.502049 2.70057,-8.447518 2.90705,-5.764865 10.56564,-10.756541 16.50348,-10.756541 5.93784,0 13.59644,4.991676 16.50349,10.756541 1.48532,2.945469 2.70058,6.746852 2.70058,8.447518 0,5.937833 -4.99168,13.596432 -10.75655,16.503489 -2.94547,1.485311 -6.74685,2.700564 -8.44752,2.700564 -1.70067,0 -5.50204,-1.215253 -8.44751,-2.700564 z"
       id="path1" /></g></svg>
