<?xml version="1.0" encoding="UTF-8" standalone="no"?>
<!-- Created with Inkscape (http://www.inkscape.org/) -->

<svg
   version="1.1"
   id="svg1"
   width="341.33334"
   height="341.33334"
   viewBox="0 0 341.33334 341.33334"
   sodipodi:docname="icon-predicao.svg"
   inkscape:version="1.3 (0e150ed6c4, 2023-07-21)"
   xmlns:inkscape="http://www.inkscape.org/namespaces/inkscape"
   xmlns:sodipodi="http://sodipodi.sourceforge.net/DTD/sodipodi-0.dtd"
   xmlns="http://www.w3.org/2000/svg"
   xmlns:svg="http://www.w3.org/2000/svg">
  <defs
     id="defs1" />
  <sodipodi:namedview
     id="namedview1"
     pagecolor="#ffffff"
     bordercolor="#000000"
     borderopacity="0.25"
     inkscape:showpageshadow="2"
     inkscape:pageopacity="0.0"
     inkscape:pagecheckerboard="0"
     inkscape:deskcolor="#d1d1d1"
     inkscape:zoom="0.51893626"
     inkscape:cx="-135.85483"
     inkscape:cy="93.460418"
     inkscape:window-width="1366"
     inkscape:window-height="697"
     inkscape:window-x="-8"
     inkscape:window-y="-8"
     inkscape:window-maximized="1"
     inkscape:current-layer="g1" />
  <g
     inkscape:groupmode="layer"
     inkscape:label="Image"
     id="g1">
    <path
       style="fill:#ffbc5e;fill-opacity:1"
       d="m 149.33334,318.52072 v -5.33334 H 154.66667 160 v 5.33334 5.33333 h -5.33333 -5.33333 z m -83.6547,-1.66667 c -0.723,-0.91667 -6.22599,-15.4462 -12.22888,-32.28784 -6.00288,-16.84165 -11.08684,-30.79369 -11.29769,-31.00454 -0.21085,-0.21084 -4.78415,9.36869 -10.1629,21.28785 C 26.61043,286.76868 21.74585,297.05733 21.179,297.7132 20.03101,299.04147 12,296.18803 12,294.45189 c 0,-2.80691 26.64089,-59.37814 28.52133,-60.56429 1.46264,-0.92261 2.85924,-0.90293 4.38876,0.0619 1.29872,0.81921 6.77304,14.1469 13,31.64955 5.91612,16.62893 11.07323,30.23906 11.46025,30.24473 0.38702,0.006 9.14408,-23.2103 19.46013,-51.59103 10.95768,-30.14593 19.67392,-52.18006 20.963,-52.99319 1.5206,-0.95917 2.88522,-0.96374 4.38977,-0.0147 1.20079,0.75743 6.00313,11.85436 10.67187,24.65985 4.66875,12.80548 8.80723,24.13631 9.19661,25.17962 0.548,1.4683 1.15713,1.25568 2.69571,-0.94094 1.79189,-2.55829 1.72163,-3.33436 -0.71318,-7.87719 -5.04308,-9.40929 -2.64552,-19.93382 6.05278,-26.56971 4.0464,-3.08698 6.38905,-3.84242 11.91542,-3.84242 3.83159,0 6.88048,-0.60885 6.88261,-1.37443 0.002,-0.75593 1.06961,-3.001 2.37222,-4.98904 2.33411,-3.56229 2.42417,-3.58166 6.22222,-1.3381 4.45065,2.62906 4.55973,3.13562 1.81726,8.43896 -1.90972,3.693 -1.84743,4.19414 1,8.0455 4.67935,6.32916 4.30263,17.7648 -0.80585,24.46237 -4.78479,6.27318 -11.58737,9.28292 -18.78527,8.31137 -5.3657,-0.72424 -5.37928,-0.71457 -11.04756,7.85912 -5.64864,8.54399 -9.12458,10.55296 -11.96888,6.91758 -0.71719,-0.91667 -4.8211,-11.41667 -9.1198,-23.33333 -4.2987,-11.91667 -8.15154,-21.66667 -8.56187,-21.66667 -0.41032,0 -9.06603,22.95 -19.2349,51 -10.16887,28.05 -19.07617,51.75 -19.794,52.66667 -0.71783,0.91667 -2.35821,1.66667 -3.6453,1.66667 -1.28708,0 -2.93169,-0.75 -3.65469,-1.66667 z m 96.38197,-86.9394 c 2.06298,-2.06298 3.27273,-4.79611 3.27273,-7.39394 0,-2.59783 -1.20975,-5.33095 -3.27273,-7.39394 -2.06298,-2.06298 -4.79611,-3.27272 -7.39394,-3.27272 -2.59783,0 -5.33096,1.20974 -7.39394,3.27272 -2.06298,2.06299 -3.27273,4.79611 -3.27273,7.39394 0,2.59783 1.20975,5.33096 3.27273,7.39394 2.06298,2.06299 4.79611,3.27273 7.39394,3.27273 2.59783,0 5.33096,-1.20974 7.39394,-3.27273 z m 151.8479,84.42913 c -1.78569,-3.45315 -1.84939,-4.38505 -0.36757,-5.37798 3.61744,-2.42397 6.69589,-3.98312 7.01539,-3.55311 2.35516,3.16981 4.77701,7.24447 4.77701,8.03713 0,0.92968 -6.99571,5.0709 -8.56621,5.0709 -0.38425,0 -1.67063,-1.87962 -2.85862,-4.17694 z m -164.57517,-17.1564 v -5.33333 H 154.66667 160 v 5.33333 5.33334 h -5.33333 -5.33333 z m 153.93593,-1.45724 c -1.17291,-2.26815 -1.93832,-4.24974 -1.70091,-4.40355 7.36092,-4.7687 8.13183,-5.04026 9.31069,-3.27984 4.10171,6.12517 4.17394,6.83674 0.94595,9.31916 -4.43645,3.41176 -6.11112,3.09158 -8.55573,-1.63577 z m -71.01663,-12.3149 c -0.67768,-0.85865 -1.90397,-2.8572 -2.72509,-4.44121 -1.31146,-2.52992 -0.97326,-3.20906 2.78215,-5.58682 l 4.2751,-2.7068 2.36548,3.58682 c 3.19939,4.85127 3.01013,5.88713 -1.54965,8.48134 -2.93637,1.67061 -4.22404,1.83736 -5.14799,0.66667 z m -82.9193,-7.56119 v -5.33334 H 154.66667 160 v 5.33334 5.33333 h -5.33333 -5.33333 z m 143.26926,1.20942 c -1.1729,-2.26814 -1.93831,-4.29184 -1.70091,-4.49709 0.23741,-0.20526 2.27559,-1.31006 4.52928,-2.45512 4.04253,-2.05392 4.13047,-2.02634 6.53925,2.05141 2.41376,4.08617 2.40715,4.16125 -0.57867,6.57902 -4.26455,3.45322 -6.34035,3.05685 -8.78895,-1.67822 z m -72.37919,-8.20942 c -1.39822,-5.10803 -0.81496,-6.01502 4.5593,-7.08988 3.70793,-0.74158 4.14895,-0.42778 5.4761,3.89648 1.39383,4.54152 1.30433,4.75149 -2.60667,6.11487 -5.78305,2.01598 -6.11267,1.88636 -7.42873,-2.92147 z m 28.59661,1.04691 c -1.18434,-1.80753 -2.15335,-3.77817 -2.15335,-4.37919 0,-1.14748 7.95754,-6.26554 8.49586,-5.4643 2.18283,3.24893 4.83748,7.84875 4.83748,8.38209 0,0.65785 -7.27669,4.74782 -8.44711,4.74782 -0.31874,0 -1.54854,-1.47889 -2.73288,-3.28642 z m 18.66667,-10.66667 c -1.18434,-1.80753 -2.15335,-3.89212 -2.15335,-4.63242 0,-1.27459 7.93489,-6.09414 8.52746,-5.17947 3.29191,5.08137 4.93143,8.0613 4.57908,8.32279 -3.02779,2.247 -7.21939,4.77552 -7.91653,4.77552 -0.48583,0 -1.85232,-1.47889 -3.03666,-3.28642 z m 14.5138,-0.71264 c -2.03815,-3.94136 -2.00586,-4.03686 2.23793,-6.61766 l 4.30592,-2.61859 2.38572,3.61766 c 3.19596,4.8463 3.02453,6.23989 -0.99279,8.0703 -4.89006,2.22806 -5.63592,1.99766 -7.93678,-2.45171 z m -132.66715,-4.00094 v -5.33333 H 154.66667 160 v 5.33333 5.33334 h -5.33333 -5.33333 z m 65.27167,-4.82885 c -0.69942,-1.83961 -1.27167,-4.10502 -1.27167,-5.03424 0,-1.79941 8.9789,-5.15524 9.84189,-3.67837 0.77879,1.33276 2.43225,9.54146 1.92191,9.54146 -0.24644,0 -2.42186,0.56608 -4.83427,1.25795 -3.99242,1.14501 -4.50036,0.95767 -5.65786,-2.0868 z m -6.47457,-22.03678 c -0.80507,-2.30943 -1.46377,-4.3629 -1.46377,-4.56326 0,-0.61889 9.48846,-3.53248 9.8914,-3.03733 0.20866,0.25642 1.04547,2.43981 1.85958,4.85198 1.37731,4.08093 1.24603,4.47478 -1.88886,5.66667 -5.38949,2.04908 -6.84283,1.5441 -8.39835,-2.91806 z m -5.48508,-19.19042 c -2.09784,-5.51774 -1.58046,-6.89026 2.93798,-7.79395 4.82149,-0.9643 5.86935,-0.26968 7.09702,4.70454 0.94528,3.83006 0.4947,4.33644 -5.035,5.65854 -3.13008,0.74837 -3.88645,0.35973 -5,-2.56913 z m -53.31202,-17.94395 v -5.33333 H 154.66667 160 v 5.33333 5.33334 h -5.33333 -5.33333 z m 47.44145,-2.0439 c -0.41987,-1.67293 -1.10176,-3.92341 -1.51529,-5.00106 -0.49906,-1.30052 0.35406,-2.23694 2.53711,-2.78485 1.80895,-0.45401 4.17071,-1.16383 5.24836,-1.57736 1.30052,-0.49906 2.23693,0.35406 2.78485,2.53711 0.45401,1.80895 1.16101,4.16338 1.57111,5.23208 0.53429,1.39232 -0.75781,2.3247 -4.55854,3.28942 -4.9395,1.25378 -5.35667,1.13722 -6.0676,-1.69534 z m -22.44145,-4.05206 c -2.01667,-1.09406 -3.66667,-2.29115 -3.66667,-2.6602 0,-0.52892 2.25278,-4.43651 4.8141,-8.35038 0.23031,-0.35191 3.24475,1.31431 8.28422,4.57909 0.75829,0.49125 -3.79417,8.52962 -4.79922,8.47407 -0.53117,-0.0294 -2.61576,-0.94852 -4.63243,-2.04258 z m -25,-15.23737 v -5.33334 H 154.66667 160 v 5.33334 5.33333 h -5.33333 -5.33333 z m 37.11601,-2.21771 -6.21732,-3.35644 2.67178,-4.52835 c 2.38222,-4.03756 2.9838,-4.36068 5.55066,-2.98139 1.58338,0.85082 4.66251,1.91401 6.84251,2.36264 3.02152,0.62181 4.25737,1.83989 5.19942,5.12461 1.4391,5.01784 1.41224,5.05999 -3.82973,6.01025 -2.786,0.50505 -5.88696,-0.29356 -10.21732,-2.63132 z m 57.55066,1.38044 c -27.96076,-5.3735 -50.27686,-25.06397 -59.49616,-52.49607 -3.42314,-10.18556 -3.41681,-32.513777 0.0121,-42.666667 8.34388,-24.705995 25.50995,-41.86659 50.15072,-50.134744 10.84139,-3.637801 31.11179,-3.440639 43.38871,0.422024 31.33187,9.857886 51.94463,38.050502 51.94463,71.04605 0,40.657207 -30.62397,72.437777 -71.33334,74.027447 -6.23333,0.24341 -12.83333,0.15429 -14.66666,-0.19804 z m 27.27793,-11.87099 c 22.99627,-5.98977 40.71069,-23.7609 46.73318,-46.88281 8.63609,-33.156209 -12.5871,-68.140091 -46.73318,-77.034015 -33.36454,-8.690357 -68.31625,12.433935 -77.23634,46.680488 -11.88384,45.625117 31.61122,89.120167 77.23634,77.236337 z m -8.3446,-15.55841 c -1.04545,-1.04545 -1.6,-6.55423 -1.6,-15.89406 v -14.29406 l -3.90787,-0.85831 c -2.14933,-0.47207 -4.62279,-1.71975 -5.49659,-2.77261 -0.8738,-1.05286 -3.77414,-1.91429 -6.44521,-1.91429 -2.67107,0 -6.9476,-1.11208 -9.50341,-2.47129 -2.55581,-1.3592 -6.79182,-2.866678 -9.41337,-3.349938 -2.74446,-0.50591 -6.42098,-2.6056 -8.66667,-4.949599 -3.21102,-3.35158 -3.90021,-5.20878 -3.90021,-10.51008 0,-4.26141 0.78913,-7.311119 2.33333,-9.017437 1.28333,-1.418067 2.33333,-4.540383 2.33333,-6.938478 0,-11.216332 9.31645,-20.63276 20.74318,-20.965786 3.82338,-0.11143 8.40164,-1.152703 10.17391,-2.313939 8.08712,-5.298885 18.64755,-4.2679 25.84855,2.523522 2.6635,2.512001 6.13084,4.957706 7.70521,5.434901 4.8575,1.472319 11.05083,6.85709 13.27316,11.540298 1.5956,3.362488 2.03362,7.831368 1.77266,18.085439 -0.33838,13.29564 -0.44735,13.72333 -4.58374,17.991007 -3.74159,3.86034 -4.64483,6.39306 -7.72334,21.65649 -1.91743,9.50669 -4.09745,18.03489 -4.8445,18.95155 -1.75183,2.14958 -15.96316,2.20193 -18.09842,0.0667 z m 13.6163,-27.06667 c 1.922,-9.53333 4.07657,-17.530658 4.78795,-17.771827 0.71137,-0.24118 2.64347,-1.53172 4.29355,-2.86787 2.77613,-2.24797 2.87176,-2.78439 1.28075,-7.18424 -1.24122,-3.43253 -1.329,-5.48432 -0.31563,-7.37781 3.60449,-6.73507 -1.33683,-16.131587 -8.48308,-16.131587 -1.83775,0 -4.11502,-0.957122 -5.0606,-2.126937 -7.85153,-9.713445 -12.76973,-11.038357 -19.31155,-5.202325 l -3.74102,3.337404 3,2.542986 c 2.11186,1.790149 3,4.002729 3,7.473807 0,4.709899 -0.16428,4.890214 -3.66667,4.024512 -4.93707,-1.220321 -10.68146,-6.897167 -11.70782,-11.570169 -1.03852,-4.728345 -3.70924,-4.850098 -8.18614,-0.373192 -2.99475,2.994745 -3.33545,4.197951 -2.63526,9.306444 0.70459,5.14054 0.37876,6.261483 -2.63137,9.052637 -3.67959,3.41191 -3.8278,7.08345 -0.37373,9.25832 1.66828,1.05045 3.11916,0.29376 6.66667,-3.47691 2.49387,-2.65076 6.18432,-5.20569 8.20098,-5.67761 3.51591,-0.82277 3.66667,-0.64601 3.66667,4.29909 0,3.74586 -0.74391,5.62173 -2.7184,6.85482 -4.29919,2.68489 -1.6879,4.69528 4.9219,3.7893 5.13823,-0.70427 6.21246,-0.38739 8.80852,2.598329 2.4531,2.82131 3.71449,3.25824 7.40671,2.56558 7.44145,-1.39603 8.24794,0.33561 8.24794,17.709398 0,8.46576 0.2374,15.1423 0.52755,14.83674 0.29015,-0.30555 2.10009,-8.35555 4.02208,-17.88889 z m -5.2163,-20.605367 c -3.89037,-1.60917 -8.33367,-6.84944 -9.37904,-11.0613 -0.86476,-3.48421 -0.67365,-3.66667 3.84056,-3.66667 6.40603,0 11.53848,5.06816 11.53848,11.39394 0,4.76876 -1.0802,5.36899 -6,3.33403 z m -122,54.605367 v -5.33333 H 154.66667 160 v 5.33333 5.33334 h -5.33333 -5.33333 z m 0,-21.33333 v -5.33333 H 154.66667 160 v 5.33333 5.33333 h -5.33333 -5.33333 z m 0,-21.33333 V 99.854042 H 154.66667 160 v 5.333338 5.33333 h -5.33333 -5.33333 z m 0,-21.333337 v -5.33334 H 154.66667 160 v 5.33334 5.33333 h -5.33333 -5.33333 z m 0,-21.333337 V 57.187373 H 154.66667 160 v 5.333333 5.333334 h -5.33333 -5.33333 z m 0,-21.333334 V 35.854039 H 154.66667 160 v 5.333333 5.333334 h -5.33333 -5.33333 z m 0,-21.333334 V 14.520705 H 154.66667 160 v 5.333333 5.333334 h -5.33333 -5.33333 z"
       id="path1" />
  </g>
</svg>
