<?xml version="1.0" encoding="UTF-8" standalone="no"?>
<!-- Created with Inkscape (http://www.inkscape.org/) -->

<svg
   version="1.1"
   id="svg1"
   width="1920"
   height="1920"
   viewBox="0 0 1920 1920"
   sodipodi:docname="icon-dashboard.svg"
   inkscape:version="1.3 (0e150ed6c4, 2023-07-21)"
   xmlns:inkscape="http://www.inkscape.org/namespaces/inkscape"
   xmlns:sodipodi="http://sodipodi.sourceforge.net/DTD/sodipodi-0.dtd"
   xmlns="http://www.w3.org/2000/svg"
   xmlns:svg="http://www.w3.org/2000/svg">
  <defs
     id="defs1" />
  <sodipodi:namedview
     id="namedview1"
     pagecolor="#ffffff"
     bordercolor="#000000"
     borderopacity="0.25"
     inkscape:showpageshadow="2"
     inkscape:pageopacity="0.0"
     inkscape:pagecheckerboard="0"
     inkscape:deskcolor="#d1d1d1"
     inkscape:zoom="0.13046875"
     inkscape:cx="961.91617"
     inkscape:cy="1567.4251"
     inkscape:window-width="1366"
     inkscape:window-height="697"
     inkscape:window-x="-8"
     inkscape:window-y="-8"
     inkscape:window-maximized="1"
     inkscape:current-layer="g1" />
  <g
     inkscape:groupmode="layer"
     inkscape:label="Image"
     id="g1">
    <path
       style="fill:#ffdb6e;fill-opacity:1"
       d="m 150.5,1613.3916 c -18.07215,-4.3522 -36.20888,-18.834 -44.32388,-35.3916 -2.29125,-4.675 -4.9557,-11.425 -5.92101,-15 C 98.590857,1556.8365 98.5,1525.6209 98.5,960 c 0,-565.62085 0.09086,-596.83649 1.75511,-603 3.34444,-12.38605 9.21795,-22.56712 18.13491,-31.43482 9.00574,-8.956 15.83153,-13.38816 26.77506,-17.38577 L 152.5,305.5 H 960 1767.5 l 7.3349,2.67941 c 10.9436,3.99761 17.7693,8.42977 26.7751,17.38577 8.9169,8.8677 14.7905,19.04877 18.1349,31.43482 1.6642,6.16351 1.7551,37.37915 1.7551,603 0,565.6209 -0.091,596.8365 -1.7551,603 -3.3597,12.4424 -9.2668,22.6738 -18.1797,31.4876 -9.0367,8.9363 -15.8653,13.3643 -26.7306,17.3332 L 1767.5,1614.5 962,1614.6683 c -699.32708,0.146 -806.29086,-0.022 -811.5,-1.2767 z m 1615.1233,-40.5943 c 6.3813,-3.3662 12.7331,-10.4601 14.8016,-16.5309 1.4265,-4.1865 1.5751,-60.459 1.5751,-596.40703 l 0,-591.78434 -2.0318,-5.43039 c -2.2778,-6.08803 -9.1994,-13.33025 -15.6148,-16.33803 C 1760.6476,344.56918 1729.8472,344.5 960,344.5 H 159.5 l -5.12335,2.70267 c -6.38129,3.36625 -12.733,10.46009 -14.80155,16.53094 C 138.14862,367.92011 138,424.17999 138,960 c 0,535.82 0.14862,592.0799 1.5751,596.2664 2.87243,8.4301 11.96991,16.6024 20.9249,18.7969 1.65,0.4043 362.325,0.668 801.5,0.5859 L 1760.5,1575.5 Z M 279.5,1479.1655 c -15.22267,-7.237 -15.26785,-27.5833 -0.0786,-35.3706 2.99341,-1.5347 5.27941,-1.9123 9.65956,-1.5954 24.2299,1.7526 24.3019,37.0681 0.0786,38.5268 -4.05474,0.2442 -6.79381,-0.1984 -9.65957,-1.5608 z m 79.70372,-0.2883 c -14.15128,-7.0225 -14.31326,-27.1599 -0.27803,-34.5625 l 4.4257,-2.3342 147.64748,0.2598 147.64749,0.2597 4.15707,2.7511 c 8.16855,5.4059 10.96704,16.6222 6.36171,25.4978 -1.2462,2.4017 -4.01189,5.4449 -6.36171,7 l -4.15707,2.7511 -147.57318,0.2546 L 363.5,1481.0092 Z M 840.5,1479.6073 c -4.16496,-1.8248 -9.23536,-7.2754 -10.59204,-11.3862 -0.62537,-1.8949 -0.93838,-5.8408 -0.69557,-8.7687 0.50916,-6.1398 3.34534,-10.9243 8.62063,-14.5426 3.38561,-2.3222 4.25157,-2.421 23.81388,-2.7168 l 20.3005,-0.3069 0.2763,-69.1931 0.2763,-69.193 2.79009,-5.6816 c 3.16099,-6.4369 8.00593,-11.1343 14.6591,-14.2127 4.43511,-2.0522 5.82201,-2.1057 54.55081,-2.1057 48.7288,0 50.1157,0.053 54.5508,2.1057 6.6532,3.0784 11.4981,7.7758 14.6591,14.2127 l 2.7901,5.6816 0.2764,69.2687 0.2764,69.2687 22.7236,-0.2687 22.7236,-0.2687 0.5,-123 0.5,-123 2.3084,-4.6864 c 2.7705,-5.6244 8.7599,-11.259 15.0692,-14.1763 4.5245,-2.092 5.6707,-2.1373 54.1224,-2.1373 48.4517,0 49.5979,0.045 54.1224,2.1373 6.6347,3.0678 12.3967,8.6836 15.5978,15.2022 l 2.7798,5.6605 0.273,122.25 0.273,122.25 h 22.477 22.477 v -94.9625 c 0,-92.6401 0.049,-95.0937 2.008,-100.3293 2.7231,-7.2783 7.8974,-13.0235 14.7678,-16.3973 L 1285.5,1227.5 h 50 50 l 5.6816,2.7901 c 6.4369,3.161 11.1343,8.0059 14.2127,14.6591 2.0886,4.5139 2.1079,5.3323 2.3752,100.8195 l 0.2694,96.2687 22.7306,-0.2687 22.7305,-0.2687 0.5,-150 0.5,-150 2.3396,-4.5 c 4.6489,-8.9417 11.5879,-14.0642 21.6604,-15.9901 4.1318,-0.7901 20.1668,-1.048 51.5,-0.8286 l 45.5,0.3187 5.6605,2.7798 c 6.5186,3.2011 12.1344,8.9631 15.2022,15.5978 l 2.1373,4.6224 0.2691,149.25 0.269,149.25 h 19.0208 c 21.1283,0 23.9689,0.679 29.289,7.0016 7.9019,9.3908 4.4399,25.0137 -6.6596,30.053 -4.0937,1.8585 -13.1487,1.9011 -400.6883,1.8843 -325.34743,-0.014 -397.03835,-0.2531 -399.5,-1.3316 z M 987.75781,1381.25 988.01561,1321 H 955.00781 922 v 60.5137 60.5136 l 32.75,-0.2636 32.75,-0.2637 z M 1178,1328 v -114 h -33 -33 v 114 114 h 33 33 z m 190.5,26.5 v -87 l -33.25,-0.2635 -33.25,-0.2635 v 86.8469 c 0,47.7657 0.306,87.1528 0.6801,87.5269 0.3741,0.374 15.3366,0.5615 33.25,0.4166 L 1368.5,1441.5 Z M 1559,1301 v -141 h -33 -33 v 141 141 h 33 33 z m -1279.5,39.4274 c -15.09192,-7.8492 -15.11619,-28.7002 -0.0414,-35.5477 13.06072,-5.9327 27.62498,3.1487 27.75218,17.3046 0.051,5.6741 -2.36613,11.84 -5.891,15.0276 -5.10411,4.6156 -16.03143,6.226 -21.81981,3.2155 z m 79.30367,-0.468 c -7.5301,-3.9769 -12.00589,-13.781 -9.88577,-21.6545 1.58946,-5.9028 5.01864,-10.3588 9.98938,-12.9804 L 363.31457,1303 h 146.52699 146.52699 l 4.42914,2.1441 c 4.9263,2.3848 9.56626,8.6519 10.63896,14.3699 1.41033,7.5177 -3.27828,16.6349 -10.40661,20.236 l -4.45382,2.25 -147.03811,-0.044 c -143.86319,-0.043 -147.11792,-0.086 -150.73444,-1.9964 z m 589.88131,-126.9763 c -10.65709,-3.1988 -16.53673,-16.1544 -12.14681,-26.7652 2.11432,-5.1105 192.21033,-195.41069 198.02753,-198.24027 4.7303,-2.30086 11.1396,-2.55235 15.7164,-0.61668 1.7699,0.74852 42.929,25.93195 91.4647,55.96315 48.5358,30.0311 89.1378,55.0789 90.2267,55.6617 2.1218,1.1356 -4.1586,6.2947 95.0265,-78.0599 85.9965,-73.13793 88.9781,-75.60276 92.8614,-76.76624 5.8323,-1.74739 9.2196,-1.42195 14.9568,1.43701 3.7019,1.84477 5.9089,3.79933 7.6218,6.75 5.4303,9.35451 4.2251,17.35298 -3.7931,25.17323 -2.8308,2.76094 -36.1824,31.3359 -74.1146,63.5 -37.9323,32.1641 -80.0073,67.8766 -93.5,79.3613 -13.4928,11.4847 -25.9803,21.4972 -27.7502,22.25 -3.7897,1.6121 -11.052,1.787 -14.8136,0.3568 -1.4639,-0.5566 -13.0807,-7.4624 -25.8151,-15.3464 -41.0226,-25.3974 -154.1098,-95.2806 -155.5135,-96.1009 -0.9693,-0.5664 -27.4104,25.2276 -92,89.7485 -78.2927,78.2093 -91.18479,90.6902 -94.6399,91.6215 -4.61677,1.2444 -7.84466,1.2642 -11.81502,0.072 z M 573,1090.4203 c -1.925,-0.2205 -8.45,-0.898 -14.5,-1.5054 -58.86989,-5.911 -116.62456,-29.5756 -166.35088,-68.161 C 378.51792,1010.1767 350.85905,982.67436 339.5978,968.5 251.03943,857.03296 244.16322,703.30588 322.44557,585.03839 327.01017,578.14227 334.48579,567.775 339.05807,562 c 10.42871,-13.17197 38.39689,-41.27302 50.94577,-51.18782 48.27774,-38.14395 101.69015,-60.97133 162.24171,-69.33882 16.15715,-2.23272 50.46041,-3.01483 67.86595,-1.54734 158.86958,13.39458 284.12638,137.273 298.86282,295.57398 1.3118,14.09145 1.3166,44.8284 0.009,59 -11.29255,122.40827 -90.6823,228.2069 -205.48354,273.8374 -24.29667,9.6573 -49.69101,16.1763 -78.55577,20.1662 -10.8161,1.4951 -53.96895,2.8303 -61.94423,1.9167 z m 55,-41.0193 C 715.55368,1039.1507 793.79224,988.52425 839.77723,912.36461 900.03085,812.57347 893.28324,685.39685 822.80119,592.40605 759.20448,508.49947 655.07166,465.89733 551.68776,481.48989 503.26963,488.7924 457.69792,508.4047 418,539.02392 406.51125,547.88526 378.88457,575.27721 369.6128,587 c -30.98112,39.17109 -51.09246,85.74598 -59.15749,137 -2.51709,15.99638 -3.09266,54.91376 -1.07008,72.35439 7.43497,64.11151 34.67553,121.81303 79.08753,167.52485 15.63767,16.09534 28.53949,26.87041 47.02724,39.27526 56.72694,38.0623 124.11759,54.2523 192.5,46.2465 z m -56.5,-50.07381 c -13.93546,-1.73331 -26.03805,-3.9722 -37.34285,-6.90816 -94.25181,-24.478 -164.13777,-106.42054 -174.25025,-204.31152 -2.49715,-24.17296 0.006,-57.26497 6.15131,-81.33548 C 390.10728,612.58113 471.18049,542.00698 568,530.98191 c 13.61097,-1.54991 42.62486,-1.27676 56.58818,0.53275 77.83209,10.08628 146.31953,59.30495 180.87372,129.98534 14.02915,28.69654 21.09001,55.16545 23.56954,88.35461 1.69949,22.74827 -0.64677,48.74073 -6.51237,72.14539 -10.23909,40.85559 -29.8576,75.94191 -59.47183,106.36113 -20.82028,21.38623 -38.87954,34.52773 -65.54724,47.69792 -24.68551,12.19125 -51.25634,20.01688 -77.71059,22.8873 -9.00461,0.97705 -41.43945,1.23285 -48.28941,0.38084 z m 39.8564,-39.35835 c 37.65538,-3.5708 72.36744,-17.10456 102.1436,-39.8244 9.02233,-6.88423 26.93323,-24.61145 33.99306,-33.64444 22.21614,-28.42539 35.89373,-60.65809 41.05479,-96.75 l 0.67924,-4.75 h -93.86071 -93.8607 l -65.25284,65.24714 C 500.36378,886.13306 471,915.89595 471,916.38689 c 0,1.10857 1.05161,1.92467 13.65452,10.59653 27.66839,19.03816 58.85494,29.95278 95.34548,33.36885 7.95604,0.74481 21.16153,0.58333 31.3564,-0.38343 z M 509.25448,822.23805 574.98839,756.47609 574.7442,663.48805 574.5,570.5 l -5,0.30452 c -14.30485,0.87121 -40.04989,8.23145 -57.79067,16.52176 -44.96848,21.01389 -80.81406,58.81962 -99.19342,104.61763 -20.33548,50.67231 -18.8458,105.24226 4.26241,156.14037 5.57962,12.28965 23.36098,39.86102 25.73197,39.89938 0.55565,0.009 30.59054,-29.57654 66.74419,-65.74561 z M 788.57106,740.25 C 780.48166,681.67786 748.21684,630.96641 699,599.46881 c -10.08902,-6.45673 -31.44718,-16.65639 -42.5,-20.29601 -9.55608,-3.14675 -28.52496,-7.57109 -37.25,-8.68826 L 614,569.81232 V 657.40616 745 h 87.61354 87.61355 z m 473.55584,43.25226 c -14.1978,-4.42824 -18.3338,-21.55852 -7.7585,-32.13384 16.3049,-16.30484 41.7895,3.4597 30.493,23.64876 -2.2415,4.00609 -6.9928,7.58653 -11.9565,9.01009 -4.2479,1.21828 -5.3628,1.16397 -10.778,-0.52501 z M 1343,783.83344 c -5.0244,-1.43979 -9.6972,-5.31954 -12.1151,-10.05897 -3.1636,-6.20116 -2.3735,-15.36548 1.7661,-20.48728 1.6836,-2.08295 4.5883,-4.68719 6.455,-5.78719 3.3467,-1.97212 5.4348,-2.00367 149.7755,-2.26312 l 146.3814,-0.26313 5.2091,2.38479 c 2.865,1.31164 6.1651,3.72751 7.3337,5.3686 2.8807,4.04563 4.6381,11.09381 3.8343,15.37832 -0.975,5.19694 -5.4037,11.38719 -10.0537,14.0524 L 1637.5,784.5 1492,784.6682 c -94.8051,0.10959 -146.7195,-0.18125 -149,-0.83476 z M 1262.8426,645.02531 C 1250.7804,641.3813 1244.8739,627.93845 1250.529,617 c 5.981,-11.56891 22.6753,-13.79516 31.6111,-4.21547 6.3377,6.79437 7.3354,13.94381 3.1099,22.28616 -2.2982,4.53724 -3.6421,5.88115 -8.1793,8.17931 -5.4699,2.77054 -9.3366,3.25301 -14.2281,1.77531 z m 78.8126,-0.47878 c -18.0845,-6.47239 -16.4337,-32.87698 2.3448,-37.50523 3.2176,-0.79302 45.6798,-1.02819 149,-0.8252 l 144.5,0.2839 4.6758,2.74867 c 6.1609,3.62168 10.3324,11.5503 9.5816,18.21139 -0.7567,6.71296 -3.7925,11.63879 -9.2694,15.03994 l -4.8308,3 -146.0786,0.21129 c -121.8669,0.17627 -146.7159,-0.0168 -149.9234,-1.16476 z m -82.4197,-140.06819 c -12.2434,-6.21341 -14.5561,-22.22091 -4.5748,-31.66472 3.7109,-3.51109 7.3468,-4.81362 13.4365,-4.81362 6.4334,0 10.6719,1.83409 14.6139,6.32371 5.6479,6.43259 6.5752,13.37154 2.855,21.36192 -4.7576,10.21816 -16.0749,13.99741 -26.3306,8.79271 z m 81.2645,0.63285 c -7.6053,-3.53454 -11.5,-9.5319 -11.5,-17.70841 0,-8.01185 3.5586,-14.11435 10.2102,-17.50919 3.5909,-1.83272 8.4379,-1.89359 150.7821,-1.89359 121.2617,0 147.6394,0.2371 150.3054,1.35104 4.1315,1.72625 9.143,7.42414 10.7125,12.17978 2.5161,7.62409 -0.86,16.97128 -7.9352,21.96918 l -4.2469,3 -147.1641,0.2351 c -141.6141,0.22623 -147.3148,0.16499 -151.164,-1.62391 z"
       id="path1" />
  </g>
</svg>
