<svg width="64" height="64" xmlns="http://www.w3.org/2000/svg">

 <g>
  <title>background</title>
  <rect fill="none" id="canvas_background" height="402" width="582" y="-1" x="-1"/>
 </g>
 <g>
  <title>Layer 1</title>
  <path id="svg_2" fill="#ffbc5e" d="m51.44,10l-23.44,0l0,0.081c-2.126,-1.909 -4.925,-3.081 -8,-3.081c-6.617,0 -12,5.383 -12,12c0,4.314 2.284,8.238 6,10.383l0,1.617l-2,0l0,2l2,0l0,4l5,0l0,26l44,0l0,-40.389l-11.56,-12.611zm0.56,3.571l7.727,8.429l-7.727,0l0,-8.429zm-36.544,14.327c-3.366,-1.721 -5.456,-5.131 -5.456,-8.898c0,-5.514 4.486,-10 10,-10s10,4.486 10,10c0,3.767 -2.09,7.177 -5.456,8.898l-0.544,0.28l0,2.822l-3,0l0,-8.142c1.72,-0.447 3,-1.999 3,-3.858c0,-2.206 -1.794,-4 -4,-4s-4,1.794 -4,4c0,1.859 1.28,3.411 3,3.858l0,8.142l-3,0l0,-2.822l-0.544,-0.28zm4.544,-6.898c-1.103,0 -2,-0.897 -2,-2s0.897,-2 2,-2s2,0.897 2,2s-0.897,2 -2,2zm-4,14l0,-2l8,0l0,2l-3,0l-2,0l-3,0zm5,26l0,-24l5,0l0,-4l2,0l0,-2l-2,0l0,-1.617c3.716,-2.145 6,-6.068 6,-10.383c0,-2.614 -0.849,-5.027 -2.273,-7l20.273,0l0,12l11,0l0,37l-40,0z"/>
  <path id="svg_3" fill="#ffbc5e" d="m53,59l6,0l0,-33l-6,0l0,33zm2,-31l2,0l0,29l-2,0l0,-29z"/>
  <polygon id="svg_4" fill="#ffbc5e" points="45,59 51,59 51,42 49,42 49,57 47,57 47,38 49,38 49,40 51,40 51,36 45,36  "/>
  <path id="svg_5" fill="#ffbc5e" d="m37,59l6,0l0,-26l-6,0l0,26zm2,-24l2,0l0,22l-2,0l0,-22z"/>
  <polygon id="svg_6" fill="#ffbc5e" points="29,53 31,53 31,44 33,44 33,57 31,57 31,55 29,55 29,59 35,59 35,42 29,42  "/>
  <rect id="svg_7" fill="#ffbc5e" y="18" x="2" width="4" height="2"/>
  <rect id="svg_8" fill="#ffbc5e" y="29.314" x="6.686" width="4" transform="matrix(0.7071,-0.7071,0.7071,0.7071,-18.8907,15.0207) " height="2"/>
  <rect id="svg_9" fill="#ffbc5e" y="28.314" x="30.314" width="2" transform="matrix(0.707,-0.7072,0.7072,0.707,-12.2632,31.0245) " height="4"/>
  <rect id="svg_10" fill="#ffbc5e" y="18" x="34" width="4" height="2"/>
  <rect id="svg_11" fill="#ffbc5e" y="6.687" x="29.314" width="4" transform="matrix(0.7071,-0.7071,0.7071,0.7071,3.7364,24.3935) " height="2"/>
  <rect id="svg_12" fill="#ffbc5e" y="1" x="19" width="2" height="4"/>
  <rect id="svg_13" fill="#ffbc5e" y="5.687" x="7.686" width="2" transform="matrix(0.707,-0.7072,0.7072,0.707,-2.891,8.3945) " height="4"/>
 </g>
</svg>