<?xml version="1.0" encoding="UTF-8" standalone="no"?>
<!-- Created with Inkscape (http://www.inkscape.org/) -->

<svg
   version="1.1"
   id="svg1"
   width="512"
   height="512"
   viewBox="0 0 512 512"
   sodipodi:docname="icon-query.svg"
   inkscape:version="1.3 (0e150ed6c4, 2023-07-21)"
   xml:space="preserve"
   xmlns:inkscape="http://www.inkscape.org/namespaces/inkscape"
   xmlns:sodipodi="http://sodipodi.sourceforge.net/DTD/sodipodi-0.dtd"
   xmlns="http://www.w3.org/2000/svg"
   xmlns:svg="http://www.w3.org/2000/svg"><defs
     id="defs1" /><sodipodi:namedview
     id="namedview1"
     pagecolor="#ffffff"
     bordercolor="#000000"
     borderopacity="0.25"
     inkscape:showpageshadow="2"
     inkscape:pageopacity="0.0"
     inkscape:pagecheckerboard="0"
     inkscape:deskcolor="#d1d1d1"
     inkscape:zoom="0.48925781"
     inkscape:cx="5.1097804"
     inkscape:cy="189.06188"
     inkscape:window-width="1366"
     inkscape:window-height="697"
     inkscape:window-x="-8"
     inkscape:window-y="-8"
     inkscape:window-maximized="1"
     inkscape:current-layer="g1" /><g
     inkscape:groupmode="layer"
     inkscape:label="Image"
     id="g1"><path
       style="fill:#ffdb6e;fill-opacity:1"
       d="m 113.57684,494.18166 c -4.90822,-1.54705 -13.27886,-10.21481 -14.78388,-15.30866 -0.66886,-2.26381 -1.216117,-9.14676 -1.216117,-15.29545 0,-10.53619 0.14123,-11.32067 2.454547,-13.63398 2.36445,-2.36445 2.95174,-2.45455 16,-2.45455 h 13.54545 v -69.54545 -69.54546 l 2.45455,-2.45454 2.45454,-2.45455 h 37.09091 37.09091 l 2.45455,2.45455 c 3.24734,3.24734 3.24734,7.84356 0,11.09091 l -2.45455,2.45454 H 177.1223 145.57684 v 64 64 h 112 112 v -64 -64 h -31.54545 -31.54546 l -2.45454,-2.45454 c -3.24735,-3.24735 -3.24735,-7.84357 0,-11.09091 l 2.45454,-2.45455 h 37.09091 37.09091 l 2.45455,2.45455 2.45454,2.45454 v 69.54546 69.54545 h 13.54546 c 13.04826,0 13.63555,0.0901 16,2.45455 2.31331,2.31331 2.45454,3.09779 2.45454,13.63398 0,6.14869 -0.54725,13.03164 -1.21611,15.29545 -1.62291,5.49284 -9.90707,13.777 -15.39991,15.39991 -5.61783,1.65984 -282.10693,1.57205 -287.38398,-0.0913 z M 399.1223,477.03448 c 2.01589,-2.0159 2.45454,-3.44557 2.45454,-8 v -5.54546 h -144 -144 v 5.54546 c 0,4.55443 0.43865,5.9841 2.45455,8 l 2.45454,2.45454 h 139.09091 139.09091 z m -235.09091,-64 c -4.96019,-4.96019 -1.44542,-13.54546 5.54545,-13.54546 4.1111,0 8,3.88891 8,8 0,4.1111 -3.8889,8 -8,8 -1.94837,0 -3.99821,-0.9073 -5.54545,-2.45454 z m 32,0 c -1.54724,-1.54724 -2.45455,-3.59708 -2.45455,-5.54546 0,-1.94837 0.90731,-3.99821 2.45455,-5.54545 2.31098,-2.31098 3.10325,-2.45455 13.54545,-2.45455 10.4422,0 11.23448,0.14357 13.54546,2.45455 1.54724,1.54724 2.45454,3.59708 2.45454,5.54545 0,1.94838 -0.9073,3.99822 -2.45454,5.54546 -2.31098,2.31098 -3.10326,2.45454 -13.54546,2.45454 -10.4422,0 -11.23447,-0.14356 -13.54545,-2.45454 z m 48,0 c -4.96019,-4.96019 -1.44542,-13.54546 5.54545,-13.54546 4.1111,0 8,3.88891 8,8 0,4.1111 -3.8889,8 -8,8 -1.94837,0 -3.99821,-0.9073 -5.54545,-2.45454 z m 32,0 c -1.54724,-1.54724 -2.45455,-3.59708 -2.45455,-5.54546 0,-1.94837 0.90731,-3.99821 2.45455,-5.54545 1.54724,-1.54724 3.59708,-2.45455 5.54545,-2.45455 1.94838,0 3.99822,0.90731 5.54546,2.45455 1.54724,1.54724 2.45454,3.59708 2.45454,5.54545 0,1.94838 -0.9073,3.99822 -2.45454,5.54546 -1.54724,1.54724 -3.59708,2.45454 -5.54546,2.45454 -1.94837,0 -3.99821,-0.9073 -5.54545,-2.45454 z m 32,0 c -1.54724,-1.54724 -2.45455,-3.59708 -2.45455,-5.54546 0,-1.94837 0.90731,-3.99821 2.45455,-5.54545 2.43463,-2.43463 2.60943,-2.45455 21.54545,-2.45455 18.93603,0 19.11083,0.0199 21.54546,2.45455 1.54724,1.54724 2.45454,3.59708 2.45454,5.54545 0,1.94838 -0.9073,3.99822 -2.45454,5.54546 -2.43463,2.43463 -2.60943,2.45454 -21.54546,2.45454 -18.93602,0 -19.11082,-0.0199 -21.54545,-2.45454 z m -144,-32 c -1.54724,-1.54724 -2.45455,-3.59708 -2.45455,-5.54546 0,-1.94837 0.90731,-3.99821 2.45455,-5.54545 2.31098,-2.31098 3.10325,-2.45455 13.54545,-2.45455 10.4422,0 11.23448,0.14357 13.54546,2.45455 1.54724,1.54724 2.45454,3.59708 2.45454,5.54545 0,1.94838 -0.9073,3.99822 -2.45454,5.54546 -2.31098,2.31098 -3.10326,2.45454 -13.54546,2.45454 -10.4422,0 -11.23447,-0.14356 -13.54545,-2.45454 z m 48,0 c -4.96019,-4.96019 -1.44542,-13.54546 5.54545,-13.54546 4.1111,0 8,3.88891 8,8 0,4.1111 -3.8889,8 -8,8 -1.94837,0 -3.99821,-0.9073 -5.54545,-2.45454 z m 32,0 c -1.54724,-1.54724 -2.45455,-3.59708 -2.45455,-5.54546 0,-1.94837 0.90731,-3.99821 2.45455,-5.54545 2.43463,-2.43463 2.60943,-2.45455 21.54545,-2.45455 18.93603,0 19.11083,0.0199 21.54546,2.45455 1.54724,1.54724 2.45454,3.59708 2.45454,5.54545 0,1.94838 -0.9073,3.99822 -2.45454,5.54546 -2.43463,2.43463 -2.60943,2.45454 -21.54546,2.45454 -18.93602,0 -19.11082,-0.0199 -21.54545,-2.45454 z m 64,0 c -1.54724,-1.54724 -2.45455,-3.59708 -2.45455,-5.54546 0,-1.94837 0.90731,-3.99821 2.45455,-5.54545 1.54724,-1.54724 3.59708,-2.45455 5.54545,-2.45455 1.94838,0 3.99822,0.90731 5.54546,2.45455 1.54724,1.54724 2.45454,3.59708 2.45454,5.54545 0,1.94838 -0.9073,3.99822 -2.45454,5.54546 -1.54724,1.54724 -3.59708,2.45454 -5.54546,2.45454 -1.94837,0 -3.99821,-0.9073 -5.54545,-2.45454 z m 32,0 c -1.54724,-1.54724 -2.45455,-3.59708 -2.45455,-5.54546 0,-1.94837 0.90731,-3.99821 2.45455,-5.54545 1.54724,-1.54724 3.59708,-2.45455 5.54545,-2.45455 1.94838,0 3.99822,0.90731 5.54546,2.45455 1.54724,1.54724 2.45454,3.59708 2.45454,5.54545 0,1.94838 -0.9073,3.99822 -2.45454,5.54546 -1.54724,1.54724 -3.59708,2.45454 -5.54546,2.45454 -1.94837,0 -3.99821,-0.9073 -5.54545,-2.45454 z M 236.22307,349.22616 c -2.05648,-2.05648 -2.62082,-5.18017 -6.18772,-34.25 l -3.92486,-31.98714 -24.26682,-32.43187 c -26.11106,-34.89664 -26.60658,-35.81928 -21.81228,-40.61358 l 2.45454,-2.45455 h 33.54546 33.54545 v -8 -8 H 160.03139 70.485933 l -2.45454,-2.45454 c -2.36445,-2.36445 -2.45455,-2.95174 -2.45455,-16 v -13.54546 h -21.54545 c -21.54209,0 -21.54584,-3.8e-4 -24,-2.45454 l -2.45455,-2.45455 V 87.489021 20.398112 l 2.45455,-2.454545 c 2.38919,-2.389193 2.85634,-2.454546 17.54545,-2.454546 14.68911,0 15.15626,0.06535 17.54545,2.454546 3.24735,3.247346 3.24735,7.843563 0,11.090909 -2.2632,2.263203 -3.19865,2.454545 -12,2.454545 h -9.54545 v 24 24 h 56 55.999997 v -24 -24 H 112.03139 78.485933 l -2.45454,-2.454545 c -3.24735,-3.247346 -3.24735,-7.843563 0,-11.090909 l 2.45454,-2.454546 h 39.090907 39.09091 l 2.45455,2.454546 2.45454,2.454545 v 67.090909 67.090909 l -2.45454,2.45455 -2.45455,2.45454 H 119.1223 81.576843 v 8 8 h 83.999997 84 v -8 -8 h -29.54545 -29.54546 l -2.45454,-2.45454 -2.45455,-2.45455 V 87.489021 20.398112 l 2.45455,-2.454545 c 2.38919,-2.389193 2.85634,-2.454546 17.54545,-2.454546 14.68912,0 15.15626,0.06535 17.54546,2.454546 1.54724,1.547237 2.45454,3.597082 2.45454,5.545454 0,1.948373 -0.9073,3.998218 -2.45454,5.545455 -2.26321,2.263203 -3.19866,2.454545 -12,2.454545 h -9.54546 v 24 24 h 56 56 v -24 -24 h -33.54545 -33.54546 l -2.45454,-2.454545 c -3.24735,-3.247346 -3.24735,-7.843563 0,-11.090909 l 2.45454,-2.454546 h 39.09091 39.09091 l 2.45455,2.454546 2.45454,2.454545 v 67.090909 67.090909 l -2.45454,2.45455 -2.45455,2.45454 H 295.1223 265.57684 v 8 8 h 84 84 v -8 -8 h -37.54545 -37.54546 l -2.45454,-2.45454 -2.45455,-2.45455 V 87.489021 20.398112 l 2.45455,-2.454545 c 2.38919,-2.389193 2.85634,-2.454546 17.54545,-2.454546 14.68912,0 15.15626,0.06535 17.54546,2.454546 3.24734,3.247346 3.24734,7.843563 0,11.090909 -2.26321,2.263203 -3.19866,2.454545 -12,2.454545 h -9.54546 v 24 24 h 56 56 v -24 -24 h -33.54545 -33.54546 l -2.45454,-2.454545 c -3.24735,-3.247346 -3.24735,-7.843563 0,-11.090909 l 2.45454,-2.454546 h 39.09091 39.09091 l 2.45455,2.454546 2.45454,2.454545 v 67.090909 67.090909 l -2.45454,2.45455 c -2.45416,2.45416 -2.45791,2.45454 -24,2.45454 h -21.54546 v 13.54546 c 0,13.04826 -0.0901,13.63555 -2.45454,16 l -2.45455,2.45454 H 355.1223 265.57684 v 8 8 h 5.54546 c 6.67228,0 10.45454,2.89426 10.45454,8 0,1.94838 -0.9073,3.99822 -2.45454,5.54546 l -2.45455,2.45454 H 239.1076 201.54745 l 19.38725,25.81076 c 10.66298,14.19592 19.65558,26.68342 19.98354,27.75 0.32797,1.06658 1.96117,12.96424 3.62935,26.43924 1.66817,13.475 3.29674,26.1875 3.61904,28.25 l 0.58601,3.75 h 8.80081 8.80081 l 0.56376,-3.25 c 0.31006,-1.7875 2.01916,-15.10176 3.79799,-29.58725 l 3.23424,-26.33726 19.82243,-26.41274 19.82243,-26.41275 h -5.55459 c -6.68193,0 -10.46368,-2.89133 -10.46368,-8 0,-1.94837 0.90731,-3.99821 2.45455,-5.54545 2.38919,-2.38919 2.85634,-2.45455 17.54545,-2.45455 14.68912,0 15.15626,0.0654 17.54546,2.45455 4.7943,4.7943 4.29878,5.71694 -21.81228,40.61358 l -24.26683,32.43187 -3.92486,31.98714 c -3.5669,29.06983 -4.13124,32.19352 -6.18772,34.25 -2.19244,2.19244 -2.85697,2.26286 -21.35377,2.26286 -18.49679,0 -19.16133,-0.0704 -21.35377,-2.26286 z M 145.57684,119.48902 V 95.489021 h -55.999997 -56 v 23.999999 24 h 56 55.999997 z m -93.545447,5.54546 c -1.54724,-1.54724 -2.45455,-3.59708 -2.45455,-5.54546 0,-1.94837 0.90731,-3.99821 2.45455,-5.54545 2.43463,-2.43463 2.60942,-2.45455 21.54545,-2.45455 18.93603,0 19.11082,0.0199 21.54545,2.45455 1.54724,1.54724 2.45455,3.59708 2.45455,5.54545 0,1.94838 -0.90731,3.99822 -2.45455,5.54546 -2.43463,2.43463 -2.60942,2.45454 -21.54545,2.45454 -18.93603,0 -19.11082,-0.0199 -21.54545,-2.45454 z m 63.999997,0 c -1.54724,-1.54724 -2.45455,-3.59708 -2.45455,-5.54546 0,-1.94837 0.90731,-3.99821 2.45455,-5.54545 1.54724,-1.54724 3.59708,-2.45455 5.54545,-2.45455 1.94838,0 3.99822,0.90731 5.54546,2.45455 1.54724,1.54724 2.45454,3.59708 2.45454,5.54545 0,1.94838 -0.9073,3.99822 -2.45454,5.54546 -1.54724,1.54724 -3.59708,2.45454 -5.54546,2.45454 -1.94837,0 -3.99821,-0.9073 -5.54545,-2.45454 z m 197.54545,-5.54546 V 95.489021 h -56 -56 v 23.999999 24 h 56 56 z m -93.54545,5.54546 c -1.54724,-1.54724 -2.45455,-3.59708 -2.45455,-5.54546 0,-1.94837 0.90731,-3.99821 2.45455,-5.54545 2.43463,-2.43463 2.60943,-2.45455 21.54545,-2.45455 18.93603,0 19.11083,0.0199 21.54546,2.45455 1.54724,1.54724 2.45454,3.59708 2.45454,5.54545 0,1.94838 -0.9073,3.99822 -2.45454,5.54546 -2.43463,2.43463 -2.60943,2.45454 -21.54546,2.45454 -18.93602,0 -19.11082,-0.0199 -21.54545,-2.45454 z m 64,0 c -4.96019,-4.96019 -1.44542,-13.54546 5.54545,-13.54546 4.1111,0 8,3.88891 8,8 0,4.1111 -3.8889,8 -8,8 -1.94837,0 -3.99821,-0.9073 -5.54545,-2.45454 z m 197.54545,-5.54546 V 95.489021 h -56 -56 v 23.999999 24 h 56 56 z m -93.54545,5.54546 c -1.54724,-1.54724 -2.45455,-3.59708 -2.45455,-5.54546 0,-1.94837 0.90731,-3.99821 2.45455,-5.54545 2.43463,-2.43463 2.60943,-2.45455 21.54545,-2.45455 18.93603,0 19.11083,0.0199 21.54546,2.45455 1.54724,1.54724 2.45454,3.59708 2.45454,5.54545 0,1.94838 -0.9073,3.99822 -2.45454,5.54546 -2.43463,2.43463 -2.60943,2.45454 -21.54546,2.45454 -18.93602,0 -19.11082,-0.0199 -21.54545,-2.45454 z m 64,0 c -4.96019,-4.96019 -1.44542,-13.54546 5.54545,-13.54546 4.1111,0 8,3.88891 8,8 0,4.1111 -3.8889,8 -8,8 -1.94837,0 -3.99821,-0.9073 -5.54545,-2.45454 z M 52.031393,61.034476 c -1.54724,-1.547237 -2.45455,-3.597082 -2.45455,-5.545455 0,-1.948372 0.90731,-3.998217 2.45455,-5.545454 2.43463,-2.434632 2.60942,-2.454546 21.54545,-2.454546 18.93603,0 19.11082,0.01991 21.54545,2.454546 1.54724,1.547237 2.45455,3.597082 2.45455,5.545454 0,1.948373 -0.90731,3.998218 -2.45455,5.545455 -2.43463,2.434632 -2.60942,2.454545 -21.54545,2.454545 -18.93603,0 -19.11082,-0.01991 -21.54545,-2.454545 z m 63.999997,0 c -1.54724,-1.547237 -2.45455,-3.597082 -2.45455,-5.545455 0,-1.948372 0.90731,-3.998217 2.45455,-5.545454 4.96019,-4.960192 13.54545,-1.44542 13.54545,5.545454 0,4.111098 -3.8889,8 -8,8 -1.94837,0 -3.99821,-0.907308 -5.54545,-2.454545 z m 104,0 c -1.54724,-1.547237 -2.45455,-3.597082 -2.45455,-5.545455 0,-1.948372 0.90731,-3.998217 2.45455,-5.545454 2.43463,-2.434632 2.60943,-2.454546 21.54545,-2.454546 18.93603,0 19.11083,0.01991 21.54546,2.454546 1.54724,1.547237 2.45454,3.597082 2.45454,5.545454 0,1.948373 -0.9073,3.998218 -2.45454,5.545455 -2.43463,2.434632 -2.60943,2.454545 -21.54546,2.454545 -18.93602,0 -19.11082,-0.01991 -21.54545,-2.454545 z m 64,0 c -4.96019,-4.960192 -1.44542,-13.545455 5.54545,-13.545455 4.1111,0 8,3.888903 8,8 0,4.111098 -3.8889,8 -8,8 -1.94837,0 -3.99821,-0.907308 -5.54545,-2.454545 z m 104,0 c -1.54724,-1.547237 -2.45455,-3.597082 -2.45455,-5.545455 0,-1.948372 0.90731,-3.998217 2.45455,-5.545454 2.43463,-2.434632 2.60943,-2.454546 21.54545,-2.454546 18.93603,0 19.11083,0.01991 21.54546,2.454546 1.54724,1.547237 2.45454,3.597082 2.45454,5.545454 0,1.948373 -0.9073,3.998218 -2.45454,5.545455 -2.43463,2.434632 -2.60943,2.454545 -21.54546,2.454545 -18.93602,0 -19.11082,-0.01991 -21.54545,-2.454545 z m 64,0 c -4.96019,-4.960192 -1.44542,-13.545455 5.54545,-13.545455 4.1111,0 8,3.888903 8,8 0,4.111098 -3.8889,8 -8,8 -1.94837,0 -3.99821,-0.907308 -5.54545,-2.454545 z"
       id="path1" /></g></svg>
