<?xml version="1.0" encoding="UTF-8" standalone="no"?>
<svg
   viewBox="0 0 48 48"
   width="100px"
   height="100px"
   version="1.1"
   id="svg8"
   sodipodi:docname="power-bi.svg"
   inkscape:version="1.3 (0e150ed6c4, 2023-07-21)"
   xmlns:inkscape="http://www.inkscape.org/namespaces/inkscape"
   xmlns:sodipodi="http://sodipodi.sourceforge.net/DTD/sodipodi-0.dtd"
   xmlns="http://www.w3.org/2000/svg"
   xmlns:svg="http://www.w3.org/2000/svg">
  <defs
     id="defs8" />
  <sodipodi:namedview
     id="namedview8"
     pagecolor="#ffffff"
     bordercolor="#000000"
     borderopacity="0.25"
     inkscape:showpageshadow="2"
     inkscape:pageopacity="0.0"
     inkscape:pagecheckerboard="0"
     inkscape:deskcolor="#d1d1d1"
     inkscape:zoom="3.542605"
     inkscape:cx="69.581565"
     inkscape:cy="42.200584"
     inkscape:window-width="1366"
     inkscape:window-height="697"
     inkscape:window-x="-8"
     inkscape:window-y="-8"
     inkscape:window-maximized="1"
     inkscape:current-layer="svg8" />
  <linearGradient
     id="zlT103XX9RAwCGfF9JpW0a"
     x1="32"
     x2="32"
     y1="3.947"
     y2="44.751"
     gradientUnits="userSpaceOnUse"
     gradientTransform="matrix(1.1829162,0,0,1.1829162,-4.3899899,-4.3899899)">
    <stop
       offset=".006"
       stop-color="#ebb112"
       id="stop1" />
    <stop
       offset="1"
       stop-color="#bb5c17"
       id="stop2" />
  </linearGradient>
  <path
     fill="url(#zlT103XX9RAwCGfF9JpW0a)"
     d="m 27.548749,47.658325 h 11.829162 c 1.307123,0 2.365833,-1.05871 2.365833,-2.365833 V 2.7075076 c 0,-1.3071225 -1.05871,-2.3658325 -2.365833,-2.3658325 H 27.548749 c -1.307123,0 -2.365833,1.05871 -2.365833,2.3658325 V 45.292492 c 0,1.307123 1.05871,2.365833 2.365833,2.365833 z"
     id="path2"
     style="fill:url(#zlT103XX9RAwCGfF9JpW0a);stroke-width:1.18292" />
  <linearGradient
     id="zlT103XX9RAwCGfF9JpW0b"
     x1="22.089"
     x2="26.009"
     y1="13.14"
     y2="45.672"
     gradientUnits="userSpaceOnUse"
     gradientTransform="matrix(1.1829162,0,0,1.1829162,-4.3899899,-4.3899899)">
    <stop
       offset="0"
       stop-color="#fed35d"
       id="stop3" />
    <stop
       offset=".281"
       stop-color="#f6c648"
       id="stop4" />
    <stop
       offset=".857"
       stop-color="#e3a513"
       id="stop5" />
    <stop
       offset=".989"
       stop-color="#de9d06"
       id="stop6" />
  </linearGradient>
  <path
     fill="url(#zlT103XX9RAwCGfF9JpW0b)"
     d="m 18.085419,47.658325 h 11.829162 c 1.307123,0 2.365833,-1.05871 2.365833,-2.365833 V 14.53667 c 0,-1.307122 -1.05871,-2.365832 -2.365833,-2.365832 H 18.085419 c -1.307123,0 -2.365833,1.05871 -2.365833,2.365832 v 30.755822 c 0,1.307123 1.05871,2.365833 2.365833,2.365833 z"
     id="path6"
     style="fill:url(#zlT103XX9RAwCGfF9JpW0b);stroke-width:1.18292" />
  <linearGradient
     id="zlT103XX9RAwCGfF9JpW0c"
     x1="9.803"
     x2="21.335"
     y1="22.781"
     y2="43.658"
     gradientUnits="userSpaceOnUse"
     gradientTransform="matrix(1.1829162,0,0,1.1829162,-4.3899899,-4.3899899)">
    <stop
       offset="0"
       stop-color="#ffd869"
       id="stop7" />
    <stop
       offset=".983"
       stop-color="#ffdf26"
       id="stop8" />
  </linearGradient>
  <path
     fill="url(#zlT103XX9RAwCGfF9JpW0c)"
     d="M 8.6220888,47.658325 H 20.451251 c 1.307123,0 2.365833,-1.05871 2.365833,-2.365833 V 26.365832 C 22.817084,25.05871 21.758374,24 20.451251,24 H 8.6220888 c -1.3071224,0 -2.3658325,1.05871 -2.3658325,2.365832 v 18.92666 c 0,1.307123 1.0587101,2.365833 2.3658325,2.365833 z"
     id="path8"
     style="fill:url(#zlT103XX9RAwCGfF9JpW0c);stroke-width:1.18292" />
</svg>
