<?xml version="1.0" encoding="UTF-8" standalone="no"?>
<svg
   id="Icons"
   viewBox="0 0 288 288"
   version="1.1"
   sodipodi:docname="sql.svg"
   inkscape:version="1.3 (0e150ed6c4, 2023-07-21)"
   xmlns:inkscape="http://www.inkscape.org/namespaces/inkscape"
   xmlns:sodipodi="http://sodipodi.sourceforge.net/DTD/sodipodi-0.dtd"
   xmlns="http://www.w3.org/2000/svg"
   xmlns:svg="http://www.w3.org/2000/svg">
  <sodipodi:namedview
     id="namedview8"
     pagecolor="#ffffff"
     bordercolor="#000000"
     borderopacity="0.25"
     inkscape:showpageshadow="2"
     inkscape:pageopacity="0.0"
     inkscape:pagecheckerboard="0"
     inkscape:deskcolor="#d1d1d1"
     inkscape:zoom="1.7395833"
     inkscape:cx="143.71257"
     inkscape:cy="116.40719"
     inkscape:window-width="1366"
     inkscape:window-height="697"
     inkscape:window-x="-8"
     inkscape:window-y="-8"
     inkscape:window-maximized="1"
     inkscape:current-layer="db-logobox" />
  <defs
     id="defs1">
    <style
       id="style1">.cls-1{fill:#b9ced9;}.cls-2{fill:#a1bdcc;}.cls-3{fill:#8aadbf;}.cls-4{fill:#789eb2;}.cls-5{fill:none;}.cls-6{fill:#f80000;}.cls-7{fill:#fff;}</style>
  </defs>
  <title
     id="title1">Campaign_Oracle-Database-Appliance-Campaign_Detailed</title>
  <g
     id="db-logobox">
    <path
       class="cls-1"
       d="m 80.669156,29.687126 c -42.979036,0 -77.80688,-6.005209 -77.80688,-13.413906 v 144.88531 c 0,7.41018 34.827844,13.4154 77.80688,13.4154 42.979054,0 77.806884,-6.0067 77.806884,-13.4154 V 16.277665 c 0,7.408699 -34.82783,13.409461 -77.806884,13.409461 z"
       id="path1"
       style="stroke-width:1.48204" />
    <path
       class="cls-2"
       d="M 2.862276,16.277665 V 161.15853 c 0,7.41018 34.827844,13.4154 77.80688,13.4154 V 29.687126 c -42.971625,0 -77.80688,-6.000762 -77.80688,-13.409461 z"
       id="path2"
       style="stroke-width:1.48204" />
    <path
       class="cls-2"
       d="m 147.74463,23.08021 v 144.88086 c 6.81735,-1.99334 10.73141,-4.31865 10.73141,-6.80106 V 16.277665 c 0,2.482411 -3.91256,4.813653 -10.73141,6.802545 z"
       id="path3"
       style="stroke-width:1.48204" />
    <ellipse
       class="cls-3"
       cx="80.669159"
       cy="16.277662"
       rx="77.806885"
       ry="13.415389"
       id="ellipse3"
       style="stroke-width:1.48204" />
    <path
       class="cls-4"
       d="m 2.862276,107.49401 c 0,7.41019 34.827844,13.41538 77.80688,13.41538 42.979054,0 77.806884,-6.00519 77.806884,-13.41538 v 10.73291 c 0,7.41018 -34.82783,13.41539 -77.806884,13.41539 -42.979036,0 -77.80688,-6.00225 -77.80688,-13.41095 z"
       id="path4"
       style="stroke-width:1.48204" />
    <path
       class="cls-4"
       d="m 158.47604,59.204836 c 0,7.410179 -34.82783,13.415392 -77.806884,13.415392 -42.979036,0 -77.80688,-6.006699 -77.80688,-13.415392 v 10.7329 c 0,7.410186 34.827844,13.413913 77.80688,13.413913 42.979054,0 77.806884,-6.005213 77.806884,-13.413913 z"
       id="path5"
       style="stroke-width:1.48204" />
    <rect
       class="cls-5"
       width="288"
       height="288"
       id="rect5" />
    <rect
       class="cls-6"
       x="100.67665"
       y="100.67665"
       width="186.73654"
       height="186.73654"
       rx="17.784431"
       ry="17.784431"
       id="rect6"
       style="stroke-width:1.48204" />
    <path
       class="cls-7"
       d="m 149.10365,221.61078 c -13.85851,0 -16.4506,-8.15119 -15.85779,-17.41392 h 11.18937 c 0,5.11301 0.22231,9.40945 6.37277,9.40945 3.78067,0 5.63173,-2.44389 5.63173,-6.07636 0,-9.63323 -22.52695,-10.22605 -22.52695,-26.16089 0,-8.37351 4.0015,-15.04267 17.63623,-15.04267 10.89444,0 16.30239,4.89072 15.56139,16.08157 h -10.89298 c 0,-4.0015 -0.66839,-8.07857 -5.18711,-8.07857 -3.63248,0 -5.77995,2.00075 -5.77995,5.70584 0,10.15342 22.52695,9.2642 22.52695,26.08383 0,13.86148 -10.15195,15.49172 -18.67366,15.49172 z"
       id="path6"
       style="stroke-width:1.48204" />
    <path
       class="cls-7"
       d="m 216.83269,220.72156 h -15.78368 c -0.96481,0 -2.07486,0.1482 -3.18786,0.2223 a 25.376901,25.376901 0 0 1 -3.26048,0.29641 c -16.52469,0 -18.60103,-8.66991 -18.60103,-27.26946 0,-14.15344 0,-27.64145 18.45283,-27.64145 18.45284,0 18.45431,13.48653 18.45431,27.64145 0,11.48577 -2.07485,16.52617 -6.52096,20.23128 l 0.14821,0.14819 c 1.63023,-0.44461 4.52021,-1.85402 5.63173,-1.85402 h 4.66693 z m -15.26496,-26.75224 c 0,-13.71031 -0.81512,-19.63846 -7.11378,-19.63846 -6.29864,0 -7.11377,5.92815 -7.11377,19.63846 0,13.33833 0.81513,19.26647 7.11377,19.26647 6.29866,0 7.11229,-5.93407 7.11229,-19.27239 z"
       id="path7"
       style="stroke-width:1.48204" />
    <path
       class="cls-7"
       d="m 227.05578,220.72156 v -53.5015 h 11.19084 v 44.60928 h 16.74702 v 8.89222 z"
       id="path8"
       style="stroke-width:1.48204" />
  </g>
</svg>
